<?xml version="1.0" encoding="utf-8" standalone="no"?>
<!DOCTYPE svg PUBLIC "-//W3C//DTD SVG 1.1//EN"
  "http://www.w3.org/Graphics/SVG/1.1/DTD/svg11.dtd">
<!-- Created with matplotlib (https://matplotlib.org/) -->
<svg height="309.166209pt" version="1.1" viewBox="0 0 510.84731 309.166209" width="510.84731pt" xmlns="http://www.w3.org/2000/svg" xmlns:xlink="http://www.w3.org/1999/xlink">
 <metadata>
  <rdf:RDF xmlns:cc="http://creativecommons.org/ns#" xmlns:dc="http://purl.org/dc/elements/1.1/" xmlns:rdf="http://www.w3.org/1999/02/22-rdf-syntax-ns#">
   <cc:Work>
    <dc:type rdf:resource="http://purl.org/dc/dcmitype/StillImage"/>
    <dc:date>2021-12-13T21:31:05.750023</dc:date>
    <dc:format>image/svg+xml</dc:format>
    <dc:creator>
     <cc:Agent>
      <dc:title>Matplotlib v3.3.4, https://matplotlib.org/</dc:title>
     </cc:Agent>
    </dc:creator>
   </cc:Work>
  </rdf:RDF>
 </metadata>
 <defs>
  <style type="text/css">*{stroke-linecap:butt;stroke-linejoin:round;}</style>
 </defs>
 <g id="figure_1">
  <g id="patch_1">
   <path d="M 0 309.166209 
L 510.84731 309.166209 
L 510.84731 0 
L 0 0 
z
" style="fill:#ffffff;"/>
  </g>
  <g id="axes_1">
   <g id="patch_2">
    <path d="M 59.339063 267.431991 
L 394.139063 267.431991 
L 394.139063 49.991991 
L 59.339063 49.991991 
z
" style="fill:#ffffff;"/>
   </g>
   <g id="matplotlib.axis_1">
    <g id="xtick_1">
     <g id="line2d_1">
      <path clip-path="url(#p40ca9a866f)" d="M 109.213262 267.431991 
L 109.213262 49.991991 
" style="fill:none;stroke:#cccccc;stroke-linecap:round;"/>
     </g>
     <g id="text_1">
      <!-- 0 -->
      <g style="fill:#262626;" transform="translate(106.154747 284.805584)scale(0.11 -0.11)">
       <defs>
        <path d="M 4.15625 35.296875 
Q 4.15625 48 6.765625 55.734375 
Q 9.375 63.484375 14.515625 67.671875 
Q 19.671875 71.875 27.484375 71.875 
Q 33.25 71.875 37.59375 69.546875 
Q 41.9375 67.234375 44.765625 62.859375 
Q 47.609375 58.5 49.21875 52.21875 
Q 50.828125 45.953125 50.828125 35.296875 
Q 50.828125 22.703125 48.234375 14.96875 
Q 45.65625 7.234375 40.5 3 
Q 35.359375 -1.21875 27.484375 -1.21875 
Q 17.140625 -1.21875 11.234375 6.203125 
Q 4.15625 15.140625 4.15625 35.296875 
z
M 13.1875 35.296875 
Q 13.1875 17.671875 17.3125 11.828125 
Q 21.4375 6 27.484375 6 
Q 33.546875 6 37.671875 11.859375 
Q 41.796875 17.71875 41.796875 35.296875 
Q 41.796875 52.984375 37.671875 58.78125 
Q 33.546875 64.59375 27.390625 64.59375 
Q 21.34375 64.59375 17.71875 59.46875 
Q 13.1875 52.9375 13.1875 35.296875 
z
" id="ArialMT-48"/>
       </defs>
       <use xlink:href="#ArialMT-48"/>
      </g>
     </g>
    </g>
    <g id="xtick_2">
     <g id="line2d_2">
      <path clip-path="url(#p40ca9a866f)" d="M 166.194458 267.431991 
L 166.194458 49.991991 
" style="fill:none;stroke:#cccccc;stroke-linecap:round;"/>
     </g>
     <g id="text_2">
      <!-- 20 -->
      <g style="fill:#262626;" transform="translate(160.077427 284.805584)scale(0.11 -0.11)">
       <defs>
        <path d="M 50.34375 8.453125 
L 50.34375 0 
L 3.03125 0 
Q 2.9375 3.171875 4.046875 6.109375 
Q 5.859375 10.9375 9.828125 15.625 
Q 13.8125 20.3125 21.34375 26.46875 
Q 33.015625 36.03125 37.109375 41.625 
Q 41.21875 47.21875 41.21875 52.203125 
Q 41.21875 57.421875 37.46875 61 
Q 33.734375 64.59375 27.734375 64.59375 
Q 21.390625 64.59375 17.578125 60.78125 
Q 13.765625 56.984375 13.71875 50.25 
L 4.6875 51.171875 
Q 5.609375 61.28125 11.65625 66.578125 
Q 17.71875 71.875 27.9375 71.875 
Q 38.234375 71.875 44.234375 66.15625 
Q 50.25 60.453125 50.25 52 
Q 50.25 47.703125 48.484375 43.546875 
Q 46.734375 39.40625 42.65625 34.8125 
Q 38.578125 30.21875 29.109375 22.21875 
Q 21.1875 15.578125 18.9375 13.203125 
Q 16.703125 10.84375 15.234375 8.453125 
z
" id="ArialMT-50"/>
       </defs>
       <use xlink:href="#ArialMT-50"/>
       <use x="55.615234" xlink:href="#ArialMT-48"/>
      </g>
     </g>
    </g>
    <g id="xtick_3">
     <g id="line2d_3">
      <path clip-path="url(#p40ca9a866f)" d="M 223.175653 267.431991 
L 223.175653 49.991991 
" style="fill:none;stroke:#cccccc;stroke-linecap:round;"/>
     </g>
     <g id="text_3">
      <!-- 40 -->
      <g style="fill:#262626;" transform="translate(217.058622 284.805584)scale(0.11 -0.11)">
       <defs>
        <path d="M 32.328125 0 
L 32.328125 17.140625 
L 1.265625 17.140625 
L 1.265625 25.203125 
L 33.9375 71.578125 
L 41.109375 71.578125 
L 41.109375 25.203125 
L 50.78125 25.203125 
L 50.78125 17.140625 
L 41.109375 17.140625 
L 41.109375 0 
z
M 32.328125 25.203125 
L 32.328125 57.46875 
L 9.90625 25.203125 
z
" id="ArialMT-52"/>
       </defs>
       <use xlink:href="#ArialMT-52"/>
       <use x="55.615234" xlink:href="#ArialMT-48"/>
      </g>
     </g>
    </g>
    <g id="xtick_4">
     <g id="line2d_4">
      <path clip-path="url(#p40ca9a866f)" d="M 280.156849 267.431991 
L 280.156849 49.991991 
" style="fill:none;stroke:#cccccc;stroke-linecap:round;"/>
     </g>
     <g id="text_4">
      <!-- 60 -->
      <g style="fill:#262626;" transform="translate(274.039818 284.805584)scale(0.11 -0.11)">
       <defs>
        <path d="M 49.75 54.046875 
L 41.015625 53.375 
Q 39.84375 58.546875 37.703125 60.890625 
Q 34.125 64.65625 28.90625 64.65625 
Q 24.703125 64.65625 21.53125 62.3125 
Q 17.390625 59.28125 14.984375 53.46875 
Q 12.59375 47.65625 12.5 36.921875 
Q 15.671875 41.75 20.265625 44.09375 
Q 24.859375 46.4375 29.890625 46.4375 
Q 38.671875 46.4375 44.84375 39.96875 
Q 51.03125 33.5 51.03125 23.25 
Q 51.03125 16.5 48.125 10.71875 
Q 45.21875 4.9375 40.140625 1.859375 
Q 35.0625 -1.21875 28.609375 -1.21875 
Q 17.625 -1.21875 10.6875 6.859375 
Q 3.765625 14.9375 3.765625 33.5 
Q 3.765625 54.25 11.421875 63.671875 
Q 18.109375 71.875 29.4375 71.875 
Q 37.890625 71.875 43.28125 67.140625 
Q 48.6875 62.40625 49.75 54.046875 
z
M 13.875 23.1875 
Q 13.875 18.65625 15.796875 14.5 
Q 17.71875 10.359375 21.1875 8.171875 
Q 24.65625 6 28.46875 6 
Q 34.03125 6 38.03125 10.484375 
Q 42.046875 14.984375 42.046875 22.703125 
Q 42.046875 30.125 38.078125 34.390625 
Q 34.125 38.671875 28.125 38.671875 
Q 22.171875 38.671875 18.015625 34.390625 
Q 13.875 30.125 13.875 23.1875 
z
" id="ArialMT-54"/>
       </defs>
       <use xlink:href="#ArialMT-54"/>
       <use x="55.615234" xlink:href="#ArialMT-48"/>
      </g>
     </g>
    </g>
    <g id="xtick_5">
     <g id="line2d_5">
      <path clip-path="url(#p40ca9a866f)" d="M 337.138044 267.431991 
L 337.138044 49.991991 
" style="fill:none;stroke:#cccccc;stroke-linecap:round;"/>
     </g>
     <g id="text_5">
      <!-- 80 -->
      <g style="fill:#262626;" transform="translate(331.021013 284.805584)scale(0.11 -0.11)">
       <defs>
        <path d="M 17.671875 38.8125 
Q 12.203125 40.828125 9.5625 44.53125 
Q 6.9375 48.25 6.9375 53.421875 
Q 6.9375 61.234375 12.546875 66.546875 
Q 18.171875 71.875 27.484375 71.875 
Q 36.859375 71.875 42.578125 66.421875 
Q 48.296875 60.984375 48.296875 53.171875 
Q 48.296875 48.1875 45.671875 44.5 
Q 43.0625 40.828125 37.75 38.8125 
Q 44.34375 36.671875 47.78125 31.875 
Q 51.21875 27.09375 51.21875 20.453125 
Q 51.21875 11.28125 44.71875 5.03125 
Q 38.234375 -1.21875 27.640625 -1.21875 
Q 17.046875 -1.21875 10.546875 5.046875 
Q 4.046875 11.328125 4.046875 20.703125 
Q 4.046875 27.6875 7.59375 32.390625 
Q 11.140625 37.109375 17.671875 38.8125 
z
M 15.921875 53.71875 
Q 15.921875 48.640625 19.1875 45.40625 
Q 22.46875 42.1875 27.6875 42.1875 
Q 32.765625 42.1875 36.015625 45.375 
Q 39.265625 48.578125 39.265625 53.21875 
Q 39.265625 58.0625 35.90625 61.359375 
Q 32.5625 64.65625 27.59375 64.65625 
Q 22.5625 64.65625 19.234375 61.421875 
Q 15.921875 58.203125 15.921875 53.71875 
z
M 13.09375 20.65625 
Q 13.09375 16.890625 14.875 13.375 
Q 16.65625 9.859375 20.171875 7.921875 
Q 23.6875 6 27.734375 6 
Q 34.03125 6 38.125 10.046875 
Q 42.234375 14.109375 42.234375 20.359375 
Q 42.234375 26.703125 38.015625 30.859375 
Q 33.796875 35.015625 27.4375 35.015625 
Q 21.234375 35.015625 17.15625 30.90625 
Q 13.09375 26.8125 13.09375 20.65625 
z
" id="ArialMT-56"/>
       </defs>
       <use xlink:href="#ArialMT-56"/>
       <use x="55.615234" xlink:href="#ArialMT-48"/>
      </g>
     </g>
    </g>
    <g id="xtick_6">
     <g id="line2d_6">
      <path clip-path="url(#p40ca9a866f)" d="M 394.11924 267.431991 
L 394.11924 49.991991 
" style="fill:none;stroke:#cccccc;stroke-linecap:round;"/>
     </g>
     <g id="text_6">
      <!-- 100 -->
      <g style="fill:#262626;" transform="translate(384.943693 284.805584)scale(0.11 -0.11)">
       <defs>
        <path d="M 37.25 0 
L 28.46875 0 
L 28.46875 56 
Q 25.296875 52.984375 20.140625 49.953125 
Q 14.984375 46.921875 10.890625 45.40625 
L 10.890625 53.90625 
Q 18.265625 57.375 23.78125 62.296875 
Q 29.296875 67.234375 31.59375 71.875 
L 37.25 71.875 
z
" id="ArialMT-49"/>
       </defs>
       <use xlink:href="#ArialMT-49"/>
       <use x="55.615234" xlink:href="#ArialMT-48"/>
       <use x="111.230469" xlink:href="#ArialMT-48"/>
      </g>
     </g>
    </g>
    <g id="text_7">
     <!-- age -->
     <g style="fill:#262626;" transform="translate(216.729375 299.440584)scale(0.12 -0.12)">
      <defs>
       <path d="M 40.4375 6.390625 
Q 35.546875 2.25 31.03125 0.53125 
Q 26.515625 -1.171875 21.34375 -1.171875 
Q 12.796875 -1.171875 8.203125 3 
Q 3.609375 7.171875 3.609375 13.671875 
Q 3.609375 17.484375 5.34375 20.625 
Q 7.078125 23.78125 9.890625 25.6875 
Q 12.703125 27.59375 16.21875 28.5625 
Q 18.796875 29.25 24.03125 29.890625 
Q 34.671875 31.15625 39.703125 32.90625 
Q 39.75 34.71875 39.75 35.203125 
Q 39.75 40.578125 37.25 42.78125 
Q 33.890625 45.75 27.25 45.75 
Q 21.046875 45.75 18.09375 43.578125 
Q 15.140625 41.40625 13.71875 35.890625 
L 5.125 37.0625 
Q 6.296875 42.578125 8.984375 45.96875 
Q 11.671875 49.359375 16.75 51.1875 
Q 21.828125 53.03125 28.515625 53.03125 
Q 35.15625 53.03125 39.296875 51.46875 
Q 43.453125 49.90625 45.40625 47.53125 
Q 47.359375 45.171875 48.140625 41.546875 
Q 48.578125 39.3125 48.578125 33.453125 
L 48.578125 21.734375 
Q 48.578125 9.46875 49.140625 6.21875 
Q 49.703125 2.984375 51.375 0 
L 42.1875 0 
Q 40.828125 2.734375 40.4375 6.390625 
z
M 39.703125 26.03125 
Q 34.90625 24.078125 25.34375 22.703125 
Q 19.921875 21.921875 17.671875 20.9375 
Q 15.4375 19.96875 14.203125 18.09375 
Q 12.984375 16.21875 12.984375 13.921875 
Q 12.984375 10.40625 15.640625 8.0625 
Q 18.3125 5.71875 23.4375 5.71875 
Q 28.515625 5.71875 32.46875 7.9375 
Q 36.421875 10.15625 38.28125 14.015625 
Q 39.703125 17 39.703125 22.796875 
z
" id="ArialMT-97"/>
       <path d="M 4.984375 -4.296875 
L 13.53125 -5.5625 
Q 14.0625 -9.515625 16.5 -11.328125 
Q 19.78125 -13.765625 25.4375 -13.765625 
Q 31.546875 -13.765625 34.859375 -11.328125 
Q 38.1875 -8.890625 39.359375 -4.5 
Q 40.046875 -1.8125 39.984375 6.78125 
Q 34.234375 0 25.640625 0 
Q 14.9375 0 9.078125 7.71875 
Q 3.21875 15.4375 3.21875 26.21875 
Q 3.21875 33.640625 5.90625 39.90625 
Q 8.59375 46.1875 13.6875 49.609375 
Q 18.796875 53.03125 25.6875 53.03125 
Q 34.859375 53.03125 40.828125 45.609375 
L 40.828125 51.859375 
L 48.921875 51.859375 
L 48.921875 7.03125 
Q 48.921875 -5.078125 46.453125 -10.125 
Q 44 -15.1875 38.640625 -18.109375 
Q 33.296875 -21.046875 25.484375 -21.046875 
Q 16.21875 -21.046875 10.5 -16.875 
Q 4.78125 -12.703125 4.984375 -4.296875 
z
M 12.25 26.859375 
Q 12.25 16.65625 16.296875 11.96875 
Q 20.359375 7.28125 26.46875 7.28125 
Q 32.515625 7.28125 36.609375 11.9375 
Q 40.71875 16.609375 40.71875 26.5625 
Q 40.71875 36.078125 36.5 40.90625 
Q 32.28125 45.75 26.3125 45.75 
Q 20.453125 45.75 16.34375 40.984375 
Q 12.25 36.234375 12.25 26.859375 
z
" id="ArialMT-103"/>
       <path d="M 42.09375 16.703125 
L 51.171875 15.578125 
Q 49.03125 7.625 43.21875 3.21875 
Q 37.40625 -1.171875 28.375 -1.171875 
Q 17 -1.171875 10.328125 5.828125 
Q 3.65625 12.84375 3.65625 25.484375 
Q 3.65625 38.578125 10.390625 45.796875 
Q 17.140625 53.03125 27.875 53.03125 
Q 38.28125 53.03125 44.875 45.953125 
Q 51.46875 38.875 51.46875 26.03125 
Q 51.46875 25.25 51.421875 23.6875 
L 12.75 23.6875 
Q 13.234375 15.140625 17.578125 10.59375 
Q 21.921875 6.0625 28.421875 6.0625 
Q 33.25 6.0625 36.671875 8.59375 
Q 40.09375 11.140625 42.09375 16.703125 
z
M 13.234375 30.90625 
L 42.1875 30.90625 
Q 41.609375 37.453125 38.875 40.71875 
Q 34.671875 45.796875 27.984375 45.796875 
Q 21.921875 45.796875 17.796875 41.75 
Q 13.671875 37.703125 13.234375 30.90625 
z
" id="ArialMT-101"/>
      </defs>
      <use xlink:href="#ArialMT-97"/>
      <use x="55.615234" xlink:href="#ArialMT-103"/>
      <use x="111.230469" xlink:href="#ArialMT-101"/>
     </g>
    </g>
   </g>
   <g id="matplotlib.axis_2">
    <g id="ytick_1">
     <g id="line2d_7">
      <path clip-path="url(#p40ca9a866f)" d="M 59.339063 267.431991 
L 394.139063 267.431991 
" style="fill:none;stroke:#cccccc;stroke-linecap:round;"/>
     </g>
     <g id="text_8">
      <!-- 0.000 -->
      <g style="fill:#262626;" transform="translate(22.315 271.368787)scale(0.11 -0.11)">
       <defs>
        <path d="M 9.078125 0 
L 9.078125 10.015625 
L 19.09375 10.015625 
L 19.09375 0 
z
" id="ArialMT-46"/>
       </defs>
       <use xlink:href="#ArialMT-48"/>
       <use x="55.615234" xlink:href="#ArialMT-46"/>
       <use x="83.398438" xlink:href="#ArialMT-48"/>
       <use x="139.013672" xlink:href="#ArialMT-48"/>
       <use x="194.628906" xlink:href="#ArialMT-48"/>
      </g>
     </g>
    </g>
    <g id="ytick_2">
     <g id="line2d_8">
      <path clip-path="url(#p40ca9a866f)" d="M 59.339063 241.432597 
L 394.139063 241.432597 
" style="fill:none;stroke:#cccccc;stroke-linecap:round;"/>
     </g>
     <g id="text_9">
      <!-- 0.005 -->
      <g style="fill:#262626;" transform="translate(22.315 245.369394)scale(0.11 -0.11)">
       <defs>
        <path d="M 4.15625 18.75 
L 13.375 19.53125 
Q 14.40625 12.796875 18.140625 9.390625 
Q 21.875 6 27.15625 6 
Q 33.5 6 37.890625 10.78125 
Q 42.28125 15.578125 42.28125 23.484375 
Q 42.28125 31 38.0625 35.34375 
Q 33.84375 39.703125 27 39.703125 
Q 22.75 39.703125 19.328125 37.765625 
Q 15.921875 35.84375 13.96875 32.765625 
L 5.71875 33.84375 
L 12.640625 70.609375 
L 48.25 70.609375 
L 48.25 62.203125 
L 19.671875 62.203125 
L 15.828125 42.96875 
Q 22.265625 47.46875 29.34375 47.46875 
Q 38.71875 47.46875 45.15625 40.96875 
Q 51.609375 34.46875 51.609375 24.265625 
Q 51.609375 14.546875 45.953125 7.46875 
Q 39.0625 -1.21875 27.15625 -1.21875 
Q 17.390625 -1.21875 11.203125 4.25 
Q 5.03125 9.71875 4.15625 18.75 
z
" id="ArialMT-53"/>
       </defs>
       <use xlink:href="#ArialMT-48"/>
       <use x="55.615234" xlink:href="#ArialMT-46"/>
       <use x="83.398438" xlink:href="#ArialMT-48"/>
       <use x="139.013672" xlink:href="#ArialMT-48"/>
       <use x="194.628906" xlink:href="#ArialMT-53"/>
      </g>
     </g>
    </g>
    <g id="ytick_3">
     <g id="line2d_9">
      <path clip-path="url(#p40ca9a866f)" d="M 59.339063 215.433204 
L 394.139063 215.433204 
" style="fill:none;stroke:#cccccc;stroke-linecap:round;"/>
     </g>
     <g id="text_10">
      <!-- 0.010 -->
      <g style="fill:#262626;" transform="translate(22.315 219.37)scale(0.11 -0.11)">
       <use xlink:href="#ArialMT-48"/>
       <use x="55.615234" xlink:href="#ArialMT-46"/>
       <use x="83.398438" xlink:href="#ArialMT-48"/>
       <use x="139.013672" xlink:href="#ArialMT-49"/>
       <use x="194.628906" xlink:href="#ArialMT-48"/>
      </g>
     </g>
    </g>
    <g id="ytick_4">
     <g id="line2d_10">
      <path clip-path="url(#p40ca9a866f)" d="M 59.339063 189.43381 
L 394.139063 189.43381 
" style="fill:none;stroke:#cccccc;stroke-linecap:round;"/>
     </g>
     <g id="text_11">
      <!-- 0.015 -->
      <g style="fill:#262626;" transform="translate(22.315 193.370607)scale(0.11 -0.11)">
       <use xlink:href="#ArialMT-48"/>
       <use x="55.615234" xlink:href="#ArialMT-46"/>
       <use x="83.398438" xlink:href="#ArialMT-48"/>
       <use x="139.013672" xlink:href="#ArialMT-49"/>
       <use x="194.628906" xlink:href="#ArialMT-53"/>
      </g>
     </g>
    </g>
    <g id="ytick_5">
     <g id="line2d_11">
      <path clip-path="url(#p40ca9a866f)" d="M 59.339063 163.434416 
L 394.139063 163.434416 
" style="fill:none;stroke:#cccccc;stroke-linecap:round;"/>
     </g>
     <g id="text_12">
      <!-- 0.020 -->
      <g style="fill:#262626;" transform="translate(22.315 167.371213)scale(0.11 -0.11)">
       <use xlink:href="#ArialMT-48"/>
       <use x="55.615234" xlink:href="#ArialMT-46"/>
       <use x="83.398438" xlink:href="#ArialMT-48"/>
       <use x="139.013672" xlink:href="#ArialMT-50"/>
       <use x="194.628906" xlink:href="#ArialMT-48"/>
      </g>
     </g>
    </g>
    <g id="ytick_6">
     <g id="line2d_12">
      <path clip-path="url(#p40ca9a866f)" d="M 59.339063 137.435023 
L 394.139063 137.435023 
" style="fill:none;stroke:#cccccc;stroke-linecap:round;"/>
     </g>
     <g id="text_13">
      <!-- 0.025 -->
      <g style="fill:#262626;" transform="translate(22.315 141.37182)scale(0.11 -0.11)">
       <use xlink:href="#ArialMT-48"/>
       <use x="55.615234" xlink:href="#ArialMT-46"/>
       <use x="83.398438" xlink:href="#ArialMT-48"/>
       <use x="139.013672" xlink:href="#ArialMT-50"/>
       <use x="194.628906" xlink:href="#ArialMT-53"/>
      </g>
     </g>
    </g>
    <g id="ytick_7">
     <g id="line2d_13">
      <path clip-path="url(#p40ca9a866f)" d="M 59.339063 111.435629 
L 394.139063 111.435629 
" style="fill:none;stroke:#cccccc;stroke-linecap:round;"/>
     </g>
     <g id="text_14">
      <!-- 0.030 -->
      <g style="fill:#262626;" transform="translate(22.315 115.372426)scale(0.11 -0.11)">
       <defs>
        <path d="M 4.203125 18.890625 
L 12.984375 20.0625 
Q 14.5 12.59375 18.140625 9.296875 
Q 21.78125 6 27 6 
Q 33.203125 6 37.46875 10.296875 
Q 41.75 14.59375 41.75 20.953125 
Q 41.75 27 37.796875 30.921875 
Q 33.84375 34.859375 27.734375 34.859375 
Q 25.25 34.859375 21.53125 33.890625 
L 22.515625 41.609375 
Q 23.390625 41.5 23.921875 41.5 
Q 29.546875 41.5 34.03125 44.421875 
Q 38.53125 47.359375 38.53125 53.46875 
Q 38.53125 58.296875 35.25 61.46875 
Q 31.984375 64.65625 26.8125 64.65625 
Q 21.6875 64.65625 18.265625 61.421875 
Q 14.84375 58.203125 13.875 51.765625 
L 5.078125 53.328125 
Q 6.6875 62.15625 12.390625 67.015625 
Q 18.109375 71.875 26.609375 71.875 
Q 32.46875 71.875 37.390625 69.359375 
Q 42.328125 66.84375 44.9375 62.5 
Q 47.5625 58.15625 47.5625 53.265625 
Q 47.5625 48.640625 45.0625 44.828125 
Q 42.578125 41.015625 37.703125 38.765625 
Q 44.046875 37.3125 47.5625 32.6875 
Q 51.078125 28.078125 51.078125 21.140625 
Q 51.078125 11.765625 44.234375 5.25 
Q 37.40625 -1.265625 26.953125 -1.265625 
Q 17.53125 -1.265625 11.296875 4.34375 
Q 5.078125 9.96875 4.203125 18.890625 
z
" id="ArialMT-51"/>
       </defs>
       <use xlink:href="#ArialMT-48"/>
       <use x="55.615234" xlink:href="#ArialMT-46"/>
       <use x="83.398438" xlink:href="#ArialMT-48"/>
       <use x="139.013672" xlink:href="#ArialMT-51"/>
       <use x="194.628906" xlink:href="#ArialMT-48"/>
      </g>
     </g>
    </g>
    <g id="ytick_8">
     <g id="line2d_14">
      <path clip-path="url(#p40ca9a866f)" d="M 59.339063 85.436236 
L 394.139063 85.436236 
" style="fill:none;stroke:#cccccc;stroke-linecap:round;"/>
     </g>
     <g id="text_15">
      <!-- 0.035 -->
      <g style="fill:#262626;" transform="translate(22.315 89.373033)scale(0.11 -0.11)">
       <use xlink:href="#ArialMT-48"/>
       <use x="55.615234" xlink:href="#ArialMT-46"/>
       <use x="83.398438" xlink:href="#ArialMT-48"/>
       <use x="139.013672" xlink:href="#ArialMT-51"/>
       <use x="194.628906" xlink:href="#ArialMT-53"/>
      </g>
     </g>
    </g>
    <g id="ytick_9">
     <g id="line2d_15">
      <path clip-path="url(#p40ca9a866f)" d="M 59.339063 59.436842 
L 394.139063 59.436842 
" style="fill:none;stroke:#cccccc;stroke-linecap:round;"/>
     </g>
     <g id="text_16">
      <!-- 0.040 -->
      <g style="fill:#262626;" transform="translate(22.315 63.373639)scale(0.11 -0.11)">
       <use xlink:href="#ArialMT-48"/>
       <use x="55.615234" xlink:href="#ArialMT-46"/>
       <use x="83.398438" xlink:href="#ArialMT-48"/>
       <use x="139.013672" xlink:href="#ArialMT-52"/>
       <use x="194.628906" xlink:href="#ArialMT-48"/>
      </g>
     </g>
    </g>
    <g id="text_17">
     <!-- Density -->
     <g style="fill:#262626;" transform="translate(15.789375 178.718241)rotate(-90)scale(0.12 -0.12)">
      <defs>
       <path d="M 7.71875 0 
L 7.71875 71.578125 
L 32.375 71.578125 
Q 40.71875 71.578125 45.125 70.5625 
Q 51.265625 69.140625 55.609375 65.4375 
Q 61.28125 60.640625 64.078125 53.1875 
Q 66.890625 45.75 66.890625 36.1875 
Q 66.890625 28.03125 64.984375 21.734375 
Q 63.09375 15.4375 60.109375 11.296875 
Q 57.125 7.171875 53.578125 4.796875 
Q 50.046875 2.4375 45.046875 1.21875 
Q 40.046875 0 33.546875 0 
z
M 17.1875 8.453125 
L 32.46875 8.453125 
Q 39.546875 8.453125 43.578125 9.765625 
Q 47.609375 11.078125 50 13.484375 
Q 53.375 16.84375 55.25 22.53125 
Q 57.125 28.21875 57.125 36.328125 
Q 57.125 47.5625 53.4375 53.59375 
Q 49.75 59.625 44.484375 61.671875 
Q 40.671875 63.140625 32.234375 63.140625 
L 17.1875 63.140625 
z
" id="ArialMT-68"/>
       <path d="M 6.59375 0 
L 6.59375 51.859375 
L 14.5 51.859375 
L 14.5 44.484375 
Q 20.21875 53.03125 31 53.03125 
Q 35.6875 53.03125 39.625 51.34375 
Q 43.5625 49.65625 45.515625 46.921875 
Q 47.46875 44.1875 48.25 40.4375 
Q 48.734375 37.984375 48.734375 31.890625 
L 48.734375 0 
L 39.9375 0 
L 39.9375 31.546875 
Q 39.9375 36.921875 38.90625 39.578125 
Q 37.890625 42.234375 35.28125 43.8125 
Q 32.671875 45.40625 29.15625 45.40625 
Q 23.53125 45.40625 19.453125 41.84375 
Q 15.375 38.28125 15.375 28.328125 
L 15.375 0 
z
" id="ArialMT-110"/>
       <path d="M 3.078125 15.484375 
L 11.765625 16.84375 
Q 12.5 11.625 15.84375 8.84375 
Q 19.1875 6.0625 25.203125 6.0625 
Q 31.25 6.0625 34.171875 8.515625 
Q 37.109375 10.984375 37.109375 14.3125 
Q 37.109375 17.28125 34.515625 19 
Q 32.71875 20.171875 25.53125 21.96875 
Q 15.875 24.421875 12.140625 26.203125 
Q 8.40625 27.984375 6.46875 31.125 
Q 4.546875 34.28125 4.546875 38.09375 
Q 4.546875 41.546875 6.125 44.5 
Q 7.71875 47.46875 10.453125 49.421875 
Q 12.5 50.921875 16.03125 51.96875 
Q 19.578125 53.03125 23.640625 53.03125 
Q 29.734375 53.03125 34.34375 51.265625 
Q 38.96875 49.515625 41.15625 46.5 
Q 43.359375 43.5 44.1875 38.484375 
L 35.59375 37.3125 
Q 35.015625 41.3125 32.203125 43.546875 
Q 29.390625 45.796875 24.265625 45.796875 
Q 18.21875 45.796875 15.625 43.796875 
Q 13.03125 41.796875 13.03125 39.109375 
Q 13.03125 37.40625 14.109375 36.03125 
Q 15.1875 34.625 17.484375 33.6875 
Q 18.796875 33.203125 25.25 31.453125 
Q 34.578125 28.953125 38.25 27.359375 
Q 41.9375 25.78125 44.03125 22.75 
Q 46.140625 19.734375 46.140625 15.234375 
Q 46.140625 10.84375 43.578125 6.953125 
Q 41.015625 3.078125 36.171875 0.953125 
Q 31.34375 -1.171875 25.25 -1.171875 
Q 15.140625 -1.171875 9.84375 3.03125 
Q 4.546875 7.234375 3.078125 15.484375 
z
" id="ArialMT-115"/>
       <path d="M 6.640625 61.46875 
L 6.640625 71.578125 
L 15.4375 71.578125 
L 15.4375 61.46875 
z
M 6.640625 0 
L 6.640625 51.859375 
L 15.4375 51.859375 
L 15.4375 0 
z
" id="ArialMT-105"/>
       <path d="M 25.78125 7.859375 
L 27.046875 0.09375 
Q 23.34375 -0.6875 20.40625 -0.6875 
Q 15.625 -0.6875 12.984375 0.828125 
Q 10.359375 2.34375 9.28125 4.8125 
Q 8.203125 7.28125 8.203125 15.1875 
L 8.203125 45.015625 
L 1.765625 45.015625 
L 1.765625 51.859375 
L 8.203125 51.859375 
L 8.203125 64.703125 
L 16.9375 69.96875 
L 16.9375 51.859375 
L 25.78125 51.859375 
L 25.78125 45.015625 
L 16.9375 45.015625 
L 16.9375 14.703125 
Q 16.9375 10.9375 17.40625 9.859375 
Q 17.875 8.796875 18.921875 8.15625 
Q 19.96875 7.515625 21.921875 7.515625 
Q 23.390625 7.515625 25.78125 7.859375 
z
" id="ArialMT-116"/>
       <path d="M 6.203125 -19.96875 
L 5.21875 -11.71875 
Q 8.109375 -12.5 10.25 -12.5 
Q 13.1875 -12.5 14.9375 -11.515625 
Q 16.703125 -10.546875 17.828125 -8.796875 
Q 18.65625 -7.46875 20.515625 -2.25 
Q 20.75 -1.515625 21.296875 -0.09375 
L 1.609375 51.859375 
L 11.078125 51.859375 
L 21.875 21.828125 
Q 23.96875 16.109375 25.640625 9.8125 
Q 27.15625 15.875 29.25 21.625 
L 40.328125 51.859375 
L 49.125 51.859375 
L 29.390625 -0.875 
Q 26.21875 -9.421875 24.46875 -12.640625 
Q 22.125 -17 19.09375 -19.015625 
Q 16.0625 -21.046875 11.859375 -21.046875 
Q 9.328125 -21.046875 6.203125 -19.96875 
z
" id="ArialMT-121"/>
      </defs>
      <use xlink:href="#ArialMT-68"/>
      <use x="72.216797" xlink:href="#ArialMT-101"/>
      <use x="127.832031" xlink:href="#ArialMT-110"/>
      <use x="183.447266" xlink:href="#ArialMT-115"/>
      <use x="233.447266" xlink:href="#ArialMT-105"/>
      <use x="255.664062" xlink:href="#ArialMT-116"/>
      <use x="283.447266" xlink:href="#ArialMT-121"/>
     </g>
    </g>
   </g>
   <g id="PolyCollection_1">
    <defs>
     <path d="M 74.557244 -41.823026 
L 74.557244 -41.734219 
L 76.080676 -41.734219 
L 77.604107 -41.734219 
L 79.127539 -41.734219 
L 80.65097 -41.734219 
L 82.174402 -41.734219 
L 83.697833 -41.734219 
L 85.221265 -41.734219 
L 86.744696 -41.734219 
L 88.268128 -41.734219 
L 89.791559 -41.734219 
L 91.31499 -41.734219 
L 92.838422 -41.734219 
L 94.361853 -41.734219 
L 95.885285 -41.734219 
L 97.408716 -41.734219 
L 98.932148 -41.734219 
L 100.455579 -41.734219 
L 101.979011 -41.734219 
L 103.502442 -41.734219 
L 105.025874 -41.734219 
L 106.549305 -41.734219 
L 108.072737 -41.734219 
L 109.596168 -41.734219 
L 111.1196 -41.734219 
L 112.643031 -41.734219 
L 114.166463 -41.734219 
L 115.689894 -41.734219 
L 117.213325 -41.734219 
L 118.736757 -41.734219 
L 120.260188 -41.734219 
L 121.78362 -41.734219 
L 123.307051 -41.734219 
L 124.830483 -41.734219 
L 126.353914 -41.734219 
L 127.877346 -41.734219 
L 129.400777 -41.734219 
L 130.924209 -41.734219 
L 132.44764 -41.734219 
L 133.971072 -41.734219 
L 135.494503 -41.734219 
L 137.017935 -41.734219 
L 138.541366 -41.734219 
L 140.064797 -41.734219 
L 141.588229 -41.734219 
L 143.11166 -41.734219 
L 144.635092 -41.734219 
L 146.158523 -41.734219 
L 147.681955 -41.734219 
L 149.205386 -41.734219 
L 150.728818 -41.734219 
L 152.252249 -41.734219 
L 153.775681 -41.734219 
L 155.299112 -41.734219 
L 156.822544 -41.734219 
L 158.345975 -41.734219 
L 159.869407 -41.734219 
L 161.392838 -41.734219 
L 162.91627 -41.734219 
L 164.439701 -41.734219 
L 165.963132 -41.734219 
L 167.486564 -41.734219 
L 169.009995 -41.734219 
L 170.533427 -41.734219 
L 172.056858 -41.734219 
L 173.58029 -41.734219 
L 175.103721 -41.734219 
L 176.627153 -41.734219 
L 178.150584 -41.734219 
L 179.674016 -41.734219 
L 181.197447 -41.734219 
L 182.720879 -41.734219 
L 184.24431 -41.734219 
L 185.767742 -41.734219 
L 187.291173 -41.734219 
L 188.814604 -41.734219 
L 190.338036 -41.734219 
L 191.861467 -41.734219 
L 193.384899 -41.734219 
L 194.90833 -41.734219 
L 196.431762 -41.734219 
L 197.955193 -41.734219 
L 199.478625 -41.734219 
L 201.002056 -41.734219 
L 202.525488 -41.734219 
L 204.048919 -41.734219 
L 205.572351 -41.734219 
L 207.095782 -41.734219 
L 208.619214 -41.734219 
L 210.142645 -41.734219 
L 211.666077 -41.734219 
L 213.189508 -41.734219 
L 214.712939 -41.734219 
L 216.236371 -41.734219 
L 217.759802 -41.734219 
L 219.283234 -41.734219 
L 220.806665 -41.734219 
L 222.330097 -41.734219 
L 223.853528 -41.734219 
L 225.37696 -41.734219 
L 226.900391 -41.734219 
L 228.423823 -41.734219 
L 229.947254 -41.734219 
L 231.470686 -41.734219 
L 232.994117 -41.734219 
L 234.517549 -41.734219 
L 236.04098 -41.734219 
L 237.564412 -41.734219 
L 239.087843 -41.734219 
L 240.611274 -41.734219 
L 242.134706 -41.734219 
L 243.658137 -41.734219 
L 245.181569 -41.734219 
L 246.705 -41.734219 
L 248.228432 -41.734219 
L 249.751863 -41.734219 
L 251.275295 -41.734219 
L 252.798726 -41.734219 
L 254.322158 -41.734219 
L 255.845589 -41.734219 
L 257.369021 -41.734219 
L 258.892452 -41.734219 
L 260.415884 -41.734219 
L 261.939315 -41.734219 
L 263.462746 -41.734219 
L 264.986178 -41.734219 
L 266.509609 -41.734219 
L 268.033041 -41.734219 
L 269.556472 -41.734219 
L 271.079904 -41.734219 
L 272.603335 -41.734219 
L 274.126767 -41.734219 
L 275.650198 -41.734219 
L 277.17363 -41.734219 
L 278.697061 -41.734219 
L 280.220493 -41.734219 
L 281.743924 -41.734219 
L 283.267356 -41.734219 
L 284.790787 -41.734219 
L 286.314219 -41.734219 
L 287.83765 -41.734219 
L 289.361081 -41.734219 
L 290.884513 -41.734219 
L 292.407944 -41.734219 
L 293.931376 -41.734219 
L 295.454807 -41.734219 
L 296.978239 -41.734219 
L 298.50167 -41.734219 
L 300.025102 -41.734219 
L 301.548533 -41.734219 
L 303.071965 -41.734219 
L 304.595396 -41.734219 
L 306.118828 -41.734219 
L 307.642259 -41.734219 
L 309.165691 -41.734219 
L 310.689122 -41.734219 
L 312.212553 -41.734219 
L 313.735985 -41.734219 
L 315.259416 -41.734219 
L 316.782848 -41.734219 
L 318.306279 -41.734219 
L 319.829711 -41.734219 
L 321.353142 -41.734219 
L 322.876574 -41.734219 
L 324.400005 -41.734219 
L 325.923437 -41.734219 
L 327.446868 -41.734219 
L 328.9703 -41.734219 
L 330.493731 -41.734219 
L 332.017163 -41.734219 
L 333.540594 -41.734219 
L 335.064026 -41.734219 
L 336.587457 -41.734219 
L 338.110888 -41.734219 
L 339.63432 -41.734219 
L 341.157751 -41.734219 
L 342.681183 -41.734219 
L 344.204614 -41.734219 
L 345.728046 -41.734219 
L 347.251477 -41.734219 
L 348.774909 -41.734219 
L 350.29834 -41.734219 
L 351.821772 -41.734219 
L 353.345203 -41.734219 
L 354.868635 -41.734219 
L 356.392066 -41.734219 
L 357.915498 -41.734219 
L 359.438929 -41.734219 
L 360.96236 -41.734219 
L 362.485792 -41.734219 
L 364.009223 -41.734219 
L 365.532655 -41.734219 
L 367.056086 -41.734219 
L 368.579518 -41.734219 
L 370.102949 -41.734219 
L 371.626381 -41.734219 
L 373.149812 -41.734219 
L 374.673244 -41.734219 
L 376.196675 -41.734219 
L 377.720107 -41.734219 
L 377.720107 -41.83671 
L 377.720107 -41.83671 
L 376.196675 -41.888997 
L 374.673244 -41.964314 
L 373.149812 -42.07097 
L 371.626381 -42.219458 
L 370.102949 -42.422695 
L 368.579518 -42.696165 
L 367.056086 -43.057913 
L 365.532655 -43.528324 
L 364.009223 -44.129649 
L 362.485792 -44.885223 
L 360.96236 -45.818382 
L 359.438929 -46.951066 
L 357.915498 -48.302184 
L 356.392066 -49.885822 
L 354.868635 -51.709423 
L 353.345203 -53.772114 
L 351.821772 -56.063348 
L 350.29834 -58.562054 
L 348.774909 -61.236434 
L 347.251477 -64.044538 
L 345.728046 -66.935641 
L 344.204614 -69.852402 
L 342.681183 -72.733691 
L 341.157751 -75.51787 
L 339.63432 -78.14629 
L 338.110888 -80.566708 
L 336.587457 -82.736321 
L 335.064026 -84.624159 
L 333.540594 -86.212629 
L 332.017163 -87.498088 
L 330.493731 -88.490424 
L 328.9703 -89.21172 
L 327.446868 -89.694167 
L 325.923437 -89.977451 
L 324.400005 -90.105884 
L 322.876574 -90.125551 
L 321.353142 -90.081696 
L 319.829711 -90.016558 
L 318.306279 -89.967757 
L 316.782848 -89.967277 
L 315.259416 -90.041022 
L 313.735985 -90.208854 
L 312.212553 -90.484991 
L 310.689122 -90.878631 
L 309.165691 -91.394663 
L 307.642259 -92.034361 
L 306.118828 -92.795986 
L 304.595396 -93.675255 
L 303.071965 -94.66569 
L 301.548533 -95.758859 
L 300.025102 -96.944578 
L 298.50167 -98.211104 
L 296.978239 -99.545388 
L 295.454807 -100.933395 
L 293.931376 -102.360521 
L 292.407944 -103.81208 
L 290.884513 -105.273827 
L 289.361081 -106.732474 
L 287.83765 -108.176136 
L 286.314219 -109.594658 
L 284.790787 -110.979772 
L 283.267356 -112.325071 
L 281.743924 -113.625793 
L 280.220493 -114.878428 
L 278.697061 -116.080206 
L 277.17363 -117.22853 
L 275.650198 -118.320408 
L 274.126767 -119.351983 
L 272.603335 -120.318204 
L 271.079904 -121.212711 
L 269.556472 -122.02794 
L 268.033041 -122.755468 
L 266.509609 -123.386561 
L 264.986178 -123.912882 
L 263.462746 -124.32728 
L 261.939315 -124.624594 
L 260.415884 -124.802362 
L 258.892452 -124.861376 
L 257.369021 -124.805999 
L 255.845589 -124.644205 
L 254.322158 -124.387329 
L 252.798726 -124.049528 
L 251.275295 -123.647 
L 249.751863 -123.197028 
L 248.228432 -122.716932 
L 246.705 -122.223025 
L 245.181569 -121.729662 
L 243.658137 -121.248461 
L 242.134706 -120.787772 
L 240.611274 -120.352401 
L 239.087843 -119.943631 
L 237.564412 -119.559499 
L 236.04098 -119.195292 
L 234.517549 -118.844222 
L 232.994117 -118.498201 
L 231.470686 -118.148651 
L 229.947254 -117.787304 
L 228.423823 -117.406909 
L 226.900391 -117.001827 
L 225.37696 -116.568455 
L 223.853528 -116.105468 
L 222.330097 -115.613858 
L 220.806665 -115.096767 
L 219.283234 -114.559133 
L 217.759802 -114.007175 
L 216.236371 -113.447764 
L 214.712939 -112.887749 
L 213.189508 -112.333283 
L 211.666077 -111.789266 
L 210.142645 -111.258921 
L 208.619214 -110.743597 
L 207.095782 -110.242793 
L 205.572351 -109.754415 
L 204.048919 -109.275221 
L 202.525488 -108.801393 
L 201.002056 -108.329149 
L 199.478625 -107.855325 
L 197.955193 -107.377821 
L 196.431762 -106.89589 
L 194.90833 -106.410205 
L 193.384899 -105.922753 
L 191.861467 -105.436547 
L 190.338036 -104.955253 
L 188.814604 -104.482775 
L 187.291173 -104.02287 
L 185.767742 -103.578844 
L 184.24431 -103.153351 
L 182.720879 -102.748295 
L 181.197447 -102.364826 
L 179.674016 -102.003372 
L 178.150584 -101.663692 
L 176.627153 -101.344893 
L 175.103721 -101.045408 
L 173.58029 -100.762913 
L 172.056858 -100.494219 
L 170.533427 -100.235158 
L 169.009995 -99.980513 
L 167.486564 -99.724024 
L 165.963132 -99.458513 
L 164.439701 -99.176139 
L 162.91627 -98.868777 
L 161.392838 -98.52852 
L 159.869407 -98.148241 
L 158.345975 -97.722193 
L 156.822544 -97.246569 
L 155.299112 -96.719994 
L 153.775681 -96.143886 
L 152.252249 -95.522653 
L 150.728818 -94.863712 
L 149.205386 -94.1773 
L 147.681955 -93.476085 
L 146.158523 -92.774592 
L 144.635092 -92.088441 
L 143.11166 -91.433438 
L 141.588229 -90.82454 
L 140.064797 -90.274736 
L 138.541366 -89.793884 
L 137.017935 -89.387564 
L 135.494503 -89.05602 
L 133.971072 -88.793261 
L 132.44764 -88.586416 
L 130.924209 -88.415446 
L 129.400777 -88.253295 
L 127.877346 -88.066567 
L 126.353914 -87.816774 
L 124.830483 -87.462152 
L 123.307051 -86.960005 
L 121.78362 -86.269434 
L 120.260188 -85.35428 
L 118.736757 -84.18604 
L 117.213325 -82.746475 
L 115.689894 -81.029651 
L 114.166463 -79.043163 
L 112.643031 -76.808386 
L 111.1196 -74.359662 
L 109.596168 -71.74248 
L 108.072737 -69.01077 
L 106.549305 -66.223588 
L 105.025874 -63.441469 
L 103.502442 -60.722812 
L 101.979011 -58.120603 
L 100.455579 -55.679758 
L 98.932148 -53.435262 
L 97.408716 -51.411211 
L 95.885285 -49.620723 
L 94.361853 -48.06664 
L 92.838422 -46.742843 
L 91.31499 -45.635987 
L 89.791559 -44.727429 
L 88.268128 -43.995167 
L 86.744696 -43.415623 
L 85.221265 -42.965161 
L 83.697833 -42.621267 
L 82.174402 -42.363385 
L 80.65097 -42.173416 
L 79.127539 -42.035936 
L 77.604107 -41.938186 
L 76.080676 -41.8699 
L 74.557244 -41.823026 
z
" id="mbacbdc3878" style="stroke:#8bcbe8;"/>
    </defs>
    <g clip-path="url(#p40ca9a866f)">
     <use style="fill:#8bcbe8;stroke:#8bcbe8;" x="0" xlink:href="#mbacbdc3878" y="309.166209"/>
    </g>
   </g>
   <g id="PolyCollection_2">
    <defs>
     <path d="M 76.889304 -41.756141 
L 76.889304 -41.734219 
L 78.407051 -41.734219 
L 79.924798 -41.734219 
L 81.442544 -41.734219 
L 82.960291 -41.734219 
L 84.478037 -41.734219 
L 85.995784 -41.734219 
L 87.513531 -41.734219 
L 89.031277 -41.734219 
L 90.549024 -41.734219 
L 92.066771 -41.734219 
L 93.584517 -41.734219 
L 95.102264 -41.734219 
L 96.62001 -41.734219 
L 98.137757 -41.734219 
L 99.655504 -41.734219 
L 101.17325 -41.734219 
L 102.690997 -41.734219 
L 104.208743 -41.734219 
L 105.72649 -41.734219 
L 107.244237 -41.734219 
L 108.761983 -41.734219 
L 110.27973 -41.734219 
L 111.797477 -41.734219 
L 113.315223 -41.734219 
L 114.83297 -41.734219 
L 116.350716 -41.734219 
L 117.868463 -41.734219 
L 119.38621 -41.734219 
L 120.903956 -41.734219 
L 122.421703 -41.734219 
L 123.939449 -41.734219 
L 125.457196 -41.734219 
L 126.974943 -41.734219 
L 128.492689 -41.734219 
L 130.010436 -41.734219 
L 131.528183 -41.734219 
L 133.045929 -41.734219 
L 134.563676 -41.734219 
L 136.081422 -41.734219 
L 137.599169 -41.734219 
L 139.116916 -41.734219 
L 140.634662 -41.734219 
L 142.152409 -41.734219 
L 143.670155 -41.734219 
L 145.187902 -41.734219 
L 146.705649 -41.734219 
L 148.223395 -41.734219 
L 149.741142 -41.734219 
L 151.258889 -41.734219 
L 152.776635 -41.734219 
L 154.294382 -41.734219 
L 155.812128 -41.734219 
L 157.329875 -41.734219 
L 158.847622 -41.734219 
L 160.365368 -41.734219 
L 161.883115 -41.734219 
L 163.400861 -41.734219 
L 164.918608 -41.734219 
L 166.436355 -41.734219 
L 167.954101 -41.734219 
L 169.471848 -41.734219 
L 170.989595 -41.734219 
L 172.507341 -41.734219 
L 174.025088 -41.734219 
L 175.542834 -41.734219 
L 177.060581 -41.734219 
L 178.578328 -41.734219 
L 180.096074 -41.734219 
L 181.613821 -41.734219 
L 183.131567 -41.734219 
L 184.649314 -41.734219 
L 186.167061 -41.734219 
L 187.684807 -41.734219 
L 189.202554 -41.734219 
L 190.7203 -41.734219 
L 192.238047 -41.734219 
L 193.755794 -41.734219 
L 195.27354 -41.734219 
L 196.791287 -41.734219 
L 198.309034 -41.734219 
L 199.82678 -41.734219 
L 201.344527 -41.734219 
L 202.862273 -41.734219 
L 204.38002 -41.734219 
L 205.897767 -41.734219 
L 207.415513 -41.734219 
L 208.93326 -41.734219 
L 210.451006 -41.734219 
L 211.968753 -41.734219 
L 213.4865 -41.734219 
L 215.004246 -41.734219 
L 216.521993 -41.734219 
L 218.03974 -41.734219 
L 219.557486 -41.734219 
L 221.075233 -41.734219 
L 222.592979 -41.734219 
L 224.110726 -41.734219 
L 225.628473 -41.734219 
L 227.146219 -41.734219 
L 228.663966 -41.734219 
L 230.181712 -41.734219 
L 231.699459 -41.734219 
L 233.217206 -41.734219 
L 234.734952 -41.734219 
L 236.252699 -41.734219 
L 237.770446 -41.734219 
L 239.288192 -41.734219 
L 240.805939 -41.734219 
L 242.323685 -41.734219 
L 243.841432 -41.734219 
L 245.359179 -41.734219 
L 246.876925 -41.734219 
L 248.394672 -41.734219 
L 249.912418 -41.734219 
L 251.430165 -41.734219 
L 252.947912 -41.734219 
L 254.465658 -41.734219 
L 255.983405 -41.734219 
L 257.501152 -41.734219 
L 259.018898 -41.734219 
L 260.536645 -41.734219 
L 262.054391 -41.734219 
L 263.572138 -41.734219 
L 265.089885 -41.734219 
L 266.607631 -41.734219 
L 268.125378 -41.734219 
L 269.643124 -41.734219 
L 271.160871 -41.734219 
L 272.678618 -41.734219 
L 274.196364 -41.734219 
L 275.714111 -41.734219 
L 277.231858 -41.734219 
L 278.749604 -41.734219 
L 280.267351 -41.734219 
L 281.785097 -41.734219 
L 283.302844 -41.734219 
L 284.820591 -41.734219 
L 286.338337 -41.734219 
L 287.856084 -41.734219 
L 289.37383 -41.734219 
L 290.891577 -41.734219 
L 292.409324 -41.734219 
L 293.92707 -41.734219 
L 295.444817 -41.734219 
L 296.962564 -41.734219 
L 298.48031 -41.734219 
L 299.998057 -41.734219 
L 301.515803 -41.734219 
L 303.03355 -41.734219 
L 304.551297 -41.734219 
L 306.069043 -41.734219 
L 307.58679 -41.734219 
L 309.104536 -41.734219 
L 310.622283 -41.734219 
L 312.14003 -41.734219 
L 313.657776 -41.734219 
L 315.175523 -41.734219 
L 316.693269 -41.734219 
L 318.211016 -41.734219 
L 319.728763 -41.734219 
L 321.246509 -41.734219 
L 322.764256 -41.734219 
L 324.282003 -41.734219 
L 325.799749 -41.734219 
L 327.317496 -41.734219 
L 328.835242 -41.734219 
L 330.352989 -41.734219 
L 331.870736 -41.734219 
L 333.388482 -41.734219 
L 334.906229 -41.734219 
L 336.423975 -41.734219 
L 337.941722 -41.734219 
L 339.459469 -41.734219 
L 340.977215 -41.734219 
L 342.494962 -41.734219 
L 344.012709 -41.734219 
L 345.530455 -41.734219 
L 347.048202 -41.734219 
L 348.565948 -41.734219 
L 350.083695 -41.734219 
L 351.601442 -41.734219 
L 353.119188 -41.734219 
L 354.636935 -41.734219 
L 356.154681 -41.734219 
L 357.672428 -41.734219 
L 359.190175 -41.734219 
L 360.707921 -41.734219 
L 362.225668 -41.734219 
L 363.743415 -41.734219 
L 365.261161 -41.734219 
L 366.778908 -41.734219 
L 368.296654 -41.734219 
L 369.814401 -41.734219 
L 371.332148 -41.734219 
L 372.849894 -41.734219 
L 374.367641 -41.734219 
L 375.885387 -41.734219 
L 377.403134 -41.734219 
L 378.920881 -41.734219 
L 378.920881 -42.214022 
L 378.920881 -42.214022 
L 377.403134 -42.451725 
L 375.885387 -42.791582 
L 374.367641 -43.269833 
L 372.849894 -43.932206 
L 371.332148 -44.835065 
L 369.814401 -46.046182 
L 368.296654 -47.644918 
L 366.778908 -49.721566 
L 365.261161 -52.375612 
L 363.743415 -55.712731 
L 362.225668 -59.840362 
L 360.707921 -64.861883 
L 359.190175 -70.869487 
L 357.672428 -77.936083 
L 356.154681 -86.10671 
L 354.636935 -95.390098 
L 353.119188 -105.751171 
L 351.601442 -117.105323 
L 350.083695 -129.315266 
L 348.565948 -142.191148 
L 347.048202 -155.494382 
L 345.530455 -168.945348 
L 344.012709 -182.234756 
L 342.494962 -195.038055 
L 340.977215 -207.031965 
L 339.459469 -217.911888 
L 337.941722 -227.408834 
L 336.423975 -235.304429 
L 334.906229 -241.442776 
L 333.388482 -245.73812 
L 331.870736 -248.177751 
L 330.352989 -248.819933 
L 328.835242 -247.787186 
L 327.317496 -245.255627 
L 325.799749 -241.441429 
L 324.282003 -236.585663 
L 322.764256 -230.938863 
L 321.246509 -224.746597 
L 319.728763 -218.237104 
L 318.211016 -211.611804 
L 316.693269 -205.039133 
L 315.175523 -198.651781 
L 313.657776 -192.547121 
L 312.14003 -186.790306 
L 310.622283 -181.419335 
L 309.104536 -176.451301 
L 307.58679 -171.888994 
L 306.069043 -167.727124 
L 304.551297 -163.957566 
L 303.03355 -160.573196 
L 301.515803 -157.570098 
L 299.998057 -154.948112 
L 298.48031 -152.70988 
L 296.962564 -150.858683 
L 295.444817 -149.395476 
L 293.92707 -148.315555 
L 292.409324 -147.605334 
L 290.891577 -147.23965 
L 289.37383 -147.179949 
L 287.856084 -147.37362 
L 286.338337 -147.754622 
L 284.820591 -148.245415 
L 283.302844 -148.760105 
L 281.785097 -149.208549 
L 280.267351 -149.501129 
L 278.749604 -149.55376 
L 277.231858 -149.292732 
L 275.714111 -148.658923 
L 274.196364 -147.611031 
L 272.678618 -146.127517 
L 271.160871 -144.207109 
L 269.643124 -141.867842 
L 268.125378 -139.144752 
L 266.607631 -136.086508 
L 265.089885 -132.751315 
L 263.572138 -129.202513 
L 262.054391 -125.504308 
L 260.536645 -121.717977 
L 259.018898 -117.898885 
L 257.501152 -114.094446 
L 255.983405 -110.34313 
L 254.465658 -106.674413 
L 252.947912 -103.109542 
L 251.430165 -99.662867 
L 249.912418 -96.343496 
L 248.394672 -93.157007 
L 246.876925 -90.107005 
L 245.359179 -87.196343 
L 243.841432 -84.427926 
L 242.323685 -81.805044 
L 240.805939 -79.331271 
L 239.288192 -77.010015 
L 237.770446 -74.843815 
L 236.252699 -72.833537 
L 234.734952 -70.97759 
L 233.217206 -69.271302 
L 231.699459 -67.706549 
L 230.181712 -66.271714 
L 228.663966 -64.952005 
L 227.146219 -63.730125 
L 225.628473 -62.587234 
L 224.110726 -61.504122 
L 222.592979 -60.462462 
L 221.075233 -59.446023 
L 219.557486 -58.441697 
L 218.03974 -57.440249 
L 216.521993 -56.436694 
L 215.004246 -55.430274 
L 213.4865 -54.424054 
L 211.968753 -53.424204 
L 210.451006 -52.439043 
L 208.93326 -51.477994 
L 207.415513 -50.550551 
L 205.897767 -49.665386 
L 204.38002 -48.829657 
L 202.862273 -48.048591 
L 201.344527 -47.325327 
L 199.82678 -46.661001 
L 198.309034 -46.055022 
L 196.791287 -45.50546 
L 195.27354 -45.009485 
L 193.755794 -44.563788 
L 192.238047 -44.164934 
L 190.7203 -43.809628 
L 189.202554 -43.494878 
L 187.684807 -43.21807 
L 186.167061 -42.976973 
L 184.649314 -42.769699 
L 183.131567 -42.59464 
L 181.613821 -42.450411 
L 180.096074 -42.335795 
L 178.578328 -42.249706 
L 177.060581 -42.191159 
L 175.542834 -42.159241 
L 174.025088 -42.15307 
L 172.507341 -42.171737 
L 170.989595 -42.214221 
L 169.471848 -42.279279 
L 167.954101 -42.365317 
L 166.436355 -42.470265 
L 164.918608 -42.591457 
L 163.400861 -42.725552 
L 161.883115 -42.86851 
L 160.365368 -43.015638 
L 158.847622 -43.161719 
L 157.329875 -43.301224 
L 155.812128 -43.428594 
L 154.294382 -43.53857 
L 152.776635 -43.626557 
L 151.258889 -43.688964 
L 149.741142 -43.723506 
L 148.223395 -43.729429 
L 146.705649 -43.707621 
L 145.187902 -43.660613 
L 143.670155 -43.592454 
L 142.152409 -43.508463 
L 140.634662 -43.414898 
L 139.116916 -43.31854 
L 137.599169 -43.22625 
L 136.081422 -43.144521 
L 134.563676 -43.079049 
L 133.045929 -43.034368 
L 131.528183 -43.013557 
L 130.010436 -43.018048 
L 128.492689 -43.047532 
L 126.974943 -43.09998 
L 125.457196 -43.171772 
L 123.939449 -43.257925 
L 122.421703 -43.352417 
L 120.903956 -43.448574 
L 119.38621 -43.539508 
L 117.868463 -43.618571 
L 116.350716 -43.679787 
L 114.83297 -43.718242 
L 113.315223 -43.730389 
L 111.797477 -43.714244 
L 110.27973 -43.669473 
L 108.761983 -43.597338 
L 107.244237 -43.500536 
L 105.72649 -43.382941 
L 104.208743 -43.24926 
L 102.690997 -43.104672 
L 101.17325 -42.95445 
L 99.655504 -42.803623 
L 98.137757 -42.656688 
L 96.62001 -42.517403 
L 95.102264 -42.388664 
L 93.584517 -42.272458 
L 92.066771 -42.1699 
L 90.549024 -42.081315 
L 89.031277 -42.006376 
L 87.513531 -41.944247 
L 85.995784 -41.893741 
L 84.478037 -41.853466 
L 82.960291 -41.821952 
L 81.442544 -41.797747 
L 79.924798 -41.779493 
L 78.407051 -41.765974 
L 76.889304 -41.756141 
z
" id="m0edbae1e6c" style="stroke:#e37678;"/>
    </defs>
    <g clip-path="url(#p40ca9a866f)">
     <use style="fill:#e37678;fill-opacity:0.8;stroke:#e37678;" x="0" xlink:href="#m0edbae1e6c" y="309.166209"/>
    </g>
   </g>
   <g id="patch_3">
    <path d="M 59.339063 267.431991 
L 59.339063 49.991991 
" style="fill:none;stroke:#cccccc;stroke-linecap:square;stroke-linejoin:miter;stroke-width:1.25;"/>
   </g>
   <g id="patch_4">
    <path d="M 394.139063 267.431991 
L 394.139063 49.991991 
" style="fill:none;stroke:#cccccc;stroke-linecap:square;stroke-linejoin:miter;stroke-width:1.25;"/>
   </g>
   <g id="patch_5">
    <path d="M 59.339062 267.431991 
L 394.139063 267.431991 
" style="fill:none;stroke:#cccccc;stroke-linecap:square;stroke-linejoin:miter;stroke-width:1.25;"/>
   </g>
   <g id="patch_6">
    <path d="M 59.339062 49.991991 
L 394.139063 49.991991 
" style="fill:none;stroke:#cccccc;stroke-linecap:square;stroke-linejoin:miter;stroke-width:1.25;"/>
   </g>
   <g id="text_18">
    <!-- Age-Stroke Distribution - How serious is it? -->
    <g style="opacity:0.9;" transform="translate(60.779246 17.837812)scale(0.14 -0.14)">
     <defs>
      <path d="M 20.015625 26.421875 
L 46.78125 26.421875 
L 33.40625 61.078125 
z
M -0.59375 0 
L -0.59375 5.171875 
L 5.8125 5.171875 
L 31.78125 72.90625 
L 39.984375 72.90625 
L 66.015625 5.171875 
L 73.1875 5.171875 
L 73.1875 0 
L 46.6875 0 
L 46.6875 5.171875 
L 54.78125 5.171875 
L 48.6875 21.1875 
L 18.015625 21.1875 
L 11.921875 5.171875 
L 19.921875 5.171875 
L 19.921875 0 
z
" id="DejaVuSerif-65"/>
      <path d="M 52.484375 46.6875 
L 52.484375 1.125 
Q 52.484375 -10.0625 46.328125 -16.140625 
Q 40.1875 -22.21875 28.8125 -22.21875 
Q 23.6875 -22.21875 19 -21.28125 
Q 14.3125 -20.359375 10.015625 -18.5 
L 10.015625 -7.625 
L 14.703125 -7.625 
Q 15.578125 -12.703125 18.84375 -15.046875 
Q 22.125 -17.390625 28.21875 -17.390625 
Q 36.140625 -17.390625 39.8125 -12.921875 
Q 43.5 -8.453125 43.5 1.125 
L 43.5 8.109375 
Q 40.875 3.21875 36.796875 0.890625 
Q 32.71875 -1.421875 26.703125 -1.421875 
Q 17.140625 -1.421875 11.0625 6.171875 
Q 4.984375 13.765625 4.984375 25.984375 
Q 4.984375 38.1875 11.03125 45.75 
Q 17.09375 53.328125 26.703125 53.328125 
Q 32.71875 53.328125 36.796875 51 
Q 40.875 48.6875 43.5 43.796875 
L 43.5 51.90625 
L 61.078125 51.90625 
L 61.078125 46.6875 
z
M 43.5 28.515625 
Q 43.5 37.84375 39.90625 42.765625 
Q 36.328125 47.703125 29.5 47.703125 
Q 22.5625 47.703125 19.015625 42.234375 
Q 15.484375 36.765625 15.484375 25.984375 
Q 15.484375 15.234375 19.015625 9.71875 
Q 22.5625 4.203125 29.5 4.203125 
Q 36.328125 4.203125 39.90625 9.109375 
Q 43.5 14.015625 43.5 23.390625 
z
" id="DejaVuSerif-103"/>
      <path d="M 54.203125 25 
L 15.484375 25 
L 15.484375 24.609375 
Q 15.484375 14.109375 19.4375 8.765625 
Q 23.390625 3.421875 31.109375 3.421875 
Q 37.015625 3.421875 40.796875 6.515625 
Q 44.578125 9.625 46.09375 15.71875 
L 53.328125 15.71875 
Q 51.171875 7.171875 45.375 2.875 
Q 39.59375 -1.421875 30.171875 -1.421875 
Q 18.796875 -1.421875 11.890625 6.078125 
Q 4.984375 13.578125 4.984375 25.984375 
Q 4.984375 38.28125 11.765625 45.796875 
Q 18.5625 53.328125 29.59375 53.328125 
Q 41.359375 53.328125 47.65625 46.0625 
Q 53.953125 38.8125 54.203125 25 
z
M 43.609375 30.171875 
Q 43.3125 39.265625 39.765625 43.875 
Q 36.234375 48.484375 29.59375 48.484375 
Q 23.390625 48.484375 19.828125 43.84375 
Q 16.265625 39.203125 15.484375 30.171875 
z
" id="DejaVuSerif-101"/>
      <path d="M 4.390625 30.609375 
L 29.390625 30.609375 
L 29.390625 23 
L 4.390625 23 
z
" id="DejaVuSerif-45"/>
      <path d="M 9.28125 3.515625 
L 9.28125 20.125 
L 14.890625 20.0625 
Q 15.140625 11.765625 19.703125 7.78125 
Q 24.265625 3.8125 33.59375 3.8125 
Q 42.28125 3.8125 46.84375 7.25 
Q 51.421875 10.6875 51.421875 17.28125 
Q 51.421875 22.5625 48.65625 25.390625 
Q 45.90625 28.21875 37.015625 30.90625 
L 27.390625 33.796875 
Q 16.9375 36.96875 12.671875 41.703125 
Q 8.40625 46.4375 8.40625 54.6875 
Q 8.40625 63.96875 14.984375 69.09375 
Q 21.578125 74.21875 33.5 74.21875 
Q 38.578125 74.21875 44.625 73.109375 
Q 50.6875 72.015625 57.515625 69.921875 
L 57.515625 54.390625 
L 52 54.390625 
Q 51.171875 62.109375 46.84375 65.546875 
Q 42.53125 69 33.6875 69 
Q 25.984375 69 21.953125 65.84375 
Q 17.921875 62.703125 17.921875 56.6875 
Q 17.921875 51.46875 20.9375 48.484375 
Q 23.96875 45.515625 33.796875 42.578125 
L 42.828125 39.890625 
Q 52.734375 36.921875 56.953125 32.296875 
Q 61.1875 27.6875 61.1875 19.921875 
Q 61.1875 9.328125 54.390625 3.953125 
Q 47.609375 -1.421875 34.1875 -1.421875 
Q 28.171875 -1.421875 21.9375 -0.1875 
Q 15.71875 1.03125 9.28125 3.515625 
z
" id="DejaVuSerif-83"/>
      <path d="M 10.796875 46.6875 
L 2.875 46.6875 
L 2.875 51.90625 
L 10.796875 51.90625 
L 10.796875 68.015625 
L 19.828125 68.015625 
L 19.828125 51.90625 
L 36.71875 51.90625 
L 36.71875 46.6875 
L 19.828125 46.6875 
L 19.828125 13.71875 
Q 19.828125 7.125 21.09375 5.265625 
Q 22.359375 3.421875 25.78125 3.421875 
Q 29.296875 3.421875 30.90625 5.484375 
Q 32.515625 7.5625 32.625 12.203125 
L 39.40625 12.203125 
Q 39.015625 5.125 35.546875 1.84375 
Q 32.078125 -1.421875 25 -1.421875 
Q 17.234375 -1.421875 14.015625 2.015625 
Q 10.796875 5.46875 10.796875 13.71875 
z
" id="DejaVuSerif-116"/>
      <path d="M 47.796875 52 
L 47.796875 39.015625 
L 42.625 39.015625 
Q 42.390625 42.875 40.484375 44.78125 
Q 38.578125 46.6875 34.90625 46.6875 
Q 28.265625 46.6875 24.71875 42.09375 
Q 21.1875 37.5 21.1875 28.90625 
L 21.1875 5.171875 
L 31.59375 5.171875 
L 31.59375 0 
L 4.109375 0 
L 4.109375 5.171875 
L 12.203125 5.171875 
L 12.203125 46.78125 
L 3.609375 46.78125 
L 3.609375 51.90625 
L 21.1875 51.90625 
L 21.1875 42.671875 
Q 23.828125 48.09375 27.96875 50.703125 
Q 32.125 53.328125 38.09375 53.328125 
Q 40.28125 53.328125 42.703125 52.984375 
Q 45.125 52.640625 47.796875 52 
z
" id="DejaVuSerif-114"/>
      <path d="M 30.078125 3.421875 
Q 37.3125 3.421875 40.984375 9.125 
Q 44.671875 14.84375 44.671875 25.984375 
Q 44.671875 37.109375 40.984375 42.796875 
Q 37.3125 48.484375 30.078125 48.484375 
Q 22.859375 48.484375 19.171875 42.796875 
Q 15.484375 37.109375 15.484375 25.984375 
Q 15.484375 14.84375 19.1875 9.125 
Q 22.90625 3.421875 30.078125 3.421875 
z
M 30.078125 -1.421875 
Q 18.75 -1.421875 11.859375 6.078125 
Q 4.984375 13.578125 4.984375 25.984375 
Q 4.984375 38.375 11.84375 45.84375 
Q 18.703125 53.328125 30.078125 53.328125 
Q 41.453125 53.328125 48.3125 45.84375 
Q 55.171875 38.375 55.171875 25.984375 
Q 55.171875 13.578125 48.3125 6.078125 
Q 41.453125 -1.421875 30.078125 -1.421875 
z
" id="DejaVuSerif-111"/>
      <path d="M 28.609375 0 
L 3.421875 0 
L 3.421875 5.171875 
L 11.53125 5.171875 
L 11.53125 70.796875 
L 2.875 70.796875 
L 2.875 75.984375 
L 20.515625 75.984375 
L 20.515625 26.515625 
L 42.390625 46.6875 
L 34.90625 46.6875 
L 34.90625 51.90625 
L 58.40625 51.90625 
L 58.40625 46.6875 
L 49.515625 46.6875 
L 34.078125 32.421875 
L 53.8125 5.171875 
L 61.28125 5.171875 
L 61.28125 0 
L 35.6875 0 
L 35.6875 5.171875 
L 43.109375 5.171875 
L 27.59375 26.515625 
L 20.515625 19.921875 
L 20.515625 5.171875 
L 28.609375 5.171875 
z
" id="DejaVuSerif-107"/>
      <path id="DejaVuSerif-32"/>
      <path d="M 24.703125 5.171875 
L 33.796875 5.171875 
Q 48 5.171875 55.59375 13.28125 
Q 63.1875 21.390625 63.1875 36.53125 
Q 63.1875 51.65625 55.609375 59.65625 
Q 48.046875 67.671875 33.796875 67.671875 
L 24.703125 67.671875 
z
M 5.515625 0 
L 5.515625 5.171875 
L 14.796875 5.171875 
L 14.796875 67.671875 
L 5.515625 67.671875 
L 5.515625 72.90625 
L 34.515625 72.90625 
Q 53.375 72.90625 63.890625 63.28125 
Q 74.421875 53.65625 74.421875 36.53125 
Q 74.421875 19.34375 63.875 9.671875 
Q 53.328125 0 34.515625 0 
z
" id="DejaVuSerif-68"/>
      <path d="M 9.71875 68.015625 
Q 9.71875 70.265625 11.34375 71.921875 
Q 12.984375 73.578125 15.28125 73.578125 
Q 17.53125 73.578125 19.15625 71.921875 
Q 20.796875 70.265625 20.796875 68.015625 
Q 20.796875 65.71875 19.1875 64.109375 
Q 17.578125 62.5 15.28125 62.5 
Q 12.984375 62.5 11.34375 64.109375 
Q 9.71875 65.71875 9.71875 68.015625 
z
M 21.1875 5.171875 
L 29.6875 5.171875 
L 29.6875 0 
L 3.609375 0 
L 3.609375 5.171875 
L 12.203125 5.171875 
L 12.203125 46.6875 
L 3.609375 46.6875 
L 3.609375 51.90625 
L 21.1875 51.90625 
z
" id="DejaVuSerif-105"/>
      <path d="M 5.609375 2.875 
L 5.609375 14.984375 
L 10.796875 14.984375 
Q 10.984375 9.1875 14.421875 6.296875 
Q 17.875 3.421875 24.609375 3.421875 
Q 30.671875 3.421875 33.84375 5.6875 
Q 37.015625 7.953125 37.015625 12.3125 
Q 37.015625 15.71875 34.6875 17.8125 
Q 32.375 19.921875 24.90625 22.3125 
L 18.40625 24.515625 
Q 11.71875 26.65625 8.71875 29.875 
Q 5.71875 33.109375 5.71875 38.09375 
Q 5.71875 45.21875 10.9375 49.265625 
Q 16.15625 53.328125 25.390625 53.328125 
Q 29.5 53.328125 34.03125 52.25 
Q 38.578125 51.171875 43.40625 49.125 
L 43.40625 37.796875 
L 38.234375 37.796875 
Q 38.03125 42.828125 34.703125 45.65625 
Q 31.390625 48.484375 25.6875 48.484375 
Q 20.015625 48.484375 17.109375 46.484375 
Q 14.203125 44.484375 14.203125 40.484375 
Q 14.203125 37.203125 16.40625 35.21875 
Q 18.609375 33.25 25.203125 31.203125 
L 32.328125 29 
Q 39.703125 26.703125 42.9375 23.265625 
Q 46.1875 19.828125 46.1875 14.40625 
Q 46.1875 7.03125 40.546875 2.796875 
Q 34.90625 -1.421875 25 -1.421875 
Q 19.96875 -1.421875 15.1875 -0.34375 
Q 10.40625 0.734375 5.609375 2.875 
z
" id="DejaVuSerif-115"/>
      <path d="M 11.53125 5.171875 
L 11.53125 70.796875 
L 2.875 70.796875 
L 2.875 75.984375 
L 20.515625 75.984375 
L 20.515625 43.796875 
Q 23.140625 48.6875 27.21875 51 
Q 31.296875 53.328125 37.3125 53.328125 
Q 46.875 53.328125 52.921875 45.75 
Q 58.984375 38.1875 58.984375 25.984375 
Q 58.984375 13.765625 52.921875 6.171875 
Q 46.875 -1.421875 37.3125 -1.421875 
Q 31.296875 -1.421875 27.21875 0.890625 
Q 23.140625 3.21875 20.515625 8.109375 
L 20.515625 0 
L 2.875 0 
L 2.875 5.171875 
z
M 20.515625 23.390625 
Q 20.515625 14.015625 24.09375 9.109375 
Q 27.6875 4.203125 34.515625 4.203125 
Q 41.40625 4.203125 44.9375 9.71875 
Q 48.484375 15.234375 48.484375 25.984375 
Q 48.484375 36.765625 44.9375 42.234375 
Q 41.40625 47.703125 34.515625 47.703125 
Q 27.6875 47.703125 24.09375 42.765625 
Q 20.515625 37.84375 20.515625 28.515625 
z
" id="DejaVuSerif-98"/>
      <path d="M 35.40625 51.90625 
L 52.203125 51.90625 
L 52.203125 5.171875 
L 60.6875 5.171875 
L 60.6875 0 
L 43.21875 0 
L 43.21875 9.1875 
Q 40.71875 4 36.765625 1.28125 
Q 32.8125 -1.421875 27.59375 -1.421875 
Q 18.953125 -1.421875 14.875 3.484375 
Q 10.796875 8.40625 10.796875 18.890625 
L 10.796875 46.6875 
L 2.6875 46.6875 
L 2.6875 51.90625 
L 19.828125 51.90625 
L 19.828125 21.6875 
Q 19.828125 12.203125 22.140625 8.6875 
Q 24.46875 5.171875 30.421875 5.171875 
Q 36.671875 5.171875 39.9375 9.765625 
Q 43.21875 14.359375 43.21875 23.09375 
L 43.21875 46.6875 
L 35.40625 46.6875 
z
" id="DejaVuSerif-117"/>
      <path d="M 4.109375 0 
L 4.109375 5.171875 
L 12.203125 5.171875 
L 12.203125 46.6875 
L 3.609375 46.6875 
L 3.609375 51.90625 
L 21.1875 51.90625 
L 21.1875 42.671875 
Q 23.6875 47.953125 27.65625 50.640625 
Q 31.640625 53.328125 36.921875 53.328125 
Q 45.515625 53.328125 49.5625 48.390625 
Q 53.609375 43.453125 53.609375 33.015625 
L 53.609375 5.171875 
L 61.625 5.171875 
L 61.625 0 
L 36.8125 0 
L 36.8125 5.171875 
L 44.578125 5.171875 
L 44.578125 30.171875 
Q 44.578125 39.703125 42.234375 43.234375 
Q 39.890625 46.78125 33.984375 46.78125 
Q 27.734375 46.78125 24.453125 42.203125 
Q 21.1875 37.640625 21.1875 28.90625 
L 21.1875 5.171875 
L 29 5.171875 
L 29 0 
z
" id="DejaVuSerif-110"/>
      <path d="M 5.515625 0 
L 5.515625 5.171875 
L 14.796875 5.171875 
L 14.796875 67.671875 
L 5.515625 67.671875 
L 5.515625 72.90625 
L 33.984375 72.90625 
L 33.984375 67.671875 
L 24.703125 67.671875 
L 24.703125 42.484375 
L 62.5 42.484375 
L 62.5 67.671875 
L 53.21875 67.671875 
L 53.21875 72.90625 
L 81.6875 72.90625 
L 81.6875 67.671875 
L 72.40625 67.671875 
L 72.40625 5.171875 
L 81.6875 5.171875 
L 81.6875 0 
L 53.21875 0 
L 53.21875 5.171875 
L 62.5 5.171875 
L 62.5 36.53125 
L 24.703125 36.53125 
L 24.703125 5.171875 
L 33.984375 5.171875 
L 33.984375 0 
z
" id="DejaVuSerif-72"/>
      <path d="M 48 51.90625 
L 61.28125 11.375 
L 73 46.6875 
L 65.484375 46.6875 
L 65.484375 51.90625 
L 84.28125 51.90625 
L 84.28125 46.6875 
L 78.515625 46.6875 
L 63.09375 0 
L 55.609375 0 
L 42.828125 38.8125 
L 29.984375 0 
L 22.796875 0 
L 7.421875 46.6875 
L 1.609375 46.6875 
L 1.609375 51.90625 
L 25.09375 51.90625 
L 25.09375 46.6875 
L 16.703125 46.6875 
L 28.328125 11.375 
L 41.703125 51.90625 
z
" id="DejaVuSerif-119"/>
      <path d="M 17.578125 5.078125 
Q 17.578125 7.8125 19.453125 9.71875 
Q 21.34375 11.625 24.125 11.625 
Q 26.8125 11.625 28.703125 9.71875 
Q 30.609375 7.8125 30.609375 5.078125 
Q 30.609375 2.390625 28.703125 0.484375 
Q 26.8125 -1.421875 24.125 -1.421875 
Q 21.34375 -1.421875 19.453125 0.453125 
Q 17.578125 2.34375 17.578125 5.078125 
z
M 6.78125 69.671875 
Q 11.96875 71.96875 16.625 73.09375 
Q 21.296875 74.21875 25.390625 74.21875 
Q 36.234375 74.21875 42.5 68.984375 
Q 48.78125 63.765625 48.78125 54.890625 
Q 48.78125 45.796875 43.375 40.03125 
Q 37.984375 34.28125 27.09375 31.78125 
L 27.09375 19.390625 
L 21.09375 19.390625 
L 21.09375 35.40625 
Q 29.734375 37.5 34.109375 42.421875 
Q 38.484375 47.359375 38.484375 54.984375 
Q 38.484375 61.671875 34.90625 65.53125 
Q 31.34375 69.390625 25.203125 69.390625 
Q 19.625 69.390625 16.078125 66.1875 
Q 12.546875 62.984375 11.53125 56.984375 
L 6.78125 56.984375 
z
" id="DejaVuSerif-63"/>
     </defs>
     <use xlink:href="#DejaVuSerif-65"/>
     <use x="72.216797" xlink:href="#DejaVuSerif-103"/>
     <use x="136.230469" xlink:href="#DejaVuSerif-101"/>
     <use x="195.410156" xlink:href="#DejaVuSerif-45"/>
     <use x="229.199219" xlink:href="#DejaVuSerif-83"/>
     <use x="297.705078" xlink:href="#DejaVuSerif-116"/>
     <use x="337.890625" xlink:href="#DejaVuSerif-114"/>
     <use x="385.693359" xlink:href="#DejaVuSerif-111"/>
     <use x="445.898438" xlink:href="#DejaVuSerif-107"/>
     <use x="506.494141" xlink:href="#DejaVuSerif-101"/>
     <use x="565.673828" xlink:href="#DejaVuSerif-32"/>
     <use x="597.460938" xlink:href="#DejaVuSerif-68"/>
     <use x="677.636719" xlink:href="#DejaVuSerif-105"/>
     <use x="709.619141" xlink:href="#DejaVuSerif-115"/>
     <use x="760.9375" xlink:href="#DejaVuSerif-116"/>
     <use x="801.123047" xlink:href="#DejaVuSerif-114"/>
     <use x="848.925781" xlink:href="#DejaVuSerif-105"/>
     <use x="880.908203" xlink:href="#DejaVuSerif-98"/>
     <use x="944.921875" xlink:href="#DejaVuSerif-117"/>
     <use x="1009.326172" xlink:href="#DejaVuSerif-116"/>
     <use x="1049.511719" xlink:href="#DejaVuSerif-105"/>
     <use x="1081.494141" xlink:href="#DejaVuSerif-111"/>
     <use x="1141.699219" xlink:href="#DejaVuSerif-110"/>
     <use x="1206.103516" xlink:href="#DejaVuSerif-32"/>
     <use x="1237.890625" xlink:href="#DejaVuSerif-45"/>
     <use x="1271.679688" xlink:href="#DejaVuSerif-32"/>
     <use x="1303.466797" xlink:href="#DejaVuSerif-72"/>
     <use x="1390.673828" xlink:href="#DejaVuSerif-111"/>
     <use x="1450.878906" xlink:href="#DejaVuSerif-119"/>
     <use x="1536.474609" xlink:href="#DejaVuSerif-32"/>
     <use x="1568.261719" xlink:href="#DejaVuSerif-115"/>
     <use x="1619.580078" xlink:href="#DejaVuSerif-101"/>
     <use x="1678.759766" xlink:href="#DejaVuSerif-114"/>
     <use x="1726.5625" xlink:href="#DejaVuSerif-105"/>
     <use x="1758.544922" xlink:href="#DejaVuSerif-111"/>
     <use x="1818.75" xlink:href="#DejaVuSerif-117"/>
     <use x="1883.154297" xlink:href="#DejaVuSerif-115"/>
     <use x="1934.472656" xlink:href="#DejaVuSerif-32"/>
     <use x="1966.259766" xlink:href="#DejaVuSerif-105"/>
     <use x="1998.242188" xlink:href="#DejaVuSerif-115"/>
     <use x="2049.560547" xlink:href="#DejaVuSerif-32"/>
     <use x="2081.347656" xlink:href="#DejaVuSerif-105"/>
     <use x="2113.330078" xlink:href="#DejaVuSerif-116"/>
     <use x="2153.515625" xlink:href="#DejaVuSerif-63"/>
    </g>
   </g>
   <g id="text_19">
    <!-- Stroke  -->
    <g style="fill:#e37678;" transform="translate(394.11924 43.837206)scale(0.12 -0.12)">
     <defs>
      <path d="M 7.71875 3.515625 
L 7.71875 20.796875 
L 13.921875 20.796875 
Q 15.328125 12.59375 20.59375 8.546875 
Q 25.875 4.5 35.203125 4.5 
Q 42.78125 4.5 46.734375 7.375 
Q 50.6875 10.25 50.6875 15.828125 
Q 50.6875 20.21875 48 22.65625 
Q 45.3125 25.09375 36.921875 27.203125 
L 25.984375 29.890625 
Q 15.28125 32.625 10.9375 37.46875 
Q 6.59375 42.328125 6.59375 51.3125 
Q 6.59375 62.15625 13.796875 68.1875 
Q 21 74.21875 33.984375 74.21875 
Q 40.375 74.21875 47.28125 73.140625 
Q 54.203125 72.078125 61.625 69.921875 
L 61.625 53.8125 
L 55.421875 53.8125 
Q 54 61.328125 49.21875 64.8125 
Q 44.4375 68.3125 35.59375 68.3125 
Q 28.375 68.3125 24.6875 65.796875 
Q 21 63.28125 21 58.296875 
Q 21 53.765625 23.53125 51.390625 
Q 26.078125 49.03125 35.984375 46.484375 
L 46.921875 43.796875 
Q 57.078125 41.265625 61.640625 35.890625 
Q 66.21875 30.515625 66.21875 21.09375 
Q 66.21875 10.0625 58.59375 4.3125 
Q 50.984375 -1.421875 36.1875 -1.421875 
Q 29.046875 -1.421875 22.015625 -0.1875 
Q 14.984375 1.03125 7.71875 3.515625 
z
" id="DejaVuSerif-Bold-83"/>
      <path d="M 9.90625 46 
L 2.390625 46 
L 2.390625 51.90625 
L 9.90625 51.90625 
L 9.90625 68.015625 
L 27.203125 68.015625 
L 27.203125 51.90625 
L 41.609375 51.90625 
L 41.609375 46 
L 27.203125 46 
L 27.203125 14.203125 
Q 27.203125 7.421875 28.265625 5.765625 
Q 29.34375 4.109375 32.171875 4.109375 
Q 35.296875 4.109375 36.8125 6.203125 
Q 38.328125 8.296875 38.421875 12.703125 
L 45.703125 12.703125 
Q 45.265625 4.890625 41.421875 1.734375 
Q 37.59375 -1.421875 28.21875 -1.421875 
Q 17.53125 -1.421875 13.71875 1.921875 
Q 9.90625 5.28125 9.90625 14.203125 
z
" id="DejaVuSerif-Bold-116"/>
      <path d="M 53.71875 52.484375 
L 53.71875 37.015625 
L 48.1875 37.015625 
Q 47.90625 41.15625 45.953125 43.1875 
Q 44 45.21875 40.28125 45.21875 
Q 34.625 45.21875 31.34375 40.234375 
Q 28.078125 35.25 28.078125 26.421875 
L 28.078125 5.90625 
L 37.5 5.90625 
L 37.5 0 
L 3.421875 0 
L 3.421875 5.90625 
L 10.796875 5.90625 
L 10.796875 46 
L 2.875 46 
L 2.875 51.90625 
L 28.078125 51.90625 
L 28.078125 42.671875 
Q 30.609375 48.09375 34.78125 50.703125 
Q 38.96875 53.328125 45.015625 53.328125 
Q 46.53125 53.328125 48.703125 53.09375 
Q 50.875 52.875 53.71875 52.484375 
z
" id="DejaVuSerif-Bold-114"/>
      <path d="M 33.40625 4.109375 
Q 38.875 4.109375 41.09375 8.796875 
Q 43.3125 13.484375 43.3125 25.984375 
Q 43.3125 38.484375 41.109375 43.140625 
Q 38.921875 47.796875 33.40625 47.796875 
Q 27.875 47.796875 25.625 43.078125 
Q 23.390625 38.375 23.390625 25.984375 
Q 23.390625 13.578125 25.625 8.84375 
Q 27.875 4.109375 33.40625 4.109375 
z
M 33.40625 -1.421875 
Q 19.671875 -1.421875 11.890625 5.875 
Q 4.109375 13.1875 4.109375 25.984375 
Q 4.109375 38.8125 11.890625 46.0625 
Q 19.671875 53.328125 33.40625 53.328125 
Q 47.171875 53.328125 54.9375 46.0625 
Q 62.703125 38.8125 62.703125 25.984375 
Q 62.703125 13.1875 54.90625 5.875 
Q 47.125 -1.421875 33.40625 -1.421875 
z
" id="DejaVuSerif-Bold-111"/>
      <path d="M 34.625 0 
L 3.421875 0 
L 3.421875 5.90625 
L 10.796875 5.90625 
L 10.796875 70.125 
L 3.421875 70.125 
L 3.421875 75.984375 
L 28.078125 75.984375 
L 28.078125 27.203125 
L 49.03125 46 
L 42.828125 46 
L 42.828125 51.90625 
L 66.5 51.90625 
L 66.5 46 
L 56.890625 46 
L 43.5 33.984375 
L 65.375 5.90625 
L 71 5.90625 
L 71 0 
L 41.21875 0 
L 41.21875 5.90625 
L 47.3125 5.90625 
L 32.90625 24.421875 
L 28.078125 20.125 
L 28.078125 5.90625 
L 34.625 5.90625 
z
" id="DejaVuSerif-Bold-107"/>
      <path d="M 40.09375 29.296875 
Q 40.09375 39.546875 38.1875 43.671875 
Q 36.28125 47.796875 31.6875 47.796875 
Q 27.25 47.796875 25.3125 43.75 
Q 23.390625 39.703125 23.390625 30.171875 
L 23.390625 29.296875 
z
M 59.078125 23.484375 
L 23.390625 23.484375 
L 23.390625 23.09375 
Q 23.390625 13.03125 26.40625 8.5625 
Q 29.4375 4.109375 36.1875 4.109375 
Q 41.796875 4.109375 45.265625 7.078125 
Q 48.734375 10.0625 49.703125 15.71875 
L 57.8125 15.71875 
Q 55.71875 6.890625 49.46875 2.734375 
Q 43.21875 -1.421875 31.984375 -1.421875 
Q 18.5 -1.421875 11.296875 5.6875 
Q 4.109375 12.796875 4.109375 25.984375 
Q 4.109375 38.875 11.46875 46.09375 
Q 18.84375 53.328125 31.984375 53.328125 
Q 44.875 53.328125 51.75 45.734375 
Q 58.640625 38.140625 59.078125 23.484375 
z
" id="DejaVuSerif-Bold-101"/>
      <path id="DejaVuSerif-Bold-32"/>
     </defs>
     <use xlink:href="#DejaVuSerif-Bold-83"/>
     <use x="72.216797" xlink:href="#DejaVuSerif-Bold-116"/>
     <use x="118.408203" xlink:href="#DejaVuSerif-Bold-114"/>
     <use x="171.09375" xlink:href="#DejaVuSerif-Bold-111"/>
     <use x="237.792969" xlink:href="#DejaVuSerif-Bold-107"/>
     <use x="307.080078" xlink:href="#DejaVuSerif-Bold-101"/>
     <use x="370.703125" xlink:href="#DejaVuSerif-Bold-32"/>
    </g>
   </g>
   <g id="text_20">
    <!-- | -->
    <g transform="translate(442.553256 43.837206)scale(0.12 -0.12)">
     <defs>
      <path d="M 8.59375 -21.046875 
L 8.59375 72.796875 
L 19.484375 72.796875 
L 19.484375 -21.046875 
z
" id="Arial-BoldMT-124"/>
     </defs>
     <use xlink:href="#Arial-BoldMT-124"/>
    </g>
   </g>
   <g id="text_21">
    <!-- Healthy -->
    <g style="fill:#8bcbe8;" transform="translate(451.100435 43.837206)scale(0.12 -0.12)">
     <defs>
      <path d="M 4.6875 0 
L 4.6875 5.90625 
L 14.015625 5.90625 
L 14.015625 67 
L 4.6875 67 
L 4.6875 72.90625 
L 42.1875 72.90625 
L 42.1875 67 
L 32.8125 67 
L 32.8125 42.484375 
L 61.8125 42.484375 
L 61.8125 67 
L 52.484375 67 
L 52.484375 72.90625 
L 89.984375 72.90625 
L 89.984375 67 
L 80.609375 67 
L 80.609375 5.90625 
L 89.984375 5.90625 
L 89.984375 0 
L 52.484375 0 
L 52.484375 5.90625 
L 61.8125 5.90625 
L 61.8125 35.796875 
L 32.8125 35.796875 
L 32.8125 5.90625 
L 42.1875 5.90625 
L 42.1875 0 
z
" id="DejaVuSerif-Bold-72"/>
      <path d="M 55.078125 31.890625 
L 55.078125 5.90625 
L 62.5 5.90625 
L 62.5 0 
L 37.796875 0 
L 37.796875 6.59375 
Q 34.375 2.484375 30.171875 0.53125 
Q 25.984375 -1.421875 20.609375 -1.421875 
Q 12.640625 -1.421875 8.375 2.84375 
Q 4.109375 7.125 4.109375 15.09375 
Q 4.109375 23.828125 10.234375 28.171875 
Q 16.359375 32.515625 28.71875 32.515625 
L 37.796875 32.515625 
L 37.796875 35.59375 
Q 37.796875 41.890625 34.8125 44.890625 
Q 31.84375 47.90625 25.59375 47.90625 
Q 20.40625 47.90625 17.59375 45.78125 
Q 14.796875 43.65625 13.625 38.8125 
L 8.109375 38.8125 
L 8.109375 50 
Q 12.75 51.65625 17.71875 52.484375 
Q 22.703125 53.328125 28.21875 53.328125 
Q 42.140625 53.328125 48.609375 48.140625 
Q 55.078125 42.96875 55.078125 31.890625 
z
M 37.796875 16.3125 
L 37.796875 26.703125 
L 31.296875 26.703125 
Q 26.46875 26.703125 23.875 24.0625 
Q 21.296875 21.4375 21.296875 16.5 
Q 21.296875 11.578125 23.171875 9.125 
Q 25.046875 6.6875 28.90625 6.6875 
Q 32.90625 6.6875 35.34375 9.328125 
Q 37.796875 11.96875 37.796875 16.3125 
z
" id="DejaVuSerif-Bold-97"/>
      <path d="M 28.078125 5.90625 
L 35.5 5.90625 
L 35.5 0 
L 3.421875 0 
L 3.421875 5.90625 
L 10.796875 5.90625 
L 10.796875 70.125 
L 3.421875 70.125 
L 3.421875 75.984375 
L 28.078125 75.984375 
z
" id="DejaVuSerif-Bold-108"/>
      <path d="M 3.421875 0 
L 3.421875 5.90625 
L 10.796875 5.90625 
L 10.796875 70.125 
L 3.078125 70.125 
L 3.078125 75.984375 
L 28.078125 75.984375 
L 28.078125 44.578125 
Q 31.203125 49.21875 35.203125 51.265625 
Q 39.203125 53.328125 45.3125 53.328125 
Q 54.046875 53.328125 58.515625 48.171875 
Q 62.984375 43.015625 62.984375 33.015625 
L 62.984375 5.90625 
L 70.40625 5.90625 
L 70.40625 0 
L 39.40625 0 
L 39.40625 5.90625 
L 45.703125 5.90625 
L 45.703125 33.5 
Q 45.703125 40.09375 44.015625 42.65625 
Q 42.328125 45.21875 38.1875 45.21875 
Q 32.953125 45.21875 30.515625 41.375 
Q 28.078125 37.546875 28.078125 29.203125 
L 28.078125 5.90625 
L 34.421875 5.90625 
L 34.421875 0 
z
" id="DejaVuSerif-Bold-104"/>
      <path d="M 31.203125 -11.71875 
Q 28.859375 -17.4375 25.53125 -19.828125 
Q 22.21875 -22.21875 16.609375 -22.21875 
Q 14.203125 -22.21875 11.265625 -21.671875 
Q 8.34375 -21.140625 4.890625 -20.125 
L 4.890625 -9.28125 
L 10.40625 -9.328125 
Q 10.546875 -13.09375 12.171875 -14.890625 
Q 13.8125 -16.703125 17.09375 -16.703125 
Q 20.265625 -16.703125 22.21875 -14.96875 
Q 24.171875 -13.234375 26.125 -8.40625 
L 26.90625 -6.59375 
L 4.296875 46 
L -1.3125 46 
L -1.3125 51.90625 
L 28.609375 51.90625 
L 28.609375 46 
L 22.40625 46 
L 35.59375 15.28125 
L 47.90625 46 
L 41.015625 46 
L 41.015625 51.90625 
L 60.5 51.90625 
L 60.5 46 
L 54.203125 46 
z
" id="DejaVuSerif-Bold-121"/>
     </defs>
     <use xlink:href="#DejaVuSerif-Bold-72"/>
     <use x="94.482422" xlink:href="#DejaVuSerif-Bold-101"/>
     <use x="158.105469" xlink:href="#DejaVuSerif-Bold-97"/>
     <use x="222.900391" xlink:href="#DejaVuSerif-Bold-108"/>
     <use x="260.888672" xlink:href="#DejaVuSerif-Bold-116"/>
     <use x="307.080078" xlink:href="#DejaVuSerif-Bold-104"/>
     <use x="379.785156" xlink:href="#DejaVuSerif-Bold-121"/>
    </g>
   </g>
  </g>
 </g>
 <defs>
  <clipPath id="p40ca9a866f">
   <rect height="217.44" width="334.8" x="59.339063" y="49.991991"/>
  </clipPath>
 </defs>
</svg>
