<?xml version="1.0" encoding="utf-8" standalone="no"?>
<!DOCTYPE svg PUBLIC "-//W3C//DTD SVG 1.1//EN"
  "http://www.w3.org/Graphics/SVG/1.1/DTD/svg11.dtd">
<!-- Created with matplotlib (https://matplotlib.org/) -->
<svg height="292.336875pt" version="1.1" viewBox="0 0 970.971429 292.336875" width="970.971429pt" xmlns="http://www.w3.org/2000/svg" xmlns:xlink="http://www.w3.org/1999/xlink">
 <metadata>
  <rdf:RDF xmlns:cc="http://creativecommons.org/ns#" xmlns:dc="http://purl.org/dc/elements/1.1/" xmlns:rdf="http://www.w3.org/1999/02/22-rdf-syntax-ns#">
   <cc:Work>
    <dc:type rdf:resource="http://purl.org/dc/dcmitype/StillImage"/>
    <dc:date>2021-12-13T21:34:19.233969</dc:date>
    <dc:format>image/svg+xml</dc:format>
    <dc:creator>
     <cc:Agent>
      <dc:title>Matplotlib v3.3.4, https://matplotlib.org/</dc:title>
     </cc:Agent>
    </dc:creator>
   </cc:Work>
  </rdf:RDF>
 </metadata>
 <defs>
  <style type="text/css">*{stroke-linecap:butt;stroke-linejoin:round;}</style>
 </defs>
 <g id="figure_1">
  <g id="patch_1">
   <path d="M 0 292.336875 
L 970.971429 292.336875 
L 970.971429 0 
L 0 0 
z
" style="fill:#ffffff;"/>
  </g>
  <g id="axes_1">
   <g id="patch_2">
    <path d="M 126.771429 285.136875 
L 963.771429 285.136875 
L 963.771429 13.336875 
L 126.771429 13.336875 
z
" style="fill:#ffffff;"/>
   </g>
   <g id="matplotlib.axis_1">
    <g id="ytick_1">
     <g id="text_1">
      <!-- Low -->
      <g style="opacity:0.5;" transform="translate(86.038304 222.505781)scale(0.14 -0.14)">
       <defs>
        <path d="M 4.6875 0 
L 4.6875 5.90625 
L 14.015625 5.90625 
L 14.015625 67 
L 4.6875 67 
L 4.6875 72.90625 
L 42.1875 72.90625 
L 42.1875 67 
L 32.8125 67 
L 32.8125 6.6875 
L 61.53125 6.6875 
L 61.53125 18.21875 
L 68.109375 18.21875 
L 68.109375 0 
z
" id="DejaVuSerif-Bold-76"/>
        <path d="M 33.40625 4.109375 
Q 38.875 4.109375 41.09375 8.796875 
Q 43.3125 13.484375 43.3125 25.984375 
Q 43.3125 38.484375 41.109375 43.140625 
Q 38.921875 47.796875 33.40625 47.796875 
Q 27.875 47.796875 25.625 43.078125 
Q 23.390625 38.375 23.390625 25.984375 
Q 23.390625 13.578125 25.625 8.84375 
Q 27.875 4.109375 33.40625 4.109375 
z
M 33.40625 -1.421875 
Q 19.671875 -1.421875 11.890625 5.875 
Q 4.109375 13.1875 4.109375 25.984375 
Q 4.109375 38.8125 11.890625 46.0625 
Q 19.671875 53.328125 33.40625 53.328125 
Q 47.171875 53.328125 54.9375 46.0625 
Q 62.703125 38.8125 62.703125 25.984375 
Q 62.703125 13.1875 54.90625 5.875 
Q 47.125 -1.421875 33.40625 -1.421875 
z
" id="DejaVuSerif-Bold-111"/>
        <path d="M 53.90625 51.90625 
L 65.71875 17.28125 
L 75.484375 46 
L 68.703125 46 
L 68.703125 51.90625 
L 88.09375 51.90625 
L 88.09375 46 
L 81.984375 46 
L 66.3125 0 
L 54.390625 0 
L 43.40625 32.515625 
L 32.328125 0 
L 20.515625 0 
L 4.78125 46 
L -0.875 46 
L -0.875 51.90625 
L 28.515625 51.90625 
L 28.515625 46 
L 22.40625 46 
L 31.984375 17.921875 
L 43.609375 51.90625 
z
" id="DejaVuSerif-Bold-119"/>
       </defs>
       <use xlink:href="#DejaVuSerif-Bold-76"/>
       <use x="70.3125" xlink:href="#DejaVuSerif-Bold-111"/>
       <use x="137.011719" xlink:href="#DejaVuSerif-Bold-119"/>
      </g>
     </g>
    </g>
    <g id="ytick_2">
     <g id="text_2">
      <!-- Normal -->
      <g style="opacity:0.5;" transform="translate(58.556741 177.205781)scale(0.14 -0.14)">
       <defs>
        <path d="M 4.390625 0 
L 4.390625 5.90625 
L 13.71875 5.90625 
L 13.71875 67 
L 4.390625 67 
L 4.390625 72.90625 
L 27.203125 72.90625 
L 71.1875 21.296875 
L 71.1875 67 
L 61.921875 67 
L 61.921875 72.90625 
L 87.40625 72.90625 
L 87.40625 67 
L 78.078125 67 
L 78.078125 0 
L 65.28125 0 
L 20.609375 52.6875 
L 20.609375 5.90625 
L 29.890625 5.90625 
L 29.890625 0 
z
" id="DejaVuSerif-Bold-78"/>
        <path d="M 53.71875 52.484375 
L 53.71875 37.015625 
L 48.1875 37.015625 
Q 47.90625 41.15625 45.953125 43.1875 
Q 44 45.21875 40.28125 45.21875 
Q 34.625 45.21875 31.34375 40.234375 
Q 28.078125 35.25 28.078125 26.421875 
L 28.078125 5.90625 
L 37.5 5.90625 
L 37.5 0 
L 3.421875 0 
L 3.421875 5.90625 
L 10.796875 5.90625 
L 10.796875 46 
L 2.875 46 
L 2.875 51.90625 
L 28.078125 51.90625 
L 28.078125 42.671875 
Q 30.609375 48.09375 34.78125 50.703125 
Q 38.96875 53.328125 45.015625 53.328125 
Q 46.53125 53.328125 48.703125 53.09375 
Q 50.875 52.875 53.71875 52.484375 
z
" id="DejaVuSerif-Bold-114"/>
        <path d="M 60.6875 43.40625 
Q 64.3125 48.578125 68.5 50.953125 
Q 72.703125 53.328125 78.328125 53.328125 
Q 87.25 53.328125 91.671875 48.265625 
Q 96.09375 43.21875 96.09375 33.015625 
L 96.09375 5.90625 
L 103.515625 5.90625 
L 103.515625 0 
L 72.609375 0 
L 72.609375 5.90625 
L 78.8125 5.90625 
L 78.8125 30.421875 
Q 78.8125 40.140625 77.3125 42.671875 
Q 75.828125 45.21875 71.78125 45.21875 
Q 67.1875 45.21875 64.640625 41.671875 
Q 62.109375 38.140625 62.109375 31.59375 
L 62.109375 5.90625 
L 68.3125 5.90625 
L 68.3125 0 
L 38.625 0 
L 38.625 5.90625 
L 44.828125 5.90625 
L 44.828125 30.421875 
Q 44.828125 40.140625 43.3125 42.671875 
Q 41.796875 45.21875 37.796875 45.21875 
Q 33.15625 45.21875 30.609375 41.671875 
Q 28.078125 38.140625 28.078125 31.59375 
L 28.078125 5.90625 
L 34.28125 5.90625 
L 34.28125 0 
L 3.421875 0 
L 3.421875 5.90625 
L 10.796875 5.90625 
L 10.796875 46 
L 3.421875 46 
L 3.421875 51.90625 
L 28.078125 51.90625 
L 28.078125 44.578125 
Q 31.109375 49.125 35.015625 51.21875 
Q 38.921875 53.328125 44.28125 53.328125 
Q 50.640625 53.328125 54.59375 50.90625 
Q 58.546875 48.484375 60.6875 43.40625 
z
" id="DejaVuSerif-Bold-109"/>
        <path d="M 55.078125 31.890625 
L 55.078125 5.90625 
L 62.5 5.90625 
L 62.5 0 
L 37.796875 0 
L 37.796875 6.59375 
Q 34.375 2.484375 30.171875 0.53125 
Q 25.984375 -1.421875 20.609375 -1.421875 
Q 12.640625 -1.421875 8.375 2.84375 
Q 4.109375 7.125 4.109375 15.09375 
Q 4.109375 23.828125 10.234375 28.171875 
Q 16.359375 32.515625 28.71875 32.515625 
L 37.796875 32.515625 
L 37.796875 35.59375 
Q 37.796875 41.890625 34.8125 44.890625 
Q 31.84375 47.90625 25.59375 47.90625 
Q 20.40625 47.90625 17.59375 45.78125 
Q 14.796875 43.65625 13.625 38.8125 
L 8.109375 38.8125 
L 8.109375 50 
Q 12.75 51.65625 17.71875 52.484375 
Q 22.703125 53.328125 28.21875 53.328125 
Q 42.140625 53.328125 48.609375 48.140625 
Q 55.078125 42.96875 55.078125 31.890625 
z
M 37.796875 16.3125 
L 37.796875 26.703125 
L 31.296875 26.703125 
Q 26.46875 26.703125 23.875 24.0625 
Q 21.296875 21.4375 21.296875 16.5 
Q 21.296875 11.578125 23.171875 9.125 
Q 25.046875 6.6875 28.90625 6.6875 
Q 32.90625 6.6875 35.34375 9.328125 
Q 37.796875 11.96875 37.796875 16.3125 
z
" id="DejaVuSerif-Bold-97"/>
        <path d="M 28.078125 5.90625 
L 35.5 5.90625 
L 35.5 0 
L 3.421875 0 
L 3.421875 5.90625 
L 10.796875 5.90625 
L 10.796875 70.125 
L 3.421875 70.125 
L 3.421875 75.984375 
L 28.078125 75.984375 
z
" id="DejaVuSerif-Bold-108"/>
       </defs>
       <use xlink:href="#DejaVuSerif-Bold-78"/>
       <use x="91.40625" xlink:href="#DejaVuSerif-Bold-111"/>
       <use x="158.105469" xlink:href="#DejaVuSerif-Bold-114"/>
       <use x="210.791016" xlink:href="#DejaVuSerif-Bold-109"/>
       <use x="316.601562" xlink:href="#DejaVuSerif-Bold-97"/>
       <use x="381.396484" xlink:href="#DejaVuSerif-Bold-108"/>
      </g>
     </g>
    </g>
    <g id="ytick_3">
     <g id="text_3">
      <!-- High -->
      <g style="opacity:0.5;" transform="translate(78.758304 131.905781)scale(0.14 -0.14)">
       <defs>
        <path d="M 4.6875 0 
L 4.6875 5.90625 
L 14.015625 5.90625 
L 14.015625 67 
L 4.6875 67 
L 4.6875 72.90625 
L 42.1875 72.90625 
L 42.1875 67 
L 32.8125 67 
L 32.8125 42.484375 
L 61.8125 42.484375 
L 61.8125 67 
L 52.484375 67 
L 52.484375 72.90625 
L 89.984375 72.90625 
L 89.984375 67 
L 80.609375 67 
L 80.609375 5.90625 
L 89.984375 5.90625 
L 89.984375 0 
L 52.484375 0 
L 52.484375 5.90625 
L 61.8125 5.90625 
L 61.8125 35.796875 
L 32.8125 35.796875 
L 32.8125 5.90625 
L 42.1875 5.90625 
L 42.1875 0 
z
" id="DejaVuSerif-Bold-72"/>
        <path d="M 9.1875 66.609375 
Q 9.1875 70.5625 11.921875 73.265625 
Q 14.65625 75.984375 18.609375 75.984375 
Q 22.46875 75.984375 25.171875 73.265625 
Q 27.875 70.5625 27.875 66.609375 
Q 27.875 62.75 25.171875 60.03125 
Q 22.46875 57.328125 18.609375 57.328125 
Q 14.65625 57.328125 11.921875 60.015625 
Q 9.1875 62.703125 9.1875 66.609375 
z
M 28.078125 5.90625 
L 35.5 5.90625 
L 35.5 0 
L 3.421875 0 
L 3.421875 5.90625 
L 10.796875 5.90625 
L 10.796875 46 
L 3.421875 46 
L 3.421875 51.90625 
L 28.078125 51.90625 
z
" id="DejaVuSerif-Bold-105"/>
        <path d="M 60.203125 46 
L 60.203125 0.6875 
Q 60.203125 -10.25 52.40625 -16.234375 
Q 44.625 -22.21875 30.421875 -22.21875 
Q 25.25 -22.21875 19.921875 -21.40625 
Q 14.59375 -20.609375 8.984375 -19 
L 8.984375 -6.59375 
L 14.5 -6.59375 
Q 15.234375 -11.71875 18.625 -14.203125 
Q 22.015625 -16.703125 28.328125 -16.703125 
Q 36.328125 -16.703125 39.625 -12.859375 
Q 42.921875 -9.03125 42.921875 0.6875 
L 42.921875 6.59375 
Q 40.71875 2.546875 36.984375 0.5625 
Q 33.25 -1.421875 27.78125 -1.421875 
Q 16.75 -1.421875 10.421875 5.90625 
Q 4.109375 13.234375 4.109375 25.984375 
Q 4.109375 38.765625 10.421875 46.046875 
Q 16.75 53.328125 27.78125 53.328125 
Q 33.25 53.328125 36.984375 51.34375 
Q 40.71875 49.359375 42.921875 45.3125 
L 42.921875 51.90625 
L 67.578125 51.90625 
L 67.578125 46 
z
M 42.921875 28.515625 
Q 42.921875 37.59375 40.578125 41.640625 
Q 38.234375 45.703125 33.109375 45.703125 
Q 27.734375 45.703125 25.5625 41.421875 
Q 23.390625 37.15625 23.390625 25.984375 
Q 23.390625 14.796875 25.578125 10.5 
Q 27.78125 6.203125 33.109375 6.203125 
Q 38.234375 6.203125 40.578125 10.25 
Q 42.921875 14.3125 42.921875 23.390625 
z
" id="DejaVuSerif-Bold-103"/>
        <path d="M 3.421875 0 
L 3.421875 5.90625 
L 10.796875 5.90625 
L 10.796875 70.125 
L 3.078125 70.125 
L 3.078125 75.984375 
L 28.078125 75.984375 
L 28.078125 44.578125 
Q 31.203125 49.21875 35.203125 51.265625 
Q 39.203125 53.328125 45.3125 53.328125 
Q 54.046875 53.328125 58.515625 48.171875 
Q 62.984375 43.015625 62.984375 33.015625 
L 62.984375 5.90625 
L 70.40625 5.90625 
L 70.40625 0 
L 39.40625 0 
L 39.40625 5.90625 
L 45.703125 5.90625 
L 45.703125 33.5 
Q 45.703125 40.09375 44.015625 42.65625 
Q 42.328125 45.21875 38.1875 45.21875 
Q 32.953125 45.21875 30.515625 41.375 
Q 28.078125 37.546875 28.078125 29.203125 
L 28.078125 5.90625 
L 34.421875 5.90625 
L 34.421875 0 
z
" id="DejaVuSerif-Bold-104"/>
       </defs>
       <use xlink:href="#DejaVuSerif-Bold-72"/>
       <use x="94.482422" xlink:href="#DejaVuSerif-Bold-105"/>
       <use x="132.470703" xlink:href="#DejaVuSerif-Bold-103"/>
       <use x="202.392578" xlink:href="#DejaVuSerif-Bold-104"/>
      </g>
     </g>
    </g>
    <g id="ytick_4">
     <g id="text_4">
      <!-- Very High -->
      <g style="opacity:0.5;" transform="translate(39.879866 86.605781)scale(0.14 -0.14)">
       <defs>
        <path d="M 79 72.90625 
L 79 67 
L 72.90625 67 
L 45.40625 0 
L 33.796875 0 
L 6.296875 67 
L -0.59375 67 
L -0.59375 72.90625 
L 33.59375 72.90625 
L 33.59375 67 
L 26.515625 67 
L 46.1875 18.703125 
L 66.015625 67 
L 57.328125 67 
L 57.328125 72.90625 
z
" id="DejaVuSerif-Bold-86"/>
        <path d="M 40.09375 29.296875 
Q 40.09375 39.546875 38.1875 43.671875 
Q 36.28125 47.796875 31.6875 47.796875 
Q 27.25 47.796875 25.3125 43.75 
Q 23.390625 39.703125 23.390625 30.171875 
L 23.390625 29.296875 
z
M 59.078125 23.484375 
L 23.390625 23.484375 
L 23.390625 23.09375 
Q 23.390625 13.03125 26.40625 8.5625 
Q 29.4375 4.109375 36.1875 4.109375 
Q 41.796875 4.109375 45.265625 7.078125 
Q 48.734375 10.0625 49.703125 15.71875 
L 57.8125 15.71875 
Q 55.71875 6.890625 49.46875 2.734375 
Q 43.21875 -1.421875 31.984375 -1.421875 
Q 18.5 -1.421875 11.296875 5.6875 
Q 4.109375 12.796875 4.109375 25.984375 
Q 4.109375 38.875 11.46875 46.09375 
Q 18.84375 53.328125 31.984375 53.328125 
Q 44.875 53.328125 51.75 45.734375 
Q 58.640625 38.140625 59.078125 23.484375 
z
" id="DejaVuSerif-Bold-101"/>
        <path d="M 31.203125 -11.71875 
Q 28.859375 -17.4375 25.53125 -19.828125 
Q 22.21875 -22.21875 16.609375 -22.21875 
Q 14.203125 -22.21875 11.265625 -21.671875 
Q 8.34375 -21.140625 4.890625 -20.125 
L 4.890625 -9.28125 
L 10.40625 -9.328125 
Q 10.546875 -13.09375 12.171875 -14.890625 
Q 13.8125 -16.703125 17.09375 -16.703125 
Q 20.265625 -16.703125 22.21875 -14.96875 
Q 24.171875 -13.234375 26.125 -8.40625 
L 26.90625 -6.59375 
L 4.296875 46 
L -1.3125 46 
L -1.3125 51.90625 
L 28.609375 51.90625 
L 28.609375 46 
L 22.40625 46 
L 35.59375 15.28125 
L 47.90625 46 
L 41.015625 46 
L 41.015625 51.90625 
L 60.5 51.90625 
L 60.5 46 
L 54.203125 46 
z
" id="DejaVuSerif-Bold-121"/>
        <path id="DejaVuSerif-Bold-32"/>
       </defs>
       <use xlink:href="#DejaVuSerif-Bold-86"/>
       <use x="68.462891" xlink:href="#DejaVuSerif-Bold-101"/>
       <use x="132.085938" xlink:href="#DejaVuSerif-Bold-114"/>
       <use x="184.771484" xlink:href="#DejaVuSerif-Bold-121"/>
       <use x="242.876953" xlink:href="#DejaVuSerif-Bold-32"/>
       <use x="277.691406" xlink:href="#DejaVuSerif-Bold-72"/>
       <use x="372.173828" xlink:href="#DejaVuSerif-Bold-105"/>
       <use x="410.162109" xlink:href="#DejaVuSerif-Bold-103"/>
       <use x="480.083984" xlink:href="#DejaVuSerif-Bold-104"/>
      </g>
     </g>
    </g>
   </g>
   <g id="PathCollection_1">
    <path clip-path="url(#pe75b3e4f9b)" d="M 267.626571 221.903866 
C 268.877532 221.903866 270.077425 221.406854 270.961987 220.522291 
C 271.84655 219.637728 272.343562 218.437836 272.343562 217.186875 
C 272.343562 215.935914 271.84655 214.736022 270.961987 213.851459 
C 270.077425 212.966896 268.877532 212.469884 267.626571 212.469884 
C 266.375611 212.469884 265.175718 212.966896 264.291155 213.851459 
C 263.406593 214.736022 262.909581 215.935914 262.909581 217.186875 
C 262.909581 218.437836 263.406593 219.637728 264.291155 220.522291 
C 265.175718 221.406854 266.375611 221.903866 267.626571 221.903866 
z
" style="fill:#e37678;stroke:#ffffff;stroke-width:0.46579;"/>
    <path clip-path="url(#pe75b3e4f9b)" d="M 263.322 176.09995 
C 264.439321 176.09995 265.511029 175.656034 266.301094 174.865969 
C 267.091159 174.075904 267.535075 173.004196 267.535075 171.886875 
C 267.535075 170.769554 267.091159 169.697846 266.301094 168.907781 
C 265.511029 168.117716 264.439321 167.6738 263.322 167.6738 
C 262.204679 167.6738 261.132971 168.117716 260.342906 168.907781 
C 259.552841 169.697846 259.108925 170.769554 259.108925 171.886875 
C 259.108925 173.004196 259.552841 174.075904 260.342906 174.865969 
C 261.132971 175.656034 262.204679 176.09995 263.322 176.09995 
z
" style="fill:#e37678;stroke:#ffffff;stroke-width:0.46579;"/>
    <path clip-path="url(#pe75b3e4f9b)" d="M 263.322 130.79995 
C 264.439321 130.79995 265.511029 130.356034 266.301094 129.565969 
C 267.091159 128.775904 267.535075 127.704196 267.535075 126.586875 
C 267.535075 125.469554 267.091159 124.397846 266.301094 123.607781 
C 265.511029 122.817716 264.439321 122.3738 263.322 122.3738 
C 262.204679 122.3738 261.132971 122.817716 260.342906 123.607781 
C 259.552841 124.397846 259.108925 125.469554 259.108925 126.586875 
C 259.108925 127.704196 259.552841 128.775904 260.342906 129.565969 
C 261.132971 130.356034 262.204679 130.79995 263.322 130.79995 
z
" style="fill:#e37678;stroke:#ffffff;stroke-width:0.46579;"/>
    <path clip-path="url(#pe75b3e4f9b)" d="M 250.647429 83.408195 
C 251.210009 83.408195 251.749624 83.18468 252.147429 82.786875 
C 252.545233 82.38907 252.768749 81.849456 252.768749 81.286875 
C 252.768749 80.724294 252.545233 80.18468 252.147429 79.786875 
C 251.749624 79.38907 251.210009 79.165555 250.647429 79.165555 
C 250.084848 79.165555 249.545233 79.38907 249.147429 79.786875 
C 248.749624 80.18468 248.526108 80.724294 248.526108 81.286875 
C 248.526108 81.849456 248.749624 82.38907 249.147429 82.786875 
C 249.545233 83.18468 250.084848 83.408195 250.647429 83.408195 
z
" style="fill:#e37678;stroke:#ffffff;stroke-width:0.46579;"/>
   </g>
   <g id="PathCollection_2">
    <path clip-path="url(#pe75b3e4f9b)" d="M 800.197714 241.249294 
C 806.579142 241.249294 812.700063 238.713926 817.212414 234.201575 
C 821.724765 229.689223 824.260133 223.568303 824.260133 217.186875 
C 824.260133 210.805447 821.724765 204.684527 817.212414 200.172175 
C 812.700063 195.659824 806.579142 193.124456 800.197714 193.124456 
C 793.816286 193.124456 787.695366 195.659824 783.183015 200.172175 
C 778.670664 204.684527 776.135295 210.805447 776.135295 217.186875 
C 776.135295 223.568303 778.670664 229.689223 783.183015 234.201575 
C 787.695366 238.713926 793.816286 241.249294 800.197714 241.249294 
z
" style="fill:#8bcbe8;stroke:#ffffff;stroke-width:1.170573;"/>
    <path clip-path="url(#pe75b3e4f9b)" d="M 716.258571 194.051035 
C 722.136575 194.051035 727.774623 191.71568 731.930999 187.559303 
C 736.087376 183.402927 738.422732 177.764879 738.422732 171.886875 
C 738.422732 166.008871 736.087376 160.370823 731.930999 156.214447 
C 727.774623 152.05807 722.136575 149.722715 716.258571 149.722715 
C 710.380567 149.722715 704.74252 152.05807 700.586143 156.214447 
C 696.429767 160.370823 694.094411 166.008871 694.094411 171.886875 
C 694.094411 177.764879 696.429767 183.402927 700.586143 187.559303 
C 704.74252 191.71568 710.380567 194.051035 716.258571 194.051035 
z
" style="fill:#8bcbe8;stroke:#ffffff;stroke-width:1.170573;"/>
    <path clip-path="url(#pe75b3e4f9b)" d="M 360.653143 137.518481 
C 363.552239 137.518481 366.332985 136.366658 368.382955 134.316687 
C 370.432925 132.266717 371.584748 129.485971 371.584748 126.586875 
C 371.584748 123.687779 370.432925 120.907033 368.382955 118.857063 
C 366.332985 116.807092 363.552239 115.655269 360.653143 115.655269 
C 357.754047 115.655269 354.973301 116.807092 352.92333 118.857063 
C 350.87336 120.907033 349.721537 123.687779 349.721537 126.586875 
C 349.721537 129.485971 350.87336 132.266717 352.92333 134.316687 
C 354.973301 136.366658 357.754047 137.518481 360.653143 137.518481 
z
" style="fill:#8bcbe8;stroke:#ffffff;stroke-width:1.170573;"/>
    <path clip-path="url(#pe75b3e4f9b)" d="M 270.496286 86.311813 
C 271.828915 86.311813 273.107142 85.782354 274.049453 84.840043 
C 274.991764 83.897732 275.521224 82.619504 275.521224 81.286875 
C 275.521224 79.954246 274.991764 78.676018 274.049453 77.733707 
C 273.107142 76.791396 271.828915 76.261937 270.496286 76.261937 
C 269.163657 76.261937 267.885429 76.791396 266.943118 77.733707 
C 266.000807 78.676018 265.471348 79.954246 265.471348 81.286875 
C 265.471348 82.619504 266.000807 83.897732 266.943118 84.840043 
C 267.885429 85.782354 269.163657 86.311813 270.496286 86.311813 
z
" style="fill:#8bcbe8;stroke:#ffffff;stroke-width:1.170573;"/>
   </g>
   <g id="LineCollection_1">
    <path clip-path="url(#pe75b3e4f9b)" d="M 800.197714 217.186875 
L 267.626571 217.186875 
" style="fill:none;stroke:#808080;stroke-width:0.5;"/>
    <path clip-path="url(#pe75b3e4f9b)" d="M 716.497714 171.886875 
L 263.322 171.886875 
" style="fill:none;stroke:#808080;stroke-width:0.5;"/>
    <path clip-path="url(#pe75b3e4f9b)" d="M 360.653143 126.586875 
L 263.322 126.586875 
" style="fill:none;stroke:#808080;stroke-width:0.5;"/>
    <path clip-path="url(#pe75b3e4f9b)" d="M 270.496286 81.286875 
L 250.647429 81.286875 
" style="fill:none;stroke:#808080;stroke-width:0.5;"/>
   </g>
   <g id="text_5">
    <!-- Glucose level VS Strokes -->
    <g transform="translate(7.2 22.396875)scale(0.2 -0.2)">
     <defs>
      <path d="M 64.015625 51.125 
Q 62.3125 60.25 56.890625 64.625 
Q 51.46875 69 41.796875 69 
Q 29.203125 69 23 60.890625 
Q 16.796875 52.78125 16.796875 36.375 
Q 16.796875 20.3125 23.1875 12.0625 
Q 29.59375 3.8125 42 3.8125 
Q 47.515625 3.8125 52.53125 5.171875 
Q 57.5625 6.546875 62.109375 9.28125 
L 62.109375 28.078125 
L 48.390625 28.078125 
L 48.390625 33.296875 
L 72.015625 33.296875 
L 72.015625 6.109375 
Q 65.53125 2.34375 58.03125 0.453125 
Q 50.53125 -1.421875 42 -1.421875 
Q 25.484375 -1.421875 15.546875 8.90625 
Q 5.609375 19.234375 5.609375 36.375 
Q 5.609375 53.65625 15.5625 63.9375 
Q 25.53125 74.21875 42.390625 74.21875 
Q 48.640625 74.21875 55.296875 72.78125 
Q 61.96875 71.34375 69.484375 68.40625 
L 69.484375 51.125 
z
" id="DejaVuSerif-71"/>
      <path d="M 20.515625 5.171875 
L 29 5.171875 
L 29 0 
L 2.875 0 
L 2.875 5.171875 
L 11.53125 5.171875 
L 11.53125 70.796875 
L 2.875 70.796875 
L 2.875 75.984375 
L 20.515625 75.984375 
z
" id="DejaVuSerif-108"/>
      <path d="M 35.40625 51.90625 
L 52.203125 51.90625 
L 52.203125 5.171875 
L 60.6875 5.171875 
L 60.6875 0 
L 43.21875 0 
L 43.21875 9.1875 
Q 40.71875 4 36.765625 1.28125 
Q 32.8125 -1.421875 27.59375 -1.421875 
Q 18.953125 -1.421875 14.875 3.484375 
Q 10.796875 8.40625 10.796875 18.890625 
L 10.796875 46.6875 
L 2.6875 46.6875 
L 2.6875 51.90625 
L 19.828125 51.90625 
L 19.828125 21.6875 
Q 19.828125 12.203125 22.140625 8.6875 
Q 24.46875 5.171875 30.421875 5.171875 
Q 36.671875 5.171875 39.9375 9.765625 
Q 43.21875 14.359375 43.21875 23.09375 
L 43.21875 46.6875 
L 35.40625 46.6875 
z
" id="DejaVuSerif-117"/>
      <path d="M 51.421875 15.578125 
Q 49.515625 7.28125 44.09375 2.921875 
Q 38.671875 -1.421875 30.078125 -1.421875 
Q 18.75 -1.421875 11.859375 6.078125 
Q 4.984375 13.578125 4.984375 25.984375 
Q 4.984375 38.421875 11.859375 45.875 
Q 18.75 53.328125 30.078125 53.328125 
Q 35.015625 53.328125 39.890625 52.171875 
Q 44.78125 51.03125 49.703125 48.6875 
L 49.703125 35.40625 
L 44.484375 35.40625 
Q 43.453125 42.234375 40.015625 45.359375 
Q 36.578125 48.484375 30.171875 48.484375 
Q 22.90625 48.484375 19.1875 42.84375 
Q 15.484375 37.203125 15.484375 25.984375 
Q 15.484375 14.75 19.171875 9.078125 
Q 22.859375 3.421875 30.171875 3.421875 
Q 35.984375 3.421875 39.453125 6.4375 
Q 42.921875 9.46875 44.1875 15.578125 
z
" id="DejaVuSerif-99"/>
      <path d="M 30.078125 3.421875 
Q 37.3125 3.421875 40.984375 9.125 
Q 44.671875 14.84375 44.671875 25.984375 
Q 44.671875 37.109375 40.984375 42.796875 
Q 37.3125 48.484375 30.078125 48.484375 
Q 22.859375 48.484375 19.171875 42.796875 
Q 15.484375 37.109375 15.484375 25.984375 
Q 15.484375 14.84375 19.1875 9.125 
Q 22.90625 3.421875 30.078125 3.421875 
z
M 30.078125 -1.421875 
Q 18.75 -1.421875 11.859375 6.078125 
Q 4.984375 13.578125 4.984375 25.984375 
Q 4.984375 38.375 11.84375 45.84375 
Q 18.703125 53.328125 30.078125 53.328125 
Q 41.453125 53.328125 48.3125 45.84375 
Q 55.171875 38.375 55.171875 25.984375 
Q 55.171875 13.578125 48.3125 6.078125 
Q 41.453125 -1.421875 30.078125 -1.421875 
z
" id="DejaVuSerif-111"/>
      <path d="M 5.609375 2.875 
L 5.609375 14.984375 
L 10.796875 14.984375 
Q 10.984375 9.1875 14.421875 6.296875 
Q 17.875 3.421875 24.609375 3.421875 
Q 30.671875 3.421875 33.84375 5.6875 
Q 37.015625 7.953125 37.015625 12.3125 
Q 37.015625 15.71875 34.6875 17.8125 
Q 32.375 19.921875 24.90625 22.3125 
L 18.40625 24.515625 
Q 11.71875 26.65625 8.71875 29.875 
Q 5.71875 33.109375 5.71875 38.09375 
Q 5.71875 45.21875 10.9375 49.265625 
Q 16.15625 53.328125 25.390625 53.328125 
Q 29.5 53.328125 34.03125 52.25 
Q 38.578125 51.171875 43.40625 49.125 
L 43.40625 37.796875 
L 38.234375 37.796875 
Q 38.03125 42.828125 34.703125 45.65625 
Q 31.390625 48.484375 25.6875 48.484375 
Q 20.015625 48.484375 17.109375 46.484375 
Q 14.203125 44.484375 14.203125 40.484375 
Q 14.203125 37.203125 16.40625 35.21875 
Q 18.609375 33.25 25.203125 31.203125 
L 32.328125 29 
Q 39.703125 26.703125 42.9375 23.265625 
Q 46.1875 19.828125 46.1875 14.40625 
Q 46.1875 7.03125 40.546875 2.796875 
Q 34.90625 -1.421875 25 -1.421875 
Q 19.96875 -1.421875 15.1875 -0.34375 
Q 10.40625 0.734375 5.609375 2.875 
z
" id="DejaVuSerif-115"/>
      <path d="M 54.203125 25 
L 15.484375 25 
L 15.484375 24.609375 
Q 15.484375 14.109375 19.4375 8.765625 
Q 23.390625 3.421875 31.109375 3.421875 
Q 37.015625 3.421875 40.796875 6.515625 
Q 44.578125 9.625 46.09375 15.71875 
L 53.328125 15.71875 
Q 51.171875 7.171875 45.375 2.875 
Q 39.59375 -1.421875 30.171875 -1.421875 
Q 18.796875 -1.421875 11.890625 6.078125 
Q 4.984375 13.578125 4.984375 25.984375 
Q 4.984375 38.28125 11.765625 45.796875 
Q 18.5625 53.328125 29.59375 53.328125 
Q 41.359375 53.328125 47.65625 46.0625 
Q 53.953125 38.8125 54.203125 25 
z
M 43.609375 30.171875 
Q 43.3125 39.265625 39.765625 43.875 
Q 36.234375 48.484375 29.59375 48.484375 
Q 23.390625 48.484375 19.828125 43.84375 
Q 16.265625 39.203125 15.484375 30.171875 
z
" id="DejaVuSerif-101"/>
      <path id="DejaVuSerif-32"/>
      <path d="M 24.703125 0 
L 5.609375 46.6875 
L -0.296875 46.6875 
L -0.296875 51.90625 
L 23.578125 51.90625 
L 23.578125 46.6875 
L 15.28125 46.6875 
L 29.890625 10.984375 
L 44.484375 46.6875 
L 36.71875 46.6875 
L 36.71875 51.90625 
L 56.203125 51.90625 
L 56.203125 46.6875 
L 50.390625 46.6875 
L 31.296875 0 
z
" id="DejaVuSerif-118"/>
      <path d="M 17.484375 67.671875 
L 39.015625 11.71875 
L 60.5 67.671875 
L 52.296875 67.671875 
L 52.296875 72.90625 
L 73.6875 72.90625 
L 73.6875 67.671875 
L 66.609375 67.671875 
L 40.578125 0 
L 32.171875 0 
L 6.296875 67.671875 
L -0.984375 67.671875 
L -0.984375 72.90625 
L 25.59375 72.90625 
L 25.59375 67.671875 
z
" id="DejaVuSerif-86"/>
      <path d="M 9.28125 3.515625 
L 9.28125 20.125 
L 14.890625 20.0625 
Q 15.140625 11.765625 19.703125 7.78125 
Q 24.265625 3.8125 33.59375 3.8125 
Q 42.28125 3.8125 46.84375 7.25 
Q 51.421875 10.6875 51.421875 17.28125 
Q 51.421875 22.5625 48.65625 25.390625 
Q 45.90625 28.21875 37.015625 30.90625 
L 27.390625 33.796875 
Q 16.9375 36.96875 12.671875 41.703125 
Q 8.40625 46.4375 8.40625 54.6875 
Q 8.40625 63.96875 14.984375 69.09375 
Q 21.578125 74.21875 33.5 74.21875 
Q 38.578125 74.21875 44.625 73.109375 
Q 50.6875 72.015625 57.515625 69.921875 
L 57.515625 54.390625 
L 52 54.390625 
Q 51.171875 62.109375 46.84375 65.546875 
Q 42.53125 69 33.6875 69 
Q 25.984375 69 21.953125 65.84375 
Q 17.921875 62.703125 17.921875 56.6875 
Q 17.921875 51.46875 20.9375 48.484375 
Q 23.96875 45.515625 33.796875 42.578125 
L 42.828125 39.890625 
Q 52.734375 36.921875 56.953125 32.296875 
Q 61.1875 27.6875 61.1875 19.921875 
Q 61.1875 9.328125 54.390625 3.953125 
Q 47.609375 -1.421875 34.1875 -1.421875 
Q 28.171875 -1.421875 21.9375 -0.1875 
Q 15.71875 1.03125 9.28125 3.515625 
z
" id="DejaVuSerif-83"/>
      <path d="M 10.796875 46.6875 
L 2.875 46.6875 
L 2.875 51.90625 
L 10.796875 51.90625 
L 10.796875 68.015625 
L 19.828125 68.015625 
L 19.828125 51.90625 
L 36.71875 51.90625 
L 36.71875 46.6875 
L 19.828125 46.6875 
L 19.828125 13.71875 
Q 19.828125 7.125 21.09375 5.265625 
Q 22.359375 3.421875 25.78125 3.421875 
Q 29.296875 3.421875 30.90625 5.484375 
Q 32.515625 7.5625 32.625 12.203125 
L 39.40625 12.203125 
Q 39.015625 5.125 35.546875 1.84375 
Q 32.078125 -1.421875 25 -1.421875 
Q 17.234375 -1.421875 14.015625 2.015625 
Q 10.796875 5.46875 10.796875 13.71875 
z
" id="DejaVuSerif-116"/>
      <path d="M 47.796875 52 
L 47.796875 39.015625 
L 42.625 39.015625 
Q 42.390625 42.875 40.484375 44.78125 
Q 38.578125 46.6875 34.90625 46.6875 
Q 28.265625 46.6875 24.71875 42.09375 
Q 21.1875 37.5 21.1875 28.90625 
L 21.1875 5.171875 
L 31.59375 5.171875 
L 31.59375 0 
L 4.109375 0 
L 4.109375 5.171875 
L 12.203125 5.171875 
L 12.203125 46.78125 
L 3.609375 46.78125 
L 3.609375 51.90625 
L 21.1875 51.90625 
L 21.1875 42.671875 
Q 23.828125 48.09375 27.96875 50.703125 
Q 32.125 53.328125 38.09375 53.328125 
Q 40.28125 53.328125 42.703125 52.984375 
Q 45.125 52.640625 47.796875 52 
z
" id="DejaVuSerif-114"/>
      <path d="M 28.609375 0 
L 3.421875 0 
L 3.421875 5.171875 
L 11.53125 5.171875 
L 11.53125 70.796875 
L 2.875 70.796875 
L 2.875 75.984375 
L 20.515625 75.984375 
L 20.515625 26.515625 
L 42.390625 46.6875 
L 34.90625 46.6875 
L 34.90625 51.90625 
L 58.40625 51.90625 
L 58.40625 46.6875 
L 49.515625 46.6875 
L 34.078125 32.421875 
L 53.8125 5.171875 
L 61.28125 5.171875 
L 61.28125 0 
L 35.6875 0 
L 35.6875 5.171875 
L 43.109375 5.171875 
L 27.59375 26.515625 
L 20.515625 19.921875 
L 20.515625 5.171875 
L 28.609375 5.171875 
z
" id="DejaVuSerif-107"/>
     </defs>
     <use xlink:href="#DejaVuSerif-71"/>
     <use x="79.882812" xlink:href="#DejaVuSerif-108"/>
     <use x="111.865234" xlink:href="#DejaVuSerif-117"/>
     <use x="176.269531" xlink:href="#DejaVuSerif-99"/>
     <use x="232.275391" xlink:href="#DejaVuSerif-111"/>
     <use x="292.480469" xlink:href="#DejaVuSerif-115"/>
     <use x="343.798828" xlink:href="#DejaVuSerif-101"/>
     <use x="402.978516" xlink:href="#DejaVuSerif-32"/>
     <use x="434.765625" xlink:href="#DejaVuSerif-108"/>
     <use x="466.748047" xlink:href="#DejaVuSerif-101"/>
     <use x="525.927734" xlink:href="#DejaVuSerif-118"/>
     <use x="582.421875" xlink:href="#DejaVuSerif-101"/>
     <use x="641.601562" xlink:href="#DejaVuSerif-108"/>
     <use x="673.583984" xlink:href="#DejaVuSerif-32"/>
     <use x="705.371094" xlink:href="#DejaVuSerif-86"/>
     <use x="777.587891" xlink:href="#DejaVuSerif-83"/>
     <use x="846.09375" xlink:href="#DejaVuSerif-32"/>
     <use x="877.880859" xlink:href="#DejaVuSerif-83"/>
     <use x="946.386719" xlink:href="#DejaVuSerif-116"/>
     <use x="986.572266" xlink:href="#DejaVuSerif-114"/>
     <use x="1034.375" xlink:href="#DejaVuSerif-111"/>
     <use x="1094.580078" xlink:href="#DejaVuSerif-107"/>
     <use x="1155.175781" xlink:href="#DejaVuSerif-101"/>
     <use x="1214.355469" xlink:href="#DejaVuSerif-115"/>
    </g>
   </g>
   <g id="text_6">
    <!-- Stroke  -->
    <g style="fill:#e37678;" transform="translate(676.8 58.636875)scale(0.16 -0.16)">
     <defs>
      <path d="M 7.71875 3.515625 
L 7.71875 20.796875 
L 13.921875 20.796875 
Q 15.328125 12.59375 20.59375 8.546875 
Q 25.875 4.5 35.203125 4.5 
Q 42.78125 4.5 46.734375 7.375 
Q 50.6875 10.25 50.6875 15.828125 
Q 50.6875 20.21875 48 22.65625 
Q 45.3125 25.09375 36.921875 27.203125 
L 25.984375 29.890625 
Q 15.28125 32.625 10.9375 37.46875 
Q 6.59375 42.328125 6.59375 51.3125 
Q 6.59375 62.15625 13.796875 68.1875 
Q 21 74.21875 33.984375 74.21875 
Q 40.375 74.21875 47.28125 73.140625 
Q 54.203125 72.078125 61.625 69.921875 
L 61.625 53.8125 
L 55.421875 53.8125 
Q 54 61.328125 49.21875 64.8125 
Q 44.4375 68.3125 35.59375 68.3125 
Q 28.375 68.3125 24.6875 65.796875 
Q 21 63.28125 21 58.296875 
Q 21 53.765625 23.53125 51.390625 
Q 26.078125 49.03125 35.984375 46.484375 
L 46.921875 43.796875 
Q 57.078125 41.265625 61.640625 35.890625 
Q 66.21875 30.515625 66.21875 21.09375 
Q 66.21875 10.0625 58.59375 4.3125 
Q 50.984375 -1.421875 36.1875 -1.421875 
Q 29.046875 -1.421875 22.015625 -0.1875 
Q 14.984375 1.03125 7.71875 3.515625 
z
" id="DejaVuSerif-Bold-83"/>
      <path d="M 9.90625 46 
L 2.390625 46 
L 2.390625 51.90625 
L 9.90625 51.90625 
L 9.90625 68.015625 
L 27.203125 68.015625 
L 27.203125 51.90625 
L 41.609375 51.90625 
L 41.609375 46 
L 27.203125 46 
L 27.203125 14.203125 
Q 27.203125 7.421875 28.265625 5.765625 
Q 29.34375 4.109375 32.171875 4.109375 
Q 35.296875 4.109375 36.8125 6.203125 
Q 38.328125 8.296875 38.421875 12.703125 
L 45.703125 12.703125 
Q 45.265625 4.890625 41.421875 1.734375 
Q 37.59375 -1.421875 28.21875 -1.421875 
Q 17.53125 -1.421875 13.71875 1.921875 
Q 9.90625 5.28125 9.90625 14.203125 
z
" id="DejaVuSerif-Bold-116"/>
      <path d="M 34.625 0 
L 3.421875 0 
L 3.421875 5.90625 
L 10.796875 5.90625 
L 10.796875 70.125 
L 3.421875 70.125 
L 3.421875 75.984375 
L 28.078125 75.984375 
L 28.078125 27.203125 
L 49.03125 46 
L 42.828125 46 
L 42.828125 51.90625 
L 66.5 51.90625 
L 66.5 46 
L 56.890625 46 
L 43.5 33.984375 
L 65.375 5.90625 
L 71 5.90625 
L 71 0 
L 41.21875 0 
L 41.21875 5.90625 
L 47.3125 5.90625 
L 32.90625 24.421875 
L 28.078125 20.125 
L 28.078125 5.90625 
L 34.625 5.90625 
z
" id="DejaVuSerif-Bold-107"/>
     </defs>
     <use xlink:href="#DejaVuSerif-Bold-83"/>
     <use x="72.216797" xlink:href="#DejaVuSerif-Bold-116"/>
     <use x="118.408203" xlink:href="#DejaVuSerif-Bold-114"/>
     <use x="171.09375" xlink:href="#DejaVuSerif-Bold-111"/>
     <use x="237.792969" xlink:href="#DejaVuSerif-Bold-107"/>
     <use x="307.080078" xlink:href="#DejaVuSerif-Bold-101"/>
     <use x="370.703125" xlink:href="#DejaVuSerif-Bold-32"/>
    </g>
   </g>
   <g id="text_7">
    <!-- | -->
    <g transform="translate(736.824857 58.636875)scale(0.16 -0.16)">
     <defs>
      <path d="M 8.59375 -21.046875 
L 8.59375 72.796875 
L 19.484375 72.796875 
L 19.484375 -21.046875 
z
" id="Arial-BoldMT-124"/>
     </defs>
     <use xlink:href="#Arial-BoldMT-124"/>
    </g>
   </g>
   <g id="text_8">
    <!-- Healthy -->
    <g style="fill:#8bcbe8;" transform="translate(745.912286 58.636875)scale(0.16 -0.16)">
     <use xlink:href="#DejaVuSerif-Bold-72"/>
     <use x="94.482422" xlink:href="#DejaVuSerif-Bold-101"/>
     <use x="158.105469" xlink:href="#DejaVuSerif-Bold-97"/>
     <use x="222.900391" xlink:href="#DejaVuSerif-Bold-108"/>
     <use x="260.888672" xlink:href="#DejaVuSerif-Bold-116"/>
     <use x="307.080078" xlink:href="#DejaVuSerif-Bold-104"/>
     <use x="379.785156" xlink:href="#DejaVuSerif-Bold-121"/>
    </g>
   </g>
   <g id="text_9">
    <!-- 89 -->
    <g style="fill:#e37678;" transform="translate(274.800857 214.921875)scale(0.14 -0.14)">
     <defs>
      <path d="M 46.484375 38.8125 
Q 55.171875 37.40625 59.6875 32.421875 
Q 64.203125 27.4375 64.203125 19.390625 
Q 64.203125 9.328125 56.609375 3.953125 
Q 49.03125 -1.421875 34.71875 -1.421875 
Q 20.40625 -1.421875 12.78125 3.953125 
Q 5.171875 9.328125 5.171875 19.390625 
Q 5.171875 27.4375 9.71875 32.421875 
Q 14.265625 37.40625 22.90625 38.8125 
Q 15.234375 40.578125 11.421875 44.703125 
Q 7.625 48.828125 7.625 55.171875 
Q 7.625 64.453125 14.546875 69.328125 
Q 21.484375 74.21875 34.71875 74.21875 
Q 47.90625 74.21875 54.859375 69.328125 
Q 61.8125 64.453125 61.8125 55.171875 
Q 61.8125 48.828125 57.984375 44.703125 
Q 54.15625 40.578125 46.484375 38.8125 
z
M 42.921875 54.984375 
Q 42.921875 62.703125 41.0625 65.59375 
Q 39.203125 68.5 34.71875 68.5 
Q 30.171875 68.5 28.34375 65.59375 
Q 26.515625 62.703125 26.515625 54.984375 
Q 26.515625 47.3125 28.34375 44.453125 
Q 30.171875 41.609375 34.71875 41.609375 
Q 39.265625 41.609375 41.09375 44.453125 
Q 42.921875 47.3125 42.921875 54.984375 
z
M 44.828125 20.21875 
Q 44.828125 29.15625 42.546875 32.515625 
Q 40.28125 35.890625 34.71875 35.890625 
Q 29.109375 35.890625 26.859375 32.515625 
Q 24.609375 29.15625 24.609375 20.21875 
Q 24.609375 11.1875 26.875 7.734375 
Q 29.15625 4.296875 34.71875 4.296875 
Q 40.234375 4.296875 42.53125 7.734375 
Q 44.828125 11.1875 44.828125 20.21875 
z
" id="DejaVuSerif-Bold-56"/>
      <path d="M 34.078125 68.5 
Q 29.046875 68.5 26.921875 64.234375 
Q 24.8125 59.96875 24.8125 49.421875 
Q 24.8125 38.875 26.921875 34.59375 
Q 29.046875 30.328125 34.078125 30.328125 
Q 39.109375 30.328125 41.25 34.59375 
Q 43.40625 38.875 43.40625 49.421875 
Q 43.40625 59.96875 41.25 64.234375 
Q 39.109375 68.5 34.078125 68.5 
z
M 44.96875 29.6875 
Q 41.75 27.09375 37.8125 25.796875 
Q 33.890625 24.515625 29.296875 24.515625 
Q 18.171875 24.515625 11.796875 31.03125 
Q 5.421875 37.546875 5.421875 49.03125 
Q 5.421875 61.140625 12.546875 67.671875 
Q 19.671875 74.21875 32.90625 74.21875 
Q 47.859375 74.21875 55.5625 65.1875 
Q 63.28125 56.15625 63.28125 38.71875 
Q 63.28125 18.84375 54.734375 8.703125 
Q 46.1875 -1.421875 29.390625 -1.421875 
Q 25 -1.421875 19.96875 -0.6875 
Q 14.9375 0.046875 9.1875 1.515625 
L 9.1875 14.40625 
L 15.09375 14.40625 
Q 16.3125 9.421875 19.703125 6.859375 
Q 23.09375 4.296875 28.515625 4.296875 
Q 37.109375 4.296875 41.015625 10.28125 
Q 44.921875 16.265625 44.96875 29.6875 
z
" id="DejaVuSerif-Bold-57"/>
     </defs>
     <use xlink:href="#DejaVuSerif-Bold-56"/>
     <use x="69.580078" xlink:href="#DejaVuSerif-Bold-57"/>
    </g>
   </g>
   <g id="text_10">
    <!-- 2316 -->
    <g style="fill:#8bcbe8;" transform="translate(668.669143 214.921875)scale(0.14 -0.14)">
     <defs>
      <path d="M 13.1875 54.890625 
L 7.328125 54.890625 
L 7.328125 70.609375 
Q 13.28125 72.40625 19.109375 73.3125 
Q 24.953125 74.21875 30.90625 74.21875 
Q 44.828125 74.21875 52.609375 68.53125 
Q 60.40625 62.84375 60.40625 52.6875 
Q 60.40625 45.453125 56.109375 39.71875 
Q 51.8125 33.984375 39.703125 26.125 
L 19.390625 12.796875 
L 53.90625 12.796875 
L 53.90625 21.390625 
L 60.59375 21.390625 
L 60.59375 0 
L 6.6875 0 
L 6.6875 11.921875 
L 17.484375 19.390625 
Q 31.296875 28.90625 35.890625 35.59375 
Q 40.484375 42.28125 40.484375 51.21875 
Q 40.484375 59.671875 36.984375 64.078125 
Q 33.5 68.5 26.8125 68.5 
Q 21.046875 68.5 17.578125 65.015625 
Q 14.109375 61.53125 13.1875 54.890625 
z
" id="DejaVuSerif-Bold-50"/>
      <path d="M 8.59375 70.796875 
Q 15.046875 72.515625 21.09375 73.359375 
Q 27.15625 74.21875 32.90625 74.21875 
Q 46.09375 74.21875 53.140625 69.5 
Q 60.203125 64.796875 60.203125 56 
Q 60.203125 49.421875 56.140625 45.3125 
Q 52.09375 41.21875 44.28125 39.796875 
Q 53.8125 38.28125 58.5 33.296875 
Q 63.1875 28.328125 63.1875 19.671875 
Q 63.1875 9.46875 55.09375 4.015625 
Q 47.015625 -1.421875 31.6875 -1.421875 
Q 25.921875 -1.421875 19.796875 -0.4375 
Q 13.671875 0.53125 6.984375 2.484375 
L 6.984375 18.5 
L 12.890625 18.5 
Q 13.421875 11.578125 17.234375 7.9375 
Q 21.046875 4.296875 27.78125 4.296875 
Q 35.203125 4.296875 39.25 8.421875 
Q 43.3125 12.546875 43.3125 20.125 
Q 43.3125 28.03125 39.078125 32.328125 
Q 34.859375 36.625 27.09375 36.625 
L 23.875 36.625 
L 23.875 42.484375 
L 26.421875 42.484375 
Q 33.59375 42.484375 37.203125 45.796875 
Q 40.828125 49.125 40.828125 55.71875 
Q 40.828125 61.921875 37.421875 65.203125 
Q 34.03125 68.5 27.6875 68.5 
Q 21.921875 68.5 18.546875 65.34375 
Q 15.1875 62.203125 14.5 56.203125 
L 8.59375 56.203125 
z
" id="DejaVuSerif-Bold-51"/>
      <path d="M 13.71875 0 
L 13.71875 5.90625 
L 27.390625 5.90625 
L 27.390625 64.890625 
L 12.203125 55.90625 
L 12.203125 63.1875 
L 30.515625 74.21875 
L 45.90625 74.21875 
L 45.90625 5.90625 
L 59.625 5.90625 
L 59.625 0 
z
" id="DejaVuSerif-Bold-49"/>
      <path d="M 24.609375 43.21875 
Q 27.78125 45.75 31.703125 47.015625 
Q 35.640625 48.296875 40.28125 48.296875 
Q 51.46875 48.296875 57.828125 41.75 
Q 64.203125 35.203125 64.203125 23.78125 
Q 64.203125 11.71875 57.03125 5.140625 
Q 49.859375 -1.421875 36.625 -1.421875 
Q 21.6875 -1.421875 13.984375 7.59375 
Q 6.296875 16.609375 6.296875 34.078125 
Q 6.296875 53.953125 14.84375 64.078125 
Q 23.390625 74.21875 40.1875 74.21875 
Q 44.578125 74.21875 49.609375 73.484375 
Q 54.640625 72.75 60.40625 71.296875 
L 60.40625 58.40625 
L 54.5 58.40625 
Q 53.265625 63.375 49.875 65.9375 
Q 46.484375 68.5 41.109375 68.5 
Q 32.421875 68.5 28.53125 62.546875 
Q 24.65625 56.59375 24.609375 43.21875 
z
M 35.5 4.296875 
Q 40.53125 4.296875 42.671875 8.5625 
Q 44.828125 12.84375 44.828125 23.390625 
Q 44.828125 33.9375 42.671875 38.203125 
Q 40.53125 42.484375 35.5 42.484375 
Q 30.46875 42.484375 28.34375 38.203125 
Q 26.21875 33.9375 26.21875 23.390625 
Q 26.21875 12.84375 28.34375 8.5625 
Q 30.46875 4.296875 35.5 4.296875 
z
" id="DejaVuSerif-Bold-54"/>
     </defs>
     <use xlink:href="#DejaVuSerif-Bold-50"/>
     <use x="69.580078" xlink:href="#DejaVuSerif-Bold-51"/>
     <use x="139.160156" xlink:href="#DejaVuSerif-Bold-49"/>
     <use x="208.740234" xlink:href="#DejaVuSerif-Bold-54"/>
    </g>
   </g>
   <g id="text_11">
    <!-- 71 -->
    <g style="fill:#e37678;" transform="translate(270.496286 169.621875)scale(0.14 -0.14)">
     <defs>
      <path d="M 61.28125 60.5 
L 31.203125 0 
L 21.296875 0 
L 50.59375 59.078125 
L 14.59375 59.078125 
L 14.59375 49.21875 
L 7.90625 49.21875 
L 7.90625 72.90625 
L 61.28125 72.90625 
z
" id="DejaVuSerif-Bold-55"/>
     </defs>
     <use xlink:href="#DejaVuSerif-Bold-55"/>
     <use x="69.580078" xlink:href="#DejaVuSerif-Bold-49"/>
    </g>
   </g>
   <g id="text_12">
    <!-- 478 -->
    <g style="fill:#8bcbe8;" transform="translate(640.450286 169.621875)scale(0.14 -0.14)">
     <defs>
      <path d="M 63.8125 0 
L 23.6875 0 
L 23.6875 5.90625 
L 34.515625 5.90625 
L 34.515625 19.1875 
L 4.109375 19.1875 
L 4.109375 24.8125 
L 34.625 74.21875 
L 52.984375 74.21875 
L 52.984375 25.484375 
L 65.484375 25.484375 
L 65.484375 19.1875 
L 52.984375 19.1875 
L 52.984375 5.90625 
L 63.8125 5.90625 
z
M 34.515625 25.484375 
L 34.515625 60.890625 
L 12.796875 25.484375 
z
" id="DejaVuSerif-Bold-52"/>
     </defs>
     <use xlink:href="#DejaVuSerif-Bold-52"/>
     <use x="69.580078" xlink:href="#DejaVuSerif-Bold-55"/>
     <use x="139.160156" xlink:href="#DejaVuSerif-Bold-56"/>
    </g>
   </g>
   <g id="text_13">
    <!-- 71 -->
    <g style="fill:#e37678;" transform="translate(270.496286 124.321875)scale(0.14 -0.14)">
     <use xlink:href="#DejaVuSerif-Bold-55"/>
     <use x="69.580078" xlink:href="#DejaVuSerif-Bold-49"/>
    </g>
   </g>
   <g id="text_14">
    <!-- 1965 -->
    <g style="fill:#8bcbe8;" transform="translate(369.501429 124.321875)scale(0.14 -0.14)">
     <defs>
      <path d="M 56.390625 72.90625 
L 56.390625 60.109375 
L 17.390625 60.109375 
L 17.390625 44.09375 
Q 20.609375 46.578125 24.5625 47.84375 
Q 28.515625 49.125 32.90625 49.125 
Q 46.390625 49.125 54.203125 42.3125 
Q 62.015625 35.5 62.015625 23.78125 
Q 62.015625 11.859375 54.203125 5.21875 
Q 46.390625 -1.421875 32.328125 -1.421875 
Q 26.375 -1.421875 20.484375 -0.4375 
Q 14.59375 0.53125 8.203125 2.59375 
L 8.203125 18.5 
L 14.0625 18.5 
Q 14.359375 11.328125 17.796875 7.8125 
Q 21.234375 4.296875 27.984375 4.296875 
Q 35.15625 4.296875 38.625 9.109375 
Q 42.09375 13.921875 42.09375 23.78125 
Q 42.09375 33.5 38.6875 38.296875 
Q 35.296875 43.109375 28.421875 43.109375 
Q 24.703125 43.109375 21.796875 41.578125 
Q 18.890625 40.046875 16.40625 36.8125 
L 11.53125 36.8125 
L 11.53125 72.90625 
z
" id="DejaVuSerif-Bold-53"/>
     </defs>
     <use xlink:href="#DejaVuSerif-Bold-49"/>
     <use x="69.580078" xlink:href="#DejaVuSerif-Bold-57"/>
     <use x="139.160156" xlink:href="#DejaVuSerif-Bold-54"/>
     <use x="208.740234" xlink:href="#DejaVuSerif-Bold-53"/>
    </g>
   </g>
  </g>
 </g>
 <defs>
  <clipPath id="pe75b3e4f9b">
   <rect height="271.8" width="837" x="126.771429" y="13.336875"/>
  </clipPath>
 </defs>
</svg>
