<?xml version="1.0" encoding="utf-8" standalone="no"?>
<!DOCTYPE svg PUBLIC "-//W3C//DTD SVG 1.1//EN"
  "http://www.w3.org/Graphics/SVG/1.1/DTD/svg11.dtd">
<!-- Created with matplotlib (https://matplotlib.org/) -->
<svg height="292.336875pt" version="1.1" viewBox="0 0 970.971429 292.336875" width="970.971429pt" xmlns="http://www.w3.org/2000/svg" xmlns:xlink="http://www.w3.org/1999/xlink">
 <metadata>
  <rdf:RDF xmlns:cc="http://creativecommons.org/ns#" xmlns:dc="http://purl.org/dc/elements/1.1/" xmlns:rdf="http://www.w3.org/1999/02/22-rdf-syntax-ns#">
   <cc:Work>
    <dc:type rdf:resource="http://purl.org/dc/dcmitype/StillImage"/>
    <dc:date>2021-12-13T21:35:26.165762</dc:date>
    <dc:format>image/svg+xml</dc:format>
    <dc:creator>
     <cc:Agent>
      <dc:title>Matplotlib v3.3.4, https://matplotlib.org/</dc:title>
     </cc:Agent>
    </dc:creator>
   </cc:Work>
  </rdf:RDF>
 </metadata>
 <defs>
  <style type="text/css">*{stroke-linecap:butt;stroke-linejoin:round;}</style>
 </defs>
 <g id="figure_1">
  <g id="patch_1">
   <path d="M 0 292.336875 
L 970.971429 292.336875 
L 970.971429 0 
L 0 0 
z
" style="fill:#ffffff;"/>
  </g>
  <g id="axes_1">
   <g id="patch_2">
    <path d="M 126.771429 285.136875 
L 963.771429 285.136875 
L 963.771429 13.336875 
L 126.771429 13.336875 
z
" style="fill:#ffffff;"/>
   </g>
   <g id="matplotlib.axis_1">
    <g id="ytick_1">
     <g id="text_1">
      <!-- Obesity -->
      <g style="opacity:0.5;" transform="translate(58.578616 222.505781)scale(0.14 -0.14)">
       <defs>
        <path d="M 43.5 4.5 
Q 52.828125 4.5 57.375 12.359375 
Q 61.921875 20.21875 61.921875 36.375 
Q 61.921875 52.59375 57.375 60.453125 
Q 52.828125 68.3125 43.5 68.3125 
Q 34.234375 68.3125 29.65625 60.375 
Q 25.09375 52.4375 25.09375 36.375 
Q 25.09375 20.359375 29.65625 12.421875 
Q 34.234375 4.5 43.5 4.5 
z
M 43.5 -1.421875 
Q 25.09375 -1.421875 14.640625 8.640625 
Q 4.203125 18.703125 4.203125 36.375 
Q 4.203125 54.046875 14.671875 64.125 
Q 25.140625 74.21875 43.5 74.21875 
Q 61.921875 74.21875 72.359375 64.15625 
Q 82.8125 54.109375 82.8125 36.375 
Q 82.8125 18.703125 72.328125 8.640625 
Q 61.859375 -1.421875 43.5 -1.421875 
z
" id="DejaVuSerif-Bold-79"/>
        <path d="M 9.71875 5.90625 
L 9.71875 70.125 
L 2.296875 70.125 
L 2.296875 75.984375 
L 27 75.984375 
L 27 45.3125 
Q 29.203125 49.359375 32.90625 51.34375 
Q 36.625 53.328125 42.09375 53.328125 
Q 53.171875 53.328125 59.546875 46.015625 
Q 65.921875 38.71875 65.921875 25.984375 
Q 65.921875 13.234375 59.546875 5.90625 
Q 53.171875 -1.421875 42.09375 -1.421875 
Q 36.625 -1.421875 32.90625 0.5625 
Q 29.203125 2.546875 27 6.59375 
L 27 0 
L 2.296875 0 
L 2.296875 5.90625 
z
M 27 23.390625 
Q 27 14.3125 29.3125 10.25 
Q 31.640625 6.203125 36.8125 6.203125 
Q 42.140625 6.203125 44.3125 10.5 
Q 46.484375 14.796875 46.484375 25.984375 
Q 46.484375 37.15625 44.3125 41.421875 
Q 42.140625 45.703125 36.8125 45.703125 
Q 31.640625 45.703125 29.3125 41.640625 
Q 27 37.59375 27 28.515625 
z
" id="DejaVuSerif-Bold-98"/>
        <path d="M 40.09375 29.296875 
Q 40.09375 39.546875 38.1875 43.671875 
Q 36.28125 47.796875 31.6875 47.796875 
Q 27.25 47.796875 25.3125 43.75 
Q 23.390625 39.703125 23.390625 30.171875 
L 23.390625 29.296875 
z
M 59.078125 23.484375 
L 23.390625 23.484375 
L 23.390625 23.09375 
Q 23.390625 13.03125 26.40625 8.5625 
Q 29.4375 4.109375 36.1875 4.109375 
Q 41.796875 4.109375 45.265625 7.078125 
Q 48.734375 10.0625 49.703125 15.71875 
L 57.8125 15.71875 
Q 55.71875 6.890625 49.46875 2.734375 
Q 43.21875 -1.421875 31.984375 -1.421875 
Q 18.5 -1.421875 11.296875 5.6875 
Q 4.109375 12.796875 4.109375 25.984375 
Q 4.109375 38.875 11.46875 46.09375 
Q 18.84375 53.328125 31.984375 53.328125 
Q 44.875 53.328125 51.75 45.734375 
Q 58.640625 38.140625 59.078125 23.484375 
z
" id="DejaVuSerif-Bold-101"/>
        <path d="M 4.6875 1.515625 
L 4.6875 16.015625 
L 10.203125 16.015625 
Q 10.890625 10.203125 14.546875 7.15625 
Q 18.21875 4.109375 24.515625 4.109375 
Q 29.78125 4.109375 32.59375 5.9375 
Q 35.40625 7.765625 35.40625 11.1875 
Q 35.40625 14.3125 33.625 16.015625 
Q 31.84375 17.71875 26.703125 19 
L 19.578125 20.796875 
Q 11.53125 22.796875 7.90625 26.53125 
Q 4.296875 30.28125 4.296875 36.625 
Q 4.296875 45.0625 10.15625 49.1875 
Q 16.015625 53.328125 28.21875 53.328125 
Q 32.8125 53.328125 38.015625 52.5625 
Q 43.21875 51.8125 49.515625 50.203125 
L 49.515625 37.109375 
L 44 37.109375 
Q 43.5625 42.4375 40.203125 45.109375 
Q 36.859375 47.796875 30.609375 47.796875 
Q 25.34375 47.796875 22.625 46.109375 
Q 19.921875 44.4375 19.921875 41.21875 
Q 19.921875 38.578125 21.484375 37.0625 
Q 23.046875 35.546875 27.09375 34.515625 
L 34.1875 32.71875 
Q 44.390625 30.125 48.296875 26.3125 
Q 52.203125 22.515625 52.203125 15.71875 
Q 52.203125 6.9375 45.921875 2.75 
Q 39.65625 -1.421875 26.421875 -1.421875 
Q 21.578125 -1.421875 16.15625 -0.6875 
Q 10.75 0.046875 4.6875 1.515625 
z
" id="DejaVuSerif-Bold-115"/>
        <path d="M 9.1875 66.609375 
Q 9.1875 70.5625 11.921875 73.265625 
Q 14.65625 75.984375 18.609375 75.984375 
Q 22.46875 75.984375 25.171875 73.265625 
Q 27.875 70.5625 27.875 66.609375 
Q 27.875 62.75 25.171875 60.03125 
Q 22.46875 57.328125 18.609375 57.328125 
Q 14.65625 57.328125 11.921875 60.015625 
Q 9.1875 62.703125 9.1875 66.609375 
z
M 28.078125 5.90625 
L 35.5 5.90625 
L 35.5 0 
L 3.421875 0 
L 3.421875 5.90625 
L 10.796875 5.90625 
L 10.796875 46 
L 3.421875 46 
L 3.421875 51.90625 
L 28.078125 51.90625 
z
" id="DejaVuSerif-Bold-105"/>
        <path d="M 9.90625 46 
L 2.390625 46 
L 2.390625 51.90625 
L 9.90625 51.90625 
L 9.90625 68.015625 
L 27.203125 68.015625 
L 27.203125 51.90625 
L 41.609375 51.90625 
L 41.609375 46 
L 27.203125 46 
L 27.203125 14.203125 
Q 27.203125 7.421875 28.265625 5.765625 
Q 29.34375 4.109375 32.171875 4.109375 
Q 35.296875 4.109375 36.8125 6.203125 
Q 38.328125 8.296875 38.421875 12.703125 
L 45.703125 12.703125 
Q 45.265625 4.890625 41.421875 1.734375 
Q 37.59375 -1.421875 28.21875 -1.421875 
Q 17.53125 -1.421875 13.71875 1.921875 
Q 9.90625 5.28125 9.90625 14.203125 
z
" id="DejaVuSerif-Bold-116"/>
        <path d="M 31.203125 -11.71875 
Q 28.859375 -17.4375 25.53125 -19.828125 
Q 22.21875 -22.21875 16.609375 -22.21875 
Q 14.203125 -22.21875 11.265625 -21.671875 
Q 8.34375 -21.140625 4.890625 -20.125 
L 4.890625 -9.28125 
L 10.40625 -9.328125 
Q 10.546875 -13.09375 12.171875 -14.890625 
Q 13.8125 -16.703125 17.09375 -16.703125 
Q 20.265625 -16.703125 22.21875 -14.96875 
Q 24.171875 -13.234375 26.125 -8.40625 
L 26.90625 -6.59375 
L 4.296875 46 
L -1.3125 46 
L -1.3125 51.90625 
L 28.609375 51.90625 
L 28.609375 46 
L 22.40625 46 
L 35.59375 15.28125 
L 47.90625 46 
L 41.015625 46 
L 41.015625 51.90625 
L 60.5 51.90625 
L 60.5 46 
L 54.203125 46 
z
" id="DejaVuSerif-Bold-121"/>
       </defs>
       <use xlink:href="#DejaVuSerif-Bold-79"/>
       <use x="87.109375" xlink:href="#DejaVuSerif-Bold-98"/>
       <use x="157.03125" xlink:href="#DejaVuSerif-Bold-101"/>
       <use x="220.654297" xlink:href="#DejaVuSerif-Bold-115"/>
       <use x="276.953125" xlink:href="#DejaVuSerif-Bold-105"/>
       <use x="314.941406" xlink:href="#DejaVuSerif-Bold-116"/>
       <use x="361.132812" xlink:href="#DejaVuSerif-Bold-121"/>
      </g>
     </g>
    </g>
    <g id="ytick_2">
     <g id="text_2">
      <!-- Overweight -->
      <g style="opacity:0.5;" transform="translate(27.947054 177.205781)scale(0.14 -0.14)">
       <defs>
        <path d="M 22.3125 0 
L 3.90625 46 
L -1.8125 46 
L -1.8125 51.90625 
L 27.984375 51.90625 
L 27.984375 46 
L 21.6875 46 
L 34.8125 13.1875 
L 47.90625 46 
L 41.109375 46 
L 41.109375 51.90625 
L 60.59375 51.90625 
L 60.59375 46 
L 54.59375 46 
L 36.1875 0 
z
" id="DejaVuSerif-Bold-118"/>
        <path d="M 53.71875 52.484375 
L 53.71875 37.015625 
L 48.1875 37.015625 
Q 47.90625 41.15625 45.953125 43.1875 
Q 44 45.21875 40.28125 45.21875 
Q 34.625 45.21875 31.34375 40.234375 
Q 28.078125 35.25 28.078125 26.421875 
L 28.078125 5.90625 
L 37.5 5.90625 
L 37.5 0 
L 3.421875 0 
L 3.421875 5.90625 
L 10.796875 5.90625 
L 10.796875 46 
L 2.875 46 
L 2.875 51.90625 
L 28.078125 51.90625 
L 28.078125 42.671875 
Q 30.609375 48.09375 34.78125 50.703125 
Q 38.96875 53.328125 45.015625 53.328125 
Q 46.53125 53.328125 48.703125 53.09375 
Q 50.875 52.875 53.71875 52.484375 
z
" id="DejaVuSerif-Bold-114"/>
        <path d="M 53.90625 51.90625 
L 65.71875 17.28125 
L 75.484375 46 
L 68.703125 46 
L 68.703125 51.90625 
L 88.09375 51.90625 
L 88.09375 46 
L 81.984375 46 
L 66.3125 0 
L 54.390625 0 
L 43.40625 32.515625 
L 32.328125 0 
L 20.515625 0 
L 4.78125 46 
L -0.875 46 
L -0.875 51.90625 
L 28.515625 51.90625 
L 28.515625 46 
L 22.40625 46 
L 31.984375 17.921875 
L 43.609375 51.90625 
z
" id="DejaVuSerif-Bold-119"/>
        <path d="M 60.203125 46 
L 60.203125 0.6875 
Q 60.203125 -10.25 52.40625 -16.234375 
Q 44.625 -22.21875 30.421875 -22.21875 
Q 25.25 -22.21875 19.921875 -21.40625 
Q 14.59375 -20.609375 8.984375 -19 
L 8.984375 -6.59375 
L 14.5 -6.59375 
Q 15.234375 -11.71875 18.625 -14.203125 
Q 22.015625 -16.703125 28.328125 -16.703125 
Q 36.328125 -16.703125 39.625 -12.859375 
Q 42.921875 -9.03125 42.921875 0.6875 
L 42.921875 6.59375 
Q 40.71875 2.546875 36.984375 0.5625 
Q 33.25 -1.421875 27.78125 -1.421875 
Q 16.75 -1.421875 10.421875 5.90625 
Q 4.109375 13.234375 4.109375 25.984375 
Q 4.109375 38.765625 10.421875 46.046875 
Q 16.75 53.328125 27.78125 53.328125 
Q 33.25 53.328125 36.984375 51.34375 
Q 40.71875 49.359375 42.921875 45.3125 
L 42.921875 51.90625 
L 67.578125 51.90625 
L 67.578125 46 
z
M 42.921875 28.515625 
Q 42.921875 37.59375 40.578125 41.640625 
Q 38.234375 45.703125 33.109375 45.703125 
Q 27.734375 45.703125 25.5625 41.421875 
Q 23.390625 37.15625 23.390625 25.984375 
Q 23.390625 14.796875 25.578125 10.5 
Q 27.78125 6.203125 33.109375 6.203125 
Q 38.234375 6.203125 40.578125 10.25 
Q 42.921875 14.3125 42.921875 23.390625 
z
" id="DejaVuSerif-Bold-103"/>
        <path d="M 3.421875 0 
L 3.421875 5.90625 
L 10.796875 5.90625 
L 10.796875 70.125 
L 3.078125 70.125 
L 3.078125 75.984375 
L 28.078125 75.984375 
L 28.078125 44.578125 
Q 31.203125 49.21875 35.203125 51.265625 
Q 39.203125 53.328125 45.3125 53.328125 
Q 54.046875 53.328125 58.515625 48.171875 
Q 62.984375 43.015625 62.984375 33.015625 
L 62.984375 5.90625 
L 70.40625 5.90625 
L 70.40625 0 
L 39.40625 0 
L 39.40625 5.90625 
L 45.703125 5.90625 
L 45.703125 33.5 
Q 45.703125 40.09375 44.015625 42.65625 
Q 42.328125 45.21875 38.1875 45.21875 
Q 32.953125 45.21875 30.515625 41.375 
Q 28.078125 37.546875 28.078125 29.203125 
L 28.078125 5.90625 
L 34.421875 5.90625 
L 34.421875 0 
z
" id="DejaVuSerif-Bold-104"/>
       </defs>
       <use xlink:href="#DejaVuSerif-Bold-79"/>
       <use x="87.109375" xlink:href="#DejaVuSerif-Bold-118"/>
       <use x="145.214844" xlink:href="#DejaVuSerif-Bold-101"/>
       <use x="208.837891" xlink:href="#DejaVuSerif-Bold-114"/>
       <use x="261.523438" xlink:href="#DejaVuSerif-Bold-119"/>
       <use x="347.607422" xlink:href="#DejaVuSerif-Bold-101"/>
       <use x="411.230469" xlink:href="#DejaVuSerif-Bold-105"/>
       <use x="449.21875" xlink:href="#DejaVuSerif-Bold-103"/>
       <use x="519.140625" xlink:href="#DejaVuSerif-Bold-104"/>
       <use x="591.845703" xlink:href="#DejaVuSerif-Bold-116"/>
      </g>
     </g>
    </g>
    <g id="ytick_3">
     <g id="text_3">
      <!-- Ideal -->
      <g style="opacity:0.5;" transform="translate(77.636116 131.905781)scale(0.14 -0.14)">
       <defs>
        <path d="M 4.6875 0 
L 4.6875 5.90625 
L 14.015625 5.90625 
L 14.015625 67 
L 4.6875 67 
L 4.6875 72.90625 
L 42.1875 72.90625 
L 42.1875 67 
L 32.8125 67 
L 32.8125 5.90625 
L 42.1875 5.90625 
L 42.1875 0 
z
" id="DejaVuSerif-Bold-73"/>
        <path d="M 42.921875 23.390625 
L 42.921875 28.515625 
Q 42.921875 37.59375 40.578125 41.640625 
Q 38.234375 45.703125 33.109375 45.703125 
Q 27.734375 45.703125 25.5625 41.421875 
Q 23.390625 37.15625 23.390625 25.984375 
Q 23.390625 14.796875 25.578125 10.5 
Q 27.78125 6.203125 33.109375 6.203125 
Q 38.234375 6.203125 40.578125 10.25 
Q 42.921875 14.3125 42.921875 23.390625 
z
M 60.203125 5.90625 
L 67.578125 5.90625 
L 67.578125 0 
L 42.921875 0 
L 42.921875 6.59375 
Q 40.71875 2.546875 36.984375 0.5625 
Q 33.25 -1.421875 27.78125 -1.421875 
Q 16.75 -1.421875 10.421875 5.90625 
Q 4.109375 13.234375 4.109375 25.984375 
Q 4.109375 38.765625 10.421875 46.046875 
Q 16.75 53.328125 27.78125 53.328125 
Q 33.25 53.328125 36.984375 51.34375 
Q 40.71875 49.359375 42.921875 45.3125 
L 42.921875 70.125 
L 35.5 70.125 
L 35.5 75.984375 
L 60.203125 75.984375 
z
" id="DejaVuSerif-Bold-100"/>
        <path d="M 55.078125 31.890625 
L 55.078125 5.90625 
L 62.5 5.90625 
L 62.5 0 
L 37.796875 0 
L 37.796875 6.59375 
Q 34.375 2.484375 30.171875 0.53125 
Q 25.984375 -1.421875 20.609375 -1.421875 
Q 12.640625 -1.421875 8.375 2.84375 
Q 4.109375 7.125 4.109375 15.09375 
Q 4.109375 23.828125 10.234375 28.171875 
Q 16.359375 32.515625 28.71875 32.515625 
L 37.796875 32.515625 
L 37.796875 35.59375 
Q 37.796875 41.890625 34.8125 44.890625 
Q 31.84375 47.90625 25.59375 47.90625 
Q 20.40625 47.90625 17.59375 45.78125 
Q 14.796875 43.65625 13.625 38.8125 
L 8.109375 38.8125 
L 8.109375 50 
Q 12.75 51.65625 17.71875 52.484375 
Q 22.703125 53.328125 28.21875 53.328125 
Q 42.140625 53.328125 48.609375 48.140625 
Q 55.078125 42.96875 55.078125 31.890625 
z
M 37.796875 16.3125 
L 37.796875 26.703125 
L 31.296875 26.703125 
Q 26.46875 26.703125 23.875 24.0625 
Q 21.296875 21.4375 21.296875 16.5 
Q 21.296875 11.578125 23.171875 9.125 
Q 25.046875 6.6875 28.90625 6.6875 
Q 32.90625 6.6875 35.34375 9.328125 
Q 37.796875 11.96875 37.796875 16.3125 
z
" id="DejaVuSerif-Bold-97"/>
        <path d="M 28.078125 5.90625 
L 35.5 5.90625 
L 35.5 0 
L 3.421875 0 
L 3.421875 5.90625 
L 10.796875 5.90625 
L 10.796875 70.125 
L 3.421875 70.125 
L 3.421875 75.984375 
L 28.078125 75.984375 
z
" id="DejaVuSerif-Bold-108"/>
       </defs>
       <use xlink:href="#DejaVuSerif-Bold-73"/>
       <use x="46.777344" xlink:href="#DejaVuSerif-Bold-100"/>
       <use x="116.699219" xlink:href="#DejaVuSerif-Bold-101"/>
       <use x="180.322266" xlink:href="#DejaVuSerif-Bold-97"/>
       <use x="245.117188" xlink:href="#DejaVuSerif-Bold-108"/>
      </g>
     </g>
    </g>
    <g id="ytick_4">
     <g id="text_4">
      <!-- Underweight -->
      <g style="opacity:0.5;" transform="translate(16.101741 86.605781)scale(0.14 -0.14)">
       <defs>
        <path d="M 12.703125 67 
L 3.421875 67 
L 3.421875 72.90625 
L 40.921875 72.90625 
L 40.921875 67 
L 31.59375 67 
L 31.59375 30.515625 
Q 31.59375 16.890625 35.84375 11.4375 
Q 40.09375 6 50.390625 6 
Q 60.453125 6 64.671875 11.5 
Q 68.890625 17 68.890625 30.515625 
L 68.890625 67 
L 59.625 67 
L 59.625 72.90625 
L 85.015625 72.90625 
L 85.015625 67 
L 75.6875 67 
L 75.6875 29.5 
Q 75.6875 12.796875 68.453125 5.6875 
Q 61.234375 -1.421875 44.1875 -1.421875 
Q 27.25 -1.421875 19.96875 5.75 
Q 12.703125 12.9375 12.703125 29.59375 
z
" id="DejaVuSerif-Bold-85"/>
        <path d="M 3.421875 0 
L 3.421875 5.90625 
L 10.796875 5.90625 
L 10.796875 46 
L 3.421875 46 
L 3.421875 51.90625 
L 28.078125 51.90625 
L 28.078125 44.578125 
Q 31.203125 49.21875 35.203125 51.265625 
Q 39.203125 53.328125 45.3125 53.328125 
Q 54.046875 53.328125 58.515625 48.171875 
Q 62.984375 43.015625 62.984375 33.015625 
L 62.984375 5.90625 
L 70.40625 5.90625 
L 70.40625 0 
L 39.40625 0 
L 39.40625 5.90625 
L 45.703125 5.90625 
L 45.703125 33.5 
Q 45.703125 40.09375 44.015625 42.65625 
Q 42.328125 45.21875 38.1875 45.21875 
Q 32.953125 45.21875 30.515625 41.375 
Q 28.078125 37.546875 28.078125 29.203125 
L 28.078125 5.90625 
L 34.421875 5.90625 
L 34.421875 0 
z
" id="DejaVuSerif-Bold-110"/>
       </defs>
       <use xlink:href="#DejaVuSerif-Bold-85"/>
       <use x="87.207031" xlink:href="#DejaVuSerif-Bold-110"/>
       <use x="159.912109" xlink:href="#DejaVuSerif-Bold-100"/>
       <use x="229.833984" xlink:href="#DejaVuSerif-Bold-101"/>
       <use x="293.457031" xlink:href="#DejaVuSerif-Bold-114"/>
       <use x="346.142578" xlink:href="#DejaVuSerif-Bold-119"/>
       <use x="432.226562" xlink:href="#DejaVuSerif-Bold-101"/>
       <use x="495.849609" xlink:href="#DejaVuSerif-Bold-105"/>
       <use x="533.837891" xlink:href="#DejaVuSerif-Bold-103"/>
       <use x="603.759766" xlink:href="#DejaVuSerif-Bold-104"/>
       <use x="676.464844" xlink:href="#DejaVuSerif-Bold-116"/>
      </g>
     </g>
    </g>
   </g>
   <g id="PathCollection_1">
    <path clip-path="url(#p5e33e510c6)" d="M 273.844286 177.248778 
C 275.266279 177.248778 276.630222 176.683814 277.635723 175.678313 
C 278.641224 174.672812 279.206188 173.308868 279.206188 171.886875 
C 279.206188 170.464882 278.641224 169.100938 277.635723 168.095437 
C 276.630222 167.089936 275.266279 166.524972 273.844286 166.524972 
C 272.422293 166.524972 271.058349 167.089936 270.052848 168.095437 
C 269.047347 169.100938 268.482383 170.464882 268.482383 171.886875 
C 268.482383 173.308868 269.047347 174.672812 270.052848 175.678313 
C 271.058349 176.683814 272.422293 177.248778 273.844286 177.248778 
z
" style="fill:#e37678;stroke:#ffffff;stroke-width:0.274809;"/>
    <path clip-path="url(#p5e33e510c6)" d="M 269.300571 222.085854 
C 270.599796 222.085854 271.845983 221.569667 272.764673 220.650977 
C 273.683364 219.732286 274.199551 218.4861 274.199551 217.186875 
C 274.199551 215.88765 273.683364 214.641464 272.764673 213.722773 
C 271.845983 212.804083 270.599796 212.287896 269.300571 212.287896 
C 268.001347 212.287896 266.75516 212.804083 265.83647 213.722773 
C 264.917779 214.641464 264.401592 215.88765 264.401592 217.186875 
C 264.401592 218.4861 264.917779 219.732286 265.83647 220.650977 
C 266.75516 221.569667 268.001347 222.085854 269.300571 222.085854 
z
" style="fill:#e37678;stroke:#ffffff;stroke-width:0.274809;"/>
    <path clip-path="url(#p5e33e510c6)" d="M 255.191143 129.628256 
C 255.997727 129.628256 256.771383 129.307797 257.341724 128.737456 
C 257.912065 128.167115 258.232524 127.393459 258.232524 126.586875 
C 258.232524 125.780291 257.912065 125.006635 257.341724 124.436294 
C 256.771383 123.865953 255.997727 123.545494 255.191143 123.545494 
C 254.384559 123.545494 253.610902 123.865953 253.040562 124.436294 
C 252.470221 125.006635 252.149762 125.780291 252.149762 126.586875 
C 252.149762 127.393459 252.470221 128.167115 253.040562 128.737456 
C 253.610902 129.307797 254.384559 129.628256 255.191143 129.628256 
z
" style="fill:#e37678;stroke:#ffffff;stroke-width:0.274809;"/>
    <path clip-path="url(#p5e33e510c6)" d="M 246.582 81.786875 
C 246.714602 81.786875 246.84179 81.734192 246.935553 81.640428 
C 247.029317 81.546665 247.082 81.419477 247.082 81.286875 
C 247.082 81.154273 247.029317 81.027085 246.935553 80.933322 
C 246.84179 80.839558 246.714602 80.786875 246.582 80.786875 
C 246.449398 80.786875 246.32221 80.839558 246.228447 80.933322 
C 246.134683 81.027085 246.082 81.154273 246.082 81.286875 
C 246.082 81.419477 246.134683 81.546665 246.228447 81.640428 
C 246.32221 81.734192 246.449398 81.786875 246.582 81.786875 
z
" style="fill:#e37678;stroke:#ffffff;stroke-width:0.274809;"/>
   </g>
   <g id="PathCollection_2">
    <path clip-path="url(#p5e33e510c6)" d="M 676.082571 238.382393 
C 681.703689 238.382393 687.095336 236.1491 691.070066 232.17437 
C 695.044796 228.19964 697.27809 222.807992 697.27809 217.186875 
C 697.27809 211.565758 695.044796 206.17411 691.070066 202.19938 
C 687.095336 198.22465 681.703689 195.991357 676.082571 195.991357 
C 670.461454 195.991357 665.069807 198.22465 661.095077 202.19938 
C 657.120347 206.17411 654.887053 211.565758 654.887053 217.186875 
C 654.887053 222.807992 657.120347 228.19964 661.095077 232.17437 
C 665.069807 236.1491 670.461454 238.382393 676.082571 238.382393 
z
" style="fill:#8bcbe8;stroke:#ffffff;stroke-width:2.014984;"/>
    <path clip-path="url(#p5e33e510c6)" d="M 603.861429 191.21949 
C 608.988498 191.21949 613.906266 189.182484 617.531652 185.557098 
C 621.157037 181.931713 623.194044 177.013944 623.194044 171.886875 
C 623.194044 166.759806 621.157037 161.842037 617.531652 158.216652 
C 613.906266 154.591266 608.988498 152.55426 603.861429 152.55426 
C 598.734359 152.55426 593.816591 154.591266 590.191205 158.216652 
C 586.56582 161.842037 584.528814 166.759806 584.528814 171.886875 
C 584.528814 177.013944 586.56582 181.931713 590.191205 185.557098 
C 593.816591 189.182484 598.734359 191.21949 603.861429 191.21949 
z
" style="fill:#8bcbe8;stroke:#ffffff;stroke-width:2.014984;"/>
    <path clip-path="url(#p5e33e510c6)" d="M 523.270286 143.601575 
C 527.782637 143.601575 532.110781 141.808798 535.301495 138.618084 
C 538.492209 135.42737 540.284985 131.099226 540.284985 126.586875 
C 540.284985 122.074524 538.492209 117.74638 535.301495 114.555666 
C 532.110781 111.364952 527.782637 109.572175 523.270286 109.572175 
C 518.757935 109.572175 514.42979 111.364952 511.239076 114.555666 
C 508.048362 117.74638 506.255586 122.074524 506.255586 126.586875 
C 506.255586 131.099226 508.048362 135.42737 511.239076 138.618084 
C 514.42979 141.808798 518.757935 143.601575 523.270286 143.601575 
z
" style="fill:#8bcbe8;stroke:#ffffff;stroke-width:2.014984;"/>
    <path clip-path="url(#p5e33e510c6)" d="M 344.391429 91.411103 
C 347.076405 91.411103 349.651774 90.344351 351.550339 88.445786 
C 353.448904 86.54722 354.515657 83.971852 354.515657 81.286875 
C 354.515657 78.601898 353.448904 76.02653 351.550339 74.127964 
C 349.651774 72.229399 347.076405 71.162647 344.391429 71.162647 
C 341.706452 71.162647 339.131083 72.229399 337.232518 74.127964 
C 335.333953 76.02653 334.2672 78.601898 334.2672 81.286875 
C 334.2672 83.971852 335.333953 86.54722 337.232518 88.445786 
C 339.131083 90.344351 341.706452 91.411103 344.391429 91.411103 
z
" style="fill:#8bcbe8;stroke:#ffffff;stroke-width:2.014984;"/>
   </g>
   <g id="LineCollection_1">
    <path clip-path="url(#p5e33e510c6)" d="M 269.300571 217.186875 
L 676.082571 217.186875 
" style="fill:none;stroke:#808080;stroke-width:0.5;"/>
    <path clip-path="url(#p5e33e510c6)" d="M 273.844286 171.886875 
L 603.861429 171.886875 
" style="fill:none;stroke:#808080;stroke-width:0.5;"/>
    <path clip-path="url(#p5e33e510c6)" d="M 255.191143 126.586875 
L 523.509429 126.586875 
" style="fill:none;stroke:#808080;stroke-width:0.5;"/>
    <path clip-path="url(#p5e33e510c6)" d="M 246.582 81.286875 
L 344.391429 81.286875 
" style="fill:none;stroke:#808080;stroke-width:0.5;"/>
   </g>
   <g id="text_5">
    <!-- bmi level VS Strokes -->
    <g transform="translate(7.2 22.396875)scale(0.2 -0.2)">
     <defs>
      <path d="M 11.53125 5.171875 
L 11.53125 70.796875 
L 2.875 70.796875 
L 2.875 75.984375 
L 20.515625 75.984375 
L 20.515625 43.796875 
Q 23.140625 48.6875 27.21875 51 
Q 31.296875 53.328125 37.3125 53.328125 
Q 46.875 53.328125 52.921875 45.75 
Q 58.984375 38.1875 58.984375 25.984375 
Q 58.984375 13.765625 52.921875 6.171875 
Q 46.875 -1.421875 37.3125 -1.421875 
Q 31.296875 -1.421875 27.21875 0.890625 
Q 23.140625 3.21875 20.515625 8.109375 
L 20.515625 0 
L 2.875 0 
L 2.875 5.171875 
z
M 20.515625 23.390625 
Q 20.515625 14.015625 24.09375 9.109375 
Q 27.6875 4.203125 34.515625 4.203125 
Q 41.40625 4.203125 44.9375 9.71875 
Q 48.484375 15.234375 48.484375 25.984375 
Q 48.484375 36.765625 44.9375 42.234375 
Q 41.40625 47.703125 34.515625 47.703125 
Q 27.6875 47.703125 24.09375 42.765625 
Q 20.515625 37.84375 20.515625 28.515625 
z
" id="DejaVuSerif-98"/>
      <path d="M 51.8125 41.796875 
Q 54.390625 47.515625 58.421875 50.421875 
Q 62.453125 53.328125 67.828125 53.328125 
Q 75.984375 53.328125 79.984375 48.265625 
Q 83.984375 43.21875 83.984375 33.015625 
L 83.984375 5.171875 
L 92.09375 5.171875 
L 92.09375 0 
L 67.1875 0 
L 67.1875 5.171875 
L 75 5.171875 
L 75 31.984375 
Q 75 39.9375 72.65625 43.3125 
Q 70.3125 46.6875 64.890625 46.6875 
Q 58.890625 46.6875 55.734375 42.140625 
Q 52.59375 37.59375 52.59375 28.90625 
L 52.59375 5.171875 
L 60.40625 5.171875 
L 60.40625 0 
L 35.796875 0 
L 35.796875 5.171875 
L 43.609375 5.171875 
L 43.609375 32.328125 
Q 43.609375 40.09375 41.265625 43.390625 
Q 38.921875 46.6875 33.5 46.6875 
Q 27.484375 46.6875 24.328125 42.140625 
Q 21.1875 37.59375 21.1875 28.90625 
L 21.1875 5.171875 
L 29 5.171875 
L 29 0 
L 4.109375 0 
L 4.109375 5.171875 
L 12.203125 5.171875 
L 12.203125 46.78125 
L 3.609375 46.78125 
L 3.609375 51.90625 
L 21.1875 51.90625 
L 21.1875 42.671875 
Q 23.6875 47.859375 27.53125 50.59375 
Q 31.390625 53.328125 36.28125 53.328125 
Q 42.328125 53.328125 46.375 50.3125 
Q 50.4375 47.3125 51.8125 41.796875 
z
" id="DejaVuSerif-109"/>
      <path d="M 9.71875 68.015625 
Q 9.71875 70.265625 11.34375 71.921875 
Q 12.984375 73.578125 15.28125 73.578125 
Q 17.53125 73.578125 19.15625 71.921875 
Q 20.796875 70.265625 20.796875 68.015625 
Q 20.796875 65.71875 19.1875 64.109375 
Q 17.578125 62.5 15.28125 62.5 
Q 12.984375 62.5 11.34375 64.109375 
Q 9.71875 65.71875 9.71875 68.015625 
z
M 21.1875 5.171875 
L 29.6875 5.171875 
L 29.6875 0 
L 3.609375 0 
L 3.609375 5.171875 
L 12.203125 5.171875 
L 12.203125 46.6875 
L 3.609375 46.6875 
L 3.609375 51.90625 
L 21.1875 51.90625 
z
" id="DejaVuSerif-105"/>
      <path id="DejaVuSerif-32"/>
      <path d="M 20.515625 5.171875 
L 29 5.171875 
L 29 0 
L 2.875 0 
L 2.875 5.171875 
L 11.53125 5.171875 
L 11.53125 70.796875 
L 2.875 70.796875 
L 2.875 75.984375 
L 20.515625 75.984375 
z
" id="DejaVuSerif-108"/>
      <path d="M 54.203125 25 
L 15.484375 25 
L 15.484375 24.609375 
Q 15.484375 14.109375 19.4375 8.765625 
Q 23.390625 3.421875 31.109375 3.421875 
Q 37.015625 3.421875 40.796875 6.515625 
Q 44.578125 9.625 46.09375 15.71875 
L 53.328125 15.71875 
Q 51.171875 7.171875 45.375 2.875 
Q 39.59375 -1.421875 30.171875 -1.421875 
Q 18.796875 -1.421875 11.890625 6.078125 
Q 4.984375 13.578125 4.984375 25.984375 
Q 4.984375 38.28125 11.765625 45.796875 
Q 18.5625 53.328125 29.59375 53.328125 
Q 41.359375 53.328125 47.65625 46.0625 
Q 53.953125 38.8125 54.203125 25 
z
M 43.609375 30.171875 
Q 43.3125 39.265625 39.765625 43.875 
Q 36.234375 48.484375 29.59375 48.484375 
Q 23.390625 48.484375 19.828125 43.84375 
Q 16.265625 39.203125 15.484375 30.171875 
z
" id="DejaVuSerif-101"/>
      <path d="M 24.703125 0 
L 5.609375 46.6875 
L -0.296875 46.6875 
L -0.296875 51.90625 
L 23.578125 51.90625 
L 23.578125 46.6875 
L 15.28125 46.6875 
L 29.890625 10.984375 
L 44.484375 46.6875 
L 36.71875 46.6875 
L 36.71875 51.90625 
L 56.203125 51.90625 
L 56.203125 46.6875 
L 50.390625 46.6875 
L 31.296875 0 
z
" id="DejaVuSerif-118"/>
      <path d="M 17.484375 67.671875 
L 39.015625 11.71875 
L 60.5 67.671875 
L 52.296875 67.671875 
L 52.296875 72.90625 
L 73.6875 72.90625 
L 73.6875 67.671875 
L 66.609375 67.671875 
L 40.578125 0 
L 32.171875 0 
L 6.296875 67.671875 
L -0.984375 67.671875 
L -0.984375 72.90625 
L 25.59375 72.90625 
L 25.59375 67.671875 
z
" id="DejaVuSerif-86"/>
      <path d="M 9.28125 3.515625 
L 9.28125 20.125 
L 14.890625 20.0625 
Q 15.140625 11.765625 19.703125 7.78125 
Q 24.265625 3.8125 33.59375 3.8125 
Q 42.28125 3.8125 46.84375 7.25 
Q 51.421875 10.6875 51.421875 17.28125 
Q 51.421875 22.5625 48.65625 25.390625 
Q 45.90625 28.21875 37.015625 30.90625 
L 27.390625 33.796875 
Q 16.9375 36.96875 12.671875 41.703125 
Q 8.40625 46.4375 8.40625 54.6875 
Q 8.40625 63.96875 14.984375 69.09375 
Q 21.578125 74.21875 33.5 74.21875 
Q 38.578125 74.21875 44.625 73.109375 
Q 50.6875 72.015625 57.515625 69.921875 
L 57.515625 54.390625 
L 52 54.390625 
Q 51.171875 62.109375 46.84375 65.546875 
Q 42.53125 69 33.6875 69 
Q 25.984375 69 21.953125 65.84375 
Q 17.921875 62.703125 17.921875 56.6875 
Q 17.921875 51.46875 20.9375 48.484375 
Q 23.96875 45.515625 33.796875 42.578125 
L 42.828125 39.890625 
Q 52.734375 36.921875 56.953125 32.296875 
Q 61.1875 27.6875 61.1875 19.921875 
Q 61.1875 9.328125 54.390625 3.953125 
Q 47.609375 -1.421875 34.1875 -1.421875 
Q 28.171875 -1.421875 21.9375 -0.1875 
Q 15.71875 1.03125 9.28125 3.515625 
z
" id="DejaVuSerif-83"/>
      <path d="M 10.796875 46.6875 
L 2.875 46.6875 
L 2.875 51.90625 
L 10.796875 51.90625 
L 10.796875 68.015625 
L 19.828125 68.015625 
L 19.828125 51.90625 
L 36.71875 51.90625 
L 36.71875 46.6875 
L 19.828125 46.6875 
L 19.828125 13.71875 
Q 19.828125 7.125 21.09375 5.265625 
Q 22.359375 3.421875 25.78125 3.421875 
Q 29.296875 3.421875 30.90625 5.484375 
Q 32.515625 7.5625 32.625 12.203125 
L 39.40625 12.203125 
Q 39.015625 5.125 35.546875 1.84375 
Q 32.078125 -1.421875 25 -1.421875 
Q 17.234375 -1.421875 14.015625 2.015625 
Q 10.796875 5.46875 10.796875 13.71875 
z
" id="DejaVuSerif-116"/>
      <path d="M 47.796875 52 
L 47.796875 39.015625 
L 42.625 39.015625 
Q 42.390625 42.875 40.484375 44.78125 
Q 38.578125 46.6875 34.90625 46.6875 
Q 28.265625 46.6875 24.71875 42.09375 
Q 21.1875 37.5 21.1875 28.90625 
L 21.1875 5.171875 
L 31.59375 5.171875 
L 31.59375 0 
L 4.109375 0 
L 4.109375 5.171875 
L 12.203125 5.171875 
L 12.203125 46.78125 
L 3.609375 46.78125 
L 3.609375 51.90625 
L 21.1875 51.90625 
L 21.1875 42.671875 
Q 23.828125 48.09375 27.96875 50.703125 
Q 32.125 53.328125 38.09375 53.328125 
Q 40.28125 53.328125 42.703125 52.984375 
Q 45.125 52.640625 47.796875 52 
z
" id="DejaVuSerif-114"/>
      <path d="M 30.078125 3.421875 
Q 37.3125 3.421875 40.984375 9.125 
Q 44.671875 14.84375 44.671875 25.984375 
Q 44.671875 37.109375 40.984375 42.796875 
Q 37.3125 48.484375 30.078125 48.484375 
Q 22.859375 48.484375 19.171875 42.796875 
Q 15.484375 37.109375 15.484375 25.984375 
Q 15.484375 14.84375 19.1875 9.125 
Q 22.90625 3.421875 30.078125 3.421875 
z
M 30.078125 -1.421875 
Q 18.75 -1.421875 11.859375 6.078125 
Q 4.984375 13.578125 4.984375 25.984375 
Q 4.984375 38.375 11.84375 45.84375 
Q 18.703125 53.328125 30.078125 53.328125 
Q 41.453125 53.328125 48.3125 45.84375 
Q 55.171875 38.375 55.171875 25.984375 
Q 55.171875 13.578125 48.3125 6.078125 
Q 41.453125 -1.421875 30.078125 -1.421875 
z
" id="DejaVuSerif-111"/>
      <path d="M 28.609375 0 
L 3.421875 0 
L 3.421875 5.171875 
L 11.53125 5.171875 
L 11.53125 70.796875 
L 2.875 70.796875 
L 2.875 75.984375 
L 20.515625 75.984375 
L 20.515625 26.515625 
L 42.390625 46.6875 
L 34.90625 46.6875 
L 34.90625 51.90625 
L 58.40625 51.90625 
L 58.40625 46.6875 
L 49.515625 46.6875 
L 34.078125 32.421875 
L 53.8125 5.171875 
L 61.28125 5.171875 
L 61.28125 0 
L 35.6875 0 
L 35.6875 5.171875 
L 43.109375 5.171875 
L 27.59375 26.515625 
L 20.515625 19.921875 
L 20.515625 5.171875 
L 28.609375 5.171875 
z
" id="DejaVuSerif-107"/>
      <path d="M 5.609375 2.875 
L 5.609375 14.984375 
L 10.796875 14.984375 
Q 10.984375 9.1875 14.421875 6.296875 
Q 17.875 3.421875 24.609375 3.421875 
Q 30.671875 3.421875 33.84375 5.6875 
Q 37.015625 7.953125 37.015625 12.3125 
Q 37.015625 15.71875 34.6875 17.8125 
Q 32.375 19.921875 24.90625 22.3125 
L 18.40625 24.515625 
Q 11.71875 26.65625 8.71875 29.875 
Q 5.71875 33.109375 5.71875 38.09375 
Q 5.71875 45.21875 10.9375 49.265625 
Q 16.15625 53.328125 25.390625 53.328125 
Q 29.5 53.328125 34.03125 52.25 
Q 38.578125 51.171875 43.40625 49.125 
L 43.40625 37.796875 
L 38.234375 37.796875 
Q 38.03125 42.828125 34.703125 45.65625 
Q 31.390625 48.484375 25.6875 48.484375 
Q 20.015625 48.484375 17.109375 46.484375 
Q 14.203125 44.484375 14.203125 40.484375 
Q 14.203125 37.203125 16.40625 35.21875 
Q 18.609375 33.25 25.203125 31.203125 
L 32.328125 29 
Q 39.703125 26.703125 42.9375 23.265625 
Q 46.1875 19.828125 46.1875 14.40625 
Q 46.1875 7.03125 40.546875 2.796875 
Q 34.90625 -1.421875 25 -1.421875 
Q 19.96875 -1.421875 15.1875 -0.34375 
Q 10.40625 0.734375 5.609375 2.875 
z
" id="DejaVuSerif-115"/>
     </defs>
     <use xlink:href="#DejaVuSerif-98"/>
     <use x="64.013672" xlink:href="#DejaVuSerif-109"/>
     <use x="158.837891" xlink:href="#DejaVuSerif-105"/>
     <use x="190.820312" xlink:href="#DejaVuSerif-32"/>
     <use x="222.607422" xlink:href="#DejaVuSerif-108"/>
     <use x="254.589844" xlink:href="#DejaVuSerif-101"/>
     <use x="313.769531" xlink:href="#DejaVuSerif-118"/>
     <use x="370.263672" xlink:href="#DejaVuSerif-101"/>
     <use x="429.443359" xlink:href="#DejaVuSerif-108"/>
     <use x="461.425781" xlink:href="#DejaVuSerif-32"/>
     <use x="493.212891" xlink:href="#DejaVuSerif-86"/>
     <use x="565.429688" xlink:href="#DejaVuSerif-83"/>
     <use x="633.935547" xlink:href="#DejaVuSerif-32"/>
     <use x="665.722656" xlink:href="#DejaVuSerif-83"/>
     <use x="734.228516" xlink:href="#DejaVuSerif-116"/>
     <use x="774.414062" xlink:href="#DejaVuSerif-114"/>
     <use x="822.216797" xlink:href="#DejaVuSerif-111"/>
     <use x="882.421875" xlink:href="#DejaVuSerif-107"/>
     <use x="943.017578" xlink:href="#DejaVuSerif-101"/>
     <use x="1002.197266" xlink:href="#DejaVuSerif-115"/>
    </g>
   </g>
   <g id="text_6">
    <!-- Stroke  -->
    <g style="fill:#e37678;" transform="translate(676.8 58.636875)scale(0.16 -0.16)">
     <defs>
      <path d="M 7.71875 3.515625 
L 7.71875 20.796875 
L 13.921875 20.796875 
Q 15.328125 12.59375 20.59375 8.546875 
Q 25.875 4.5 35.203125 4.5 
Q 42.78125 4.5 46.734375 7.375 
Q 50.6875 10.25 50.6875 15.828125 
Q 50.6875 20.21875 48 22.65625 
Q 45.3125 25.09375 36.921875 27.203125 
L 25.984375 29.890625 
Q 15.28125 32.625 10.9375 37.46875 
Q 6.59375 42.328125 6.59375 51.3125 
Q 6.59375 62.15625 13.796875 68.1875 
Q 21 74.21875 33.984375 74.21875 
Q 40.375 74.21875 47.28125 73.140625 
Q 54.203125 72.078125 61.625 69.921875 
L 61.625 53.8125 
L 55.421875 53.8125 
Q 54 61.328125 49.21875 64.8125 
Q 44.4375 68.3125 35.59375 68.3125 
Q 28.375 68.3125 24.6875 65.796875 
Q 21 63.28125 21 58.296875 
Q 21 53.765625 23.53125 51.390625 
Q 26.078125 49.03125 35.984375 46.484375 
L 46.921875 43.796875 
Q 57.078125 41.265625 61.640625 35.890625 
Q 66.21875 30.515625 66.21875 21.09375 
Q 66.21875 10.0625 58.59375 4.3125 
Q 50.984375 -1.421875 36.1875 -1.421875 
Q 29.046875 -1.421875 22.015625 -0.1875 
Q 14.984375 1.03125 7.71875 3.515625 
z
" id="DejaVuSerif-Bold-83"/>
      <path d="M 33.40625 4.109375 
Q 38.875 4.109375 41.09375 8.796875 
Q 43.3125 13.484375 43.3125 25.984375 
Q 43.3125 38.484375 41.109375 43.140625 
Q 38.921875 47.796875 33.40625 47.796875 
Q 27.875 47.796875 25.625 43.078125 
Q 23.390625 38.375 23.390625 25.984375 
Q 23.390625 13.578125 25.625 8.84375 
Q 27.875 4.109375 33.40625 4.109375 
z
M 33.40625 -1.421875 
Q 19.671875 -1.421875 11.890625 5.875 
Q 4.109375 13.1875 4.109375 25.984375 
Q 4.109375 38.8125 11.890625 46.0625 
Q 19.671875 53.328125 33.40625 53.328125 
Q 47.171875 53.328125 54.9375 46.0625 
Q 62.703125 38.8125 62.703125 25.984375 
Q 62.703125 13.1875 54.90625 5.875 
Q 47.125 -1.421875 33.40625 -1.421875 
z
" id="DejaVuSerif-Bold-111"/>
      <path d="M 34.625 0 
L 3.421875 0 
L 3.421875 5.90625 
L 10.796875 5.90625 
L 10.796875 70.125 
L 3.421875 70.125 
L 3.421875 75.984375 
L 28.078125 75.984375 
L 28.078125 27.203125 
L 49.03125 46 
L 42.828125 46 
L 42.828125 51.90625 
L 66.5 51.90625 
L 66.5 46 
L 56.890625 46 
L 43.5 33.984375 
L 65.375 5.90625 
L 71 5.90625 
L 71 0 
L 41.21875 0 
L 41.21875 5.90625 
L 47.3125 5.90625 
L 32.90625 24.421875 
L 28.078125 20.125 
L 28.078125 5.90625 
L 34.625 5.90625 
z
" id="DejaVuSerif-Bold-107"/>
      <path id="DejaVuSerif-Bold-32"/>
     </defs>
     <use xlink:href="#DejaVuSerif-Bold-83"/>
     <use x="72.216797" xlink:href="#DejaVuSerif-Bold-116"/>
     <use x="118.408203" xlink:href="#DejaVuSerif-Bold-114"/>
     <use x="171.09375" xlink:href="#DejaVuSerif-Bold-111"/>
     <use x="237.792969" xlink:href="#DejaVuSerif-Bold-107"/>
     <use x="307.080078" xlink:href="#DejaVuSerif-Bold-101"/>
     <use x="370.703125" xlink:href="#DejaVuSerif-Bold-32"/>
    </g>
   </g>
   <g id="text_7">
    <!-- | -->
    <g transform="translate(736.824857 58.636875)scale(0.16 -0.16)">
     <defs>
      <path d="M 8.59375 -21.046875 
L 8.59375 72.796875 
L 19.484375 72.796875 
L 19.484375 -21.046875 
z
" id="Arial-BoldMT-124"/>
     </defs>
     <use xlink:href="#Arial-BoldMT-124"/>
    </g>
   </g>
   <g id="text_8">
    <!-- Healthy -->
    <g style="fill:#8bcbe8;" transform="translate(745.912286 58.636875)scale(0.16 -0.16)">
     <defs>
      <path d="M 4.6875 0 
L 4.6875 5.90625 
L 14.015625 5.90625 
L 14.015625 67 
L 4.6875 67 
L 4.6875 72.90625 
L 42.1875 72.90625 
L 42.1875 67 
L 32.8125 67 
L 32.8125 42.484375 
L 61.8125 42.484375 
L 61.8125 67 
L 52.484375 67 
L 52.484375 72.90625 
L 89.984375 72.90625 
L 89.984375 67 
L 80.609375 67 
L 80.609375 5.90625 
L 89.984375 5.90625 
L 89.984375 0 
L 52.484375 0 
L 52.484375 5.90625 
L 61.8125 5.90625 
L 61.8125 35.796875 
L 32.8125 35.796875 
L 32.8125 5.90625 
L 42.1875 5.90625 
L 42.1875 0 
z
" id="DejaVuSerif-Bold-72"/>
     </defs>
     <use xlink:href="#DejaVuSerif-Bold-72"/>
     <use x="94.482422" xlink:href="#DejaVuSerif-Bold-101"/>
     <use x="158.105469" xlink:href="#DejaVuSerif-Bold-97"/>
     <use x="222.900391" xlink:href="#DejaVuSerif-Bold-108"/>
     <use x="260.888672" xlink:href="#DejaVuSerif-Bold-116"/>
     <use x="307.080078" xlink:href="#DejaVuSerif-Bold-104"/>
     <use x="379.785156" xlink:href="#DejaVuSerif-Bold-121"/>
    </g>
   </g>
   <g id="text_9">
    <!-- 115 -->
    <g style="fill:#e37678;" transform="translate(278.627143 172.792875)scale(0.14 -0.14)">
     <defs>
      <path d="M 13.71875 0 
L 13.71875 5.90625 
L 27.390625 5.90625 
L 27.390625 64.890625 
L 12.203125 55.90625 
L 12.203125 63.1875 
L 30.515625 74.21875 
L 45.90625 74.21875 
L 45.90625 5.90625 
L 59.625 5.90625 
L 59.625 0 
z
" id="DejaVuSerif-Bold-49"/>
      <path d="M 56.390625 72.90625 
L 56.390625 60.109375 
L 17.390625 60.109375 
L 17.390625 44.09375 
Q 20.609375 46.578125 24.5625 47.84375 
Q 28.515625 49.125 32.90625 49.125 
Q 46.390625 49.125 54.203125 42.3125 
Q 62.015625 35.5 62.015625 23.78125 
Q 62.015625 11.859375 54.203125 5.21875 
Q 46.390625 -1.421875 32.328125 -1.421875 
Q 26.375 -1.421875 20.484375 -0.4375 
Q 14.59375 0.53125 8.203125 2.59375 
L 8.203125 18.5 
L 14.0625 18.5 
Q 14.359375 11.328125 17.796875 7.8125 
Q 21.234375 4.296875 27.984375 4.296875 
Q 35.15625 4.296875 38.625 9.109375 
Q 42.09375 13.921875 42.09375 23.78125 
Q 42.09375 33.5 38.6875 38.296875 
Q 35.296875 43.109375 28.421875 43.109375 
Q 24.703125 43.109375 21.796875 41.578125 
Q 18.890625 40.046875 16.40625 36.8125 
L 11.53125 36.8125 
L 11.53125 72.90625 
z
" id="DejaVuSerif-Bold-53"/>
     </defs>
     <use xlink:href="#DejaVuSerif-Bold-49"/>
     <use x="69.580078" xlink:href="#DejaVuSerif-Bold-49"/>
     <use x="139.160156" xlink:href="#DejaVuSerif-Bold-53"/>
    </g>
   </g>
   <g id="text_10">
    <!-- 1797 -->
    <g style="fill:#8bcbe8;" transform="translate(604.339714 217.186875)scale(0.14 -0.14)">
     <defs>
      <path d="M 61.28125 60.5 
L 31.203125 0 
L 21.296875 0 
L 50.59375 59.078125 
L 14.59375 59.078125 
L 14.59375 49.21875 
L 7.90625 49.21875 
L 7.90625 72.90625 
L 61.28125 72.90625 
z
" id="DejaVuSerif-Bold-55"/>
      <path d="M 34.078125 68.5 
Q 29.046875 68.5 26.921875 64.234375 
Q 24.8125 59.96875 24.8125 49.421875 
Q 24.8125 38.875 26.921875 34.59375 
Q 29.046875 30.328125 34.078125 30.328125 
Q 39.109375 30.328125 41.25 34.59375 
Q 43.40625 38.875 43.40625 49.421875 
Q 43.40625 59.96875 41.25 64.234375 
Q 39.109375 68.5 34.078125 68.5 
z
M 44.96875 29.6875 
Q 41.75 27.09375 37.8125 25.796875 
Q 33.890625 24.515625 29.296875 24.515625 
Q 18.171875 24.515625 11.796875 31.03125 
Q 5.421875 37.546875 5.421875 49.03125 
Q 5.421875 61.140625 12.546875 67.671875 
Q 19.671875 74.21875 32.90625 74.21875 
Q 47.859375 74.21875 55.5625 65.1875 
Q 63.28125 56.15625 63.28125 38.71875 
Q 63.28125 18.84375 54.734375 8.703125 
Q 46.1875 -1.421875 29.390625 -1.421875 
Q 25 -1.421875 19.96875 -0.6875 
Q 14.9375 0.046875 9.1875 1.515625 
L 9.1875 14.40625 
L 15.09375 14.40625 
Q 16.3125 9.421875 19.703125 6.859375 
Q 23.09375 4.296875 28.515625 4.296875 
Q 37.109375 4.296875 41.015625 10.28125 
Q 44.921875 16.265625 44.96875 29.6875 
z
" id="DejaVuSerif-Bold-57"/>
     </defs>
     <use xlink:href="#DejaVuSerif-Bold-49"/>
     <use x="69.580078" xlink:href="#DejaVuSerif-Bold-55"/>
     <use x="139.160156" xlink:href="#DejaVuSerif-Bold-57"/>
     <use x="208.740234" xlink:href="#DejaVuSerif-Bold-55"/>
    </g>
   </g>
   <g id="text_11">
    <!-- 96 -->
    <g style="fill:#e37678;" transform="translate(276.474857 217.186875)scale(0.14 -0.14)">
     <defs>
      <path d="M 24.609375 43.21875 
Q 27.78125 45.75 31.703125 47.015625 
Q 35.640625 48.296875 40.28125 48.296875 
Q 51.46875 48.296875 57.828125 41.75 
Q 64.203125 35.203125 64.203125 23.78125 
Q 64.203125 11.71875 57.03125 5.140625 
Q 49.859375 -1.421875 36.625 -1.421875 
Q 21.6875 -1.421875 13.984375 7.59375 
Q 6.296875 16.609375 6.296875 34.078125 
Q 6.296875 53.953125 14.84375 64.078125 
Q 23.390625 74.21875 40.1875 74.21875 
Q 44.578125 74.21875 49.609375 73.484375 
Q 54.640625 72.75 60.40625 71.296875 
L 60.40625 58.40625 
L 54.5 58.40625 
Q 53.265625 63.375 49.875 65.9375 
Q 46.484375 68.5 41.109375 68.5 
Q 32.421875 68.5 28.53125 62.546875 
Q 24.65625 56.59375 24.609375 43.21875 
z
M 35.5 4.296875 
Q 40.53125 4.296875 42.671875 8.5625 
Q 44.828125 12.84375 44.828125 23.390625 
Q 44.828125 33.9375 42.671875 38.203125 
Q 40.53125 42.484375 35.5 42.484375 
Q 30.46875 42.484375 28.34375 38.203125 
Q 26.21875 33.9375 26.21875 23.390625 
Q 26.21875 12.84375 28.34375 8.5625 
Q 30.46875 4.296875 35.5 4.296875 
z
" id="DejaVuSerif-Bold-54"/>
     </defs>
     <use xlink:href="#DejaVuSerif-Bold-57"/>
     <use x="69.580078" xlink:href="#DejaVuSerif-Bold-54"/>
    </g>
   </g>
   <g id="text_12">
    <!-- 1495 -->
    <g style="fill:#8bcbe8;" transform="translate(538.097143 172.792875)scale(0.14 -0.14)">
     <defs>
      <path d="M 63.8125 0 
L 23.6875 0 
L 23.6875 5.90625 
L 34.515625 5.90625 
L 34.515625 19.1875 
L 4.109375 19.1875 
L 4.109375 24.8125 
L 34.625 74.21875 
L 52.984375 74.21875 
L 52.984375 25.484375 
L 65.484375 25.484375 
L 65.484375 19.1875 
L 52.984375 19.1875 
L 52.984375 5.90625 
L 63.8125 5.90625 
z
M 34.515625 25.484375 
L 34.515625 60.890625 
L 12.796875 25.484375 
z
" id="DejaVuSerif-Bold-52"/>
     </defs>
     <use xlink:href="#DejaVuSerif-Bold-49"/>
     <use x="69.580078" xlink:href="#DejaVuSerif-Bold-52"/>
     <use x="139.160156" xlink:href="#DejaVuSerif-Bold-57"/>
     <use x="208.740234" xlink:href="#DejaVuSerif-Bold-53"/>
    </g>
   </g>
   <g id="text_13">
    <!-- 37 -->
    <g style="fill:#e37678;" transform="translate(264.756857 126.586875)scale(0.14 -0.14)">
     <defs>
      <path d="M 8.59375 70.796875 
Q 15.046875 72.515625 21.09375 73.359375 
Q 27.15625 74.21875 32.90625 74.21875 
Q 46.09375 74.21875 53.140625 69.5 
Q 60.203125 64.796875 60.203125 56 
Q 60.203125 49.421875 56.140625 45.3125 
Q 52.09375 41.21875 44.28125 39.796875 
Q 53.8125 38.28125 58.5 33.296875 
Q 63.1875 28.328125 63.1875 19.671875 
Q 63.1875 9.46875 55.09375 4.015625 
Q 47.015625 -1.421875 31.6875 -1.421875 
Q 25.921875 -1.421875 19.796875 -0.4375 
Q 13.671875 0.53125 6.984375 2.484375 
L 6.984375 18.5 
L 12.890625 18.5 
Q 13.421875 11.578125 17.234375 7.9375 
Q 21.046875 4.296875 27.78125 4.296875 
Q 35.203125 4.296875 39.25 8.421875 
Q 43.3125 12.546875 43.3125 20.125 
Q 43.3125 28.03125 39.078125 32.328125 
Q 34.859375 36.625 27.09375 36.625 
L 23.875 36.625 
L 23.875 42.484375 
L 26.421875 42.484375 
Q 33.59375 42.484375 37.203125 45.796875 
Q 40.828125 49.125 40.828125 55.71875 
Q 40.828125 61.921875 37.421875 65.203125 
Q 34.03125 68.5 27.6875 68.5 
Q 21.921875 68.5 18.546875 65.34375 
Q 15.1875 62.203125 14.5 56.203125 
L 8.59375 56.203125 
z
" id="DejaVuSerif-Bold-51"/>
     </defs>
     <use xlink:href="#DejaVuSerif-Bold-51"/>
     <use x="69.580078" xlink:href="#DejaVuSerif-Bold-55"/>
    </g>
   </g>
   <g id="text_14">
    <!-- 1158 -->
    <g style="fill:#8bcbe8;" transform="translate(457.506 126.586875)scale(0.14 -0.14)">
     <defs>
      <path d="M 46.484375 38.8125 
Q 55.171875 37.40625 59.6875 32.421875 
Q 64.203125 27.4375 64.203125 19.390625 
Q 64.203125 9.328125 56.609375 3.953125 
Q 49.03125 -1.421875 34.71875 -1.421875 
Q 20.40625 -1.421875 12.78125 3.953125 
Q 5.171875 9.328125 5.171875 19.390625 
Q 5.171875 27.4375 9.71875 32.421875 
Q 14.265625 37.40625 22.90625 38.8125 
Q 15.234375 40.578125 11.421875 44.703125 
Q 7.625 48.828125 7.625 55.171875 
Q 7.625 64.453125 14.546875 69.328125 
Q 21.484375 74.21875 34.71875 74.21875 
Q 47.90625 74.21875 54.859375 69.328125 
Q 61.8125 64.453125 61.8125 55.171875 
Q 61.8125 48.828125 57.984375 44.703125 
Q 54.15625 40.578125 46.484375 38.8125 
z
M 42.921875 54.984375 
Q 42.921875 62.703125 41.0625 65.59375 
Q 39.203125 68.5 34.71875 68.5 
Q 30.171875 68.5 28.34375 65.59375 
Q 26.515625 62.703125 26.515625 54.984375 
Q 26.515625 47.3125 28.34375 44.453125 
Q 30.171875 41.609375 34.71875 41.609375 
Q 39.265625 41.609375 41.09375 44.453125 
Q 42.921875 47.3125 42.921875 54.984375 
z
M 44.828125 20.21875 
Q 44.828125 29.15625 42.546875 32.515625 
Q 40.28125 35.890625 34.71875 35.890625 
Q 29.109375 35.890625 26.859375 32.515625 
Q 24.609375 29.15625 24.609375 20.21875 
Q 24.609375 11.1875 26.875 7.734375 
Q 29.15625 4.296875 34.71875 4.296875 
Q 40.234375 4.296875 42.53125 7.734375 
Q 44.828125 11.1875 44.828125 20.21875 
z
" id="DejaVuSerif-Bold-56"/>
     </defs>
     <use xlink:href="#DejaVuSerif-Bold-49"/>
     <use x="69.580078" xlink:href="#DejaVuSerif-Bold-49"/>
     <use x="139.160156" xlink:href="#DejaVuSerif-Bold-53"/>
     <use x="208.740234" xlink:href="#DejaVuSerif-Bold-56"/>
    </g>
   </g>
   <g id="text_15">
    <!-- 1 -->
    <g style="fill:#e37678;" transform="translate(251.364857 81.286875)scale(0.14 -0.14)">
     <use xlink:href="#DejaVuSerif-Bold-49"/>
    </g>
   </g>
   <g id="text_16">
    <!-- 410 -->
    <g style="fill:#8bcbe8;" transform="translate(306.606857 81.286875)scale(0.14 -0.14)">
     <defs>
      <path d="M 34.8125 4.296875 
Q 40.671875 4.296875 42.84375 9.609375 
Q 45.015625 14.9375 45.015625 36.375 
Q 45.015625 57.671875 42.84375 63.078125 
Q 40.671875 68.5 34.8125 68.5 
Q 28.953125 68.5 26.78125 63.171875 
Q 24.609375 57.859375 24.609375 36.375 
Q 24.609375 14.9375 26.78125 9.609375 
Q 28.953125 4.296875 34.8125 4.296875 
z
M 34.8125 -1.421875 
Q 20.21875 -1.421875 12.453125 8.3125 
Q 4.6875 18.0625 4.6875 36.375 
Q 4.6875 54.6875 12.453125 64.453125 
Q 20.21875 74.21875 34.8125 74.21875 
Q 49.359375 74.21875 57.125 64.453125 
Q 64.890625 54.6875 64.890625 36.375 
Q 64.890625 18.0625 57.125 8.3125 
Q 49.359375 -1.421875 34.8125 -1.421875 
z
" id="DejaVuSerif-Bold-48"/>
     </defs>
     <use xlink:href="#DejaVuSerif-Bold-52"/>
     <use x="69.580078" xlink:href="#DejaVuSerif-Bold-49"/>
     <use x="139.160156" xlink:href="#DejaVuSerif-Bold-48"/>
    </g>
   </g>
  </g>
 </g>
 <defs>
  <clipPath id="p5e33e510c6">
   <rect height="271.8" width="837" x="126.771429" y="13.336875"/>
  </clipPath>
 </defs>
</svg>
