<?xml version="1.0" encoding="utf-8" standalone="no"?>
<!DOCTYPE svg PUBLIC "-//W3C//DTD SVG 1.1//EN"
  "http://www.w3.org/Graphics/SVG/1.1/DTD/svg11.dtd">
<!-- Created with matplotlib (https://matplotlib.org/) -->
<svg height="289.229063pt" version="1.1" viewBox="0 0 868.44024 289.229063" width="868.44024pt" xmlns="http://www.w3.org/2000/svg" xmlns:xlink="http://www.w3.org/1999/xlink">
 <metadata>
  <rdf:RDF xmlns:cc="http://creativecommons.org/ns#" xmlns:dc="http://purl.org/dc/elements/1.1/" xmlns:rdf="http://www.w3.org/1999/02/22-rdf-syntax-ns#">
   <cc:Work>
    <dc:type rdf:resource="http://purl.org/dc/dcmitype/StillImage"/>
    <dc:date>2021-12-13T21:31:15.706939</dc:date>
    <dc:format>image/svg+xml</dc:format>
    <dc:creator>
     <cc:Agent>
      <dc:title>Matplotlib v3.3.4, https://matplotlib.org/</dc:title>
     </cc:Agent>
    </dc:creator>
   </cc:Work>
  </rdf:RDF>
 </metadata>
 <defs>
  <style type="text/css">*{stroke-linecap:butt;stroke-linejoin:round;}</style>
 </defs>
 <g id="figure_1">
  <g id="patch_1">
   <path d="M 0 289.229063 
L 868.44024 289.229063 
L 868.44024 -0 
L 0 -0 
z
" style="fill:#ffffff;"/>
  </g>
  <g id="axes_1">
   <g id="text_1">
    <!--  -->
    <g style="fill:#e37678;" transform="translate(194.958653 84.54242)scale(0.2 -0.2)">
     <defs>
      <path d="M 50 85.9375 
C 23.25 85.9375 1.5625 64.0625 1.5625 37.5 
C 1.5625 10.75 23.25 -10.9375 50 -10.9375 
C 76.5625 -10.9375 98.4375 10.75 98.4375 37.5 
C 98.4375 64.0625 76.5625 85.9375 50 85.9375 
z
M 75.390625 62.890625 
C 88.09375 50 89.0625 30.46875 79.296875 16.796875 
L 29.296875 66.796875 
C 42.96875 76.5625 62.5 75.59375 75.390625 62.890625 
z
M 24.421875 11.921875 
C 11.71875 24.8125 10.75 44.34375 20.515625 58.015625 
L 70.515625 8.015625 
C 56.84375 -1.765625 37.3125 -0.78125 24.421875 11.921875 
z
" id="FontAwesome5Free-Solid-61534"/>
     </defs>
     <use xlink:href="#FontAwesome5Free-Solid-61534"/>
    </g>
   </g>
   <g id="text_2">
    <!--  -->
    <g style="fill:#e37678;" transform="translate(169.825504 84.54242)scale(0.2 -0.2)">
     <use xlink:href="#FontAwesome5Free-Solid-61534"/>
    </g>
   </g>
   <g id="text_3">
    <!--  -->
    <g style="fill:#8bcbe8;" transform="translate(144.692356 84.54242)scale(0.2 -0.2)">
     <use xlink:href="#FontAwesome5Free-Solid-61534"/>
    </g>
   </g>
   <g id="text_4">
    <!--  -->
    <g style="fill:#8bcbe8;" transform="translate(119.559207 84.54242)scale(0.2 -0.2)">
     <use xlink:href="#FontAwesome5Free-Solid-61534"/>
    </g>
   </g>
   <g id="text_5">
    <!--  -->
    <g style="fill:#8bcbe8;" transform="translate(94.426058 84.54242)scale(0.2 -0.2)">
     <use xlink:href="#FontAwesome5Free-Solid-61534"/>
    </g>
   </g>
   <g id="text_6">
    <!--  -->
    <g style="fill:#8bcbe8;" transform="translate(69.292909 84.54242)scale(0.2 -0.2)">
     <use xlink:href="#FontAwesome5Free-Solid-61534"/>
    </g>
   </g>
   <g id="text_7">
    <!--  -->
    <g style="fill:#8bcbe8;" transform="translate(44.15976 84.54242)scale(0.2 -0.2)">
     <use xlink:href="#FontAwesome5Free-Solid-61534"/>
    </g>
   </g>
   <g id="text_8">
    <!--  -->
    <g style="fill:#8bcbe8;" transform="translate(194.958653 109.675569)scale(0.2 -0.2)">
     <use xlink:href="#FontAwesome5Free-Solid-61534"/>
    </g>
   </g>
   <g id="text_9">
    <!--  -->
    <g style="fill:#8bcbe8;" transform="translate(169.825504 109.675569)scale(0.2 -0.2)">
     <use xlink:href="#FontAwesome5Free-Solid-61534"/>
    </g>
   </g>
   <g id="text_10">
    <!--  -->
    <g style="fill:#8bcbe8;" transform="translate(144.692356 109.675569)scale(0.2 -0.2)">
     <use xlink:href="#FontAwesome5Free-Solid-61534"/>
    </g>
   </g>
   <g id="text_11">
    <!--  -->
    <g style="fill:#8bcbe8;" transform="translate(119.559207 109.675569)scale(0.2 -0.2)">
     <use xlink:href="#FontAwesome5Free-Solid-61534"/>
    </g>
   </g>
   <g id="text_12">
    <!--  -->
    <g style="fill:#8bcbe8;" transform="translate(94.426058 109.675569)scale(0.2 -0.2)">
     <use xlink:href="#FontAwesome5Free-Solid-61534"/>
    </g>
   </g>
   <g id="text_13">
    <!--  -->
    <g style="fill:#8bcbe8;" transform="translate(69.292909 109.675569)scale(0.2 -0.2)">
     <use xlink:href="#FontAwesome5Free-Solid-61534"/>
    </g>
   </g>
   <g id="text_14">
    <!--  -->
    <g style="fill:#8bcbe8;" transform="translate(44.15976 109.675569)scale(0.2 -0.2)">
     <use xlink:href="#FontAwesome5Free-Solid-61534"/>
    </g>
   </g>
   <g id="text_15">
    <!--  -->
    <g style="fill:#8bcbe8;" transform="translate(194.958653 134.808718)scale(0.2 -0.2)">
     <use xlink:href="#FontAwesome5Free-Solid-61534"/>
    </g>
   </g>
   <g id="text_16">
    <!--  -->
    <g style="fill:#8bcbe8;" transform="translate(169.825504 134.808718)scale(0.2 -0.2)">
     <use xlink:href="#FontAwesome5Free-Solid-61534"/>
    </g>
   </g>
   <g id="text_17">
    <!--  -->
    <g style="fill:#8bcbe8;" transform="translate(144.692356 134.808718)scale(0.2 -0.2)">
     <use xlink:href="#FontAwesome5Free-Solid-61534"/>
    </g>
   </g>
   <g id="text_18">
    <!--  -->
    <g style="fill:#8bcbe8;" transform="translate(119.559207 134.808718)scale(0.2 -0.2)">
     <use xlink:href="#FontAwesome5Free-Solid-61534"/>
    </g>
   </g>
   <g id="text_19">
    <!--  -->
    <g style="fill:#8bcbe8;" transform="translate(94.426058 134.808718)scale(0.2 -0.2)">
     <use xlink:href="#FontAwesome5Free-Solid-61534"/>
    </g>
   </g>
   <g id="text_20">
    <!--  -->
    <g style="fill:#8bcbe8;" transform="translate(69.292909 134.808718)scale(0.2 -0.2)">
     <use xlink:href="#FontAwesome5Free-Solid-61534"/>
    </g>
   </g>
   <g id="text_21">
    <!--  -->
    <g style="fill:#8bcbe8;" transform="translate(44.15976 134.808718)scale(0.2 -0.2)">
     <use xlink:href="#FontAwesome5Free-Solid-61534"/>
    </g>
   </g>
   <g id="text_22">
    <!--  -->
    <g style="fill:#8bcbe8;" transform="translate(194.958653 159.941867)scale(0.2 -0.2)">
     <use xlink:href="#FontAwesome5Free-Solid-61534"/>
    </g>
   </g>
   <g id="text_23">
    <!--  -->
    <g style="fill:#8bcbe8;" transform="translate(169.825504 159.941867)scale(0.2 -0.2)">
     <use xlink:href="#FontAwesome5Free-Solid-61534"/>
    </g>
   </g>
   <g id="text_24">
    <!--  -->
    <g style="fill:#8bcbe8;" transform="translate(144.692356 159.941867)scale(0.2 -0.2)">
     <use xlink:href="#FontAwesome5Free-Solid-61534"/>
    </g>
   </g>
   <g id="text_25">
    <!--  -->
    <g style="fill:#8bcbe8;" transform="translate(119.559207 159.941867)scale(0.2 -0.2)">
     <use xlink:href="#FontAwesome5Free-Solid-61534"/>
    </g>
   </g>
   <g id="text_26">
    <!--  -->
    <g style="fill:#8bcbe8;" transform="translate(94.426058 159.941867)scale(0.2 -0.2)">
     <use xlink:href="#FontAwesome5Free-Solid-61534"/>
    </g>
   </g>
   <g id="text_27">
    <!--  -->
    <g style="fill:#8bcbe8;" transform="translate(69.292909 159.941867)scale(0.2 -0.2)">
     <use xlink:href="#FontAwesome5Free-Solid-61534"/>
    </g>
   </g>
   <g id="text_28">
    <!--  -->
    <g style="fill:#8bcbe8;" transform="translate(44.15976 159.941867)scale(0.2 -0.2)">
     <use xlink:href="#FontAwesome5Free-Solid-61534"/>
    </g>
   </g>
   <g id="text_29">
    <!--  -->
    <g style="fill:#8bcbe8;" transform="translate(194.958653 185.075016)scale(0.2 -0.2)">
     <use xlink:href="#FontAwesome5Free-Solid-61534"/>
    </g>
   </g>
   <g id="text_30">
    <!--  -->
    <g style="fill:#8bcbe8;" transform="translate(169.825504 185.075016)scale(0.2 -0.2)">
     <use xlink:href="#FontAwesome5Free-Solid-61534"/>
    </g>
   </g>
   <g id="text_31">
    <!--  -->
    <g style="fill:#8bcbe8;" transform="translate(144.692356 185.075016)scale(0.2 -0.2)">
     <use xlink:href="#FontAwesome5Free-Solid-61534"/>
    </g>
   </g>
   <g id="text_32">
    <!--  -->
    <g style="fill:#8bcbe8;" transform="translate(119.559207 185.075016)scale(0.2 -0.2)">
     <use xlink:href="#FontAwesome5Free-Solid-61534"/>
    </g>
   </g>
   <g id="text_33">
    <!--  -->
    <g style="fill:#8bcbe8;" transform="translate(94.426058 185.075016)scale(0.2 -0.2)">
     <use xlink:href="#FontAwesome5Free-Solid-61534"/>
    </g>
   </g>
   <g id="text_34">
    <!--  -->
    <g style="fill:#8bcbe8;" transform="translate(69.292909 185.075016)scale(0.2 -0.2)">
     <use xlink:href="#FontAwesome5Free-Solid-61534"/>
    </g>
   </g>
   <g id="text_35">
    <!--  -->
    <g style="fill:#8bcbe8;" transform="translate(44.15976 185.075016)scale(0.2 -0.2)">
     <use xlink:href="#FontAwesome5Free-Solid-61534"/>
    </g>
   </g>
   <g id="text_36">
    <!--  -->
    <g style="fill:#8bcbe8;" transform="translate(194.958653 210.208164)scale(0.2 -0.2)">
     <use xlink:href="#FontAwesome5Free-Solid-61534"/>
    </g>
   </g>
   <g id="text_37">
    <!--  -->
    <g style="fill:#8bcbe8;" transform="translate(169.825504 210.208164)scale(0.2 -0.2)">
     <use xlink:href="#FontAwesome5Free-Solid-61534"/>
    </g>
   </g>
   <g id="text_38">
    <!--  -->
    <g style="fill:#8bcbe8;" transform="translate(144.692356 210.208164)scale(0.2 -0.2)">
     <use xlink:href="#FontAwesome5Free-Solid-61534"/>
    </g>
   </g>
   <g id="text_39">
    <!--  -->
    <g style="fill:#8bcbe8;" transform="translate(119.559207 210.208164)scale(0.2 -0.2)">
     <use xlink:href="#FontAwesome5Free-Solid-61534"/>
    </g>
   </g>
   <g id="text_40">
    <!--  -->
    <g style="fill:#8bcbe8;" transform="translate(94.426058 210.208164)scale(0.2 -0.2)">
     <use xlink:href="#FontAwesome5Free-Solid-61534"/>
    </g>
   </g>
   <g id="text_41">
    <!--  -->
    <g style="fill:#8bcbe8;" transform="translate(69.292909 210.208164)scale(0.2 -0.2)">
     <use xlink:href="#FontAwesome5Free-Solid-61534"/>
    </g>
   </g>
   <g id="text_42">
    <!--  -->
    <g style="fill:#8bcbe8;" transform="translate(44.15976 210.208164)scale(0.2 -0.2)">
     <use xlink:href="#FontAwesome5Free-Solid-61534"/>
    </g>
   </g>
   <g id="text_43">
    <!--  -->
    <g style="fill:#8bcbe8;" transform="translate(194.958653 235.341313)scale(0.2 -0.2)">
     <use xlink:href="#FontAwesome5Free-Solid-61534"/>
    </g>
   </g>
   <g id="text_44">
    <!--  -->
    <g style="fill:#8bcbe8;" transform="translate(169.825504 235.341313)scale(0.2 -0.2)">
     <use xlink:href="#FontAwesome5Free-Solid-61534"/>
    </g>
   </g>
   <g id="text_45">
    <!--  -->
    <g style="fill:#8bcbe8;" transform="translate(144.692356 235.341313)scale(0.2 -0.2)">
     <use xlink:href="#FontAwesome5Free-Solid-61534"/>
    </g>
   </g>
   <g id="text_46">
    <!--  -->
    <g style="fill:#8bcbe8;" transform="translate(119.559207 235.341313)scale(0.2 -0.2)">
     <use xlink:href="#FontAwesome5Free-Solid-61534"/>
    </g>
   </g>
   <g id="text_47">
    <!--  -->
    <g style="fill:#8bcbe8;" transform="translate(94.426058 235.341313)scale(0.2 -0.2)">
     <use xlink:href="#FontAwesome5Free-Solid-61534"/>
    </g>
   </g>
   <g id="text_48">
    <!--  -->
    <g style="fill:#8bcbe8;" transform="translate(69.292909 235.341313)scale(0.2 -0.2)">
     <use xlink:href="#FontAwesome5Free-Solid-61534"/>
    </g>
   </g>
   <g id="text_49">
    <!--  -->
    <g style="fill:#8bcbe8;" transform="translate(44.15976 235.341313)scale(0.2 -0.2)">
     <use xlink:href="#FontAwesome5Free-Solid-61534"/>
    </g>
   </g>
  </g>
  <g id="axes_2">
   <g id="text_50">
    <!--  -->
    <g style="fill:#e37678;" transform="translate(408.716479 84.54242)scale(0.2 -0.2)">
     <defs>
      <path d="M 18.75 28.125 
C 18.75 26.375 20.125 25 21.875 25 
L 44.734375 25 
L 25.984375 43.75 
L 21.875 43.75 
C 20.125 43.75 18.75 42.1875 18.75 40.625 
z
M 50 87.5 
C 22.265625 87.5 0 65.046875 0 37.5 
C 0 9.765625 22.265625 -12.5 50 -12.5 
C 77.546875 -12.5 100 9.765625 100 37.5 
C 100 65.046875 77.546875 87.5 50 87.5 
z
M 50 0 
C 29.296875 0 12.5 16.796875 12.5 37.5 
C 12.5 45.515625 15.046875 52.9375 19.34375 59.1875 
L 71.6875 6.84375 
C 65.4375 2.546875 58.015625 0 50 0 
z
M 58.796875 37.5 
L 75 37.5 
L 75 31.25 
L 65.046875 31.25 
z
M 80.46875 15.625 
L 71.296875 25 
L 78.125 25 
C 79.6875 25 81.25 26.375 81.25 28.125 
L 81.25 40.625 
C 81.25 42.1875 79.6875 43.75 78.125 43.75 
L 52.546875 43.75 
L 28.125 67.96875 
C 34.375 72.265625 41.796875 75 50 75 
C 70.515625 75 87.5 58.015625 87.5 37.5 
C 87.5 29.296875 84.765625 21.875 80.46875 15.625 
z
M 62.5 62.5 
C 59.578125 62.5 57.03125 64.65625 56.453125 67.390625 
C 56.25 68.171875 55.671875 68.75 54.890625 68.75 
L 51.765625 68.75 
C 50.78125 68.75 50 67.78125 50.203125 66.796875 
C 50.984375 60.75 56.25 56.25 62.5 56.25 
C 65.625 56.25 68.171875 53.90625 68.75 51.171875 
C 68.75 50.390625 69.53125 50 70.125 50 
L 73.25 50 
C 74.21875 50 75 50.78125 74.8125 51.765625 
C 74.03125 57.8125 68.75 62.5 62.5 62.5 
z
" id="FontAwesome5Free-Solid-62797"/>
     </defs>
     <use xlink:href="#FontAwesome5Free-Solid-62797"/>
    </g>
   </g>
   <g id="text_51">
    <!--  -->
    <g style="fill:#e37678;" transform="translate(383.583331 84.54242)scale(0.2 -0.2)">
     <use xlink:href="#FontAwesome5Free-Solid-62797"/>
    </g>
   </g>
   <g id="text_52">
    <!--  -->
    <g style="fill:#e37678;" transform="translate(358.450182 84.54242)scale(0.2 -0.2)">
     <use xlink:href="#FontAwesome5Free-Solid-62797"/>
    </g>
   </g>
   <g id="text_53">
    <!--  -->
    <g style="fill:#e37678;" transform="translate(333.317033 84.54242)scale(0.2 -0.2)">
     <use xlink:href="#FontAwesome5Free-Solid-62797"/>
    </g>
   </g>
   <g id="text_54">
    <!--  -->
    <g style="fill:#8bcbe8;" transform="translate(308.183884 84.54242)scale(0.2 -0.2)">
     <use xlink:href="#FontAwesome5Free-Solid-62797"/>
    </g>
   </g>
   <g id="text_55">
    <!--  -->
    <g style="fill:#8bcbe8;" transform="translate(283.050735 84.54242)scale(0.2 -0.2)">
     <use xlink:href="#FontAwesome5Free-Solid-62797"/>
    </g>
   </g>
   <g id="text_56">
    <!--  -->
    <g style="fill:#8bcbe8;" transform="translate(257.917586 84.54242)scale(0.2 -0.2)">
     <use xlink:href="#FontAwesome5Free-Solid-62797"/>
    </g>
   </g>
   <g id="text_57">
    <!--  -->
    <g style="fill:#8bcbe8;" transform="translate(408.716479 109.675569)scale(0.2 -0.2)">
     <use xlink:href="#FontAwesome5Free-Solid-62797"/>
    </g>
   </g>
   <g id="text_58">
    <!--  -->
    <g style="fill:#8bcbe8;" transform="translate(383.583331 109.675569)scale(0.2 -0.2)">
     <use xlink:href="#FontAwesome5Free-Solid-62797"/>
    </g>
   </g>
   <g id="text_59">
    <!--  -->
    <g style="fill:#8bcbe8;" transform="translate(358.450182 109.675569)scale(0.2 -0.2)">
     <use xlink:href="#FontAwesome5Free-Solid-62797"/>
    </g>
   </g>
   <g id="text_60">
    <!--  -->
    <g style="fill:#8bcbe8;" transform="translate(333.317033 109.675569)scale(0.2 -0.2)">
     <use xlink:href="#FontAwesome5Free-Solid-62797"/>
    </g>
   </g>
   <g id="text_61">
    <!--  -->
    <g style="fill:#8bcbe8;" transform="translate(308.183884 109.675569)scale(0.2 -0.2)">
     <use xlink:href="#FontAwesome5Free-Solid-62797"/>
    </g>
   </g>
   <g id="text_62">
    <!--  -->
    <g style="fill:#8bcbe8;" transform="translate(283.050735 109.675569)scale(0.2 -0.2)">
     <use xlink:href="#FontAwesome5Free-Solid-62797"/>
    </g>
   </g>
   <g id="text_63">
    <!--  -->
    <g style="fill:#8bcbe8;" transform="translate(257.917586 109.675569)scale(0.2 -0.2)">
     <use xlink:href="#FontAwesome5Free-Solid-62797"/>
    </g>
   </g>
   <g id="text_64">
    <!--  -->
    <g style="fill:#8bcbe8;" transform="translate(408.716479 134.808718)scale(0.2 -0.2)">
     <use xlink:href="#FontAwesome5Free-Solid-62797"/>
    </g>
   </g>
   <g id="text_65">
    <!--  -->
    <g style="fill:#8bcbe8;" transform="translate(383.583331 134.808718)scale(0.2 -0.2)">
     <use xlink:href="#FontAwesome5Free-Solid-62797"/>
    </g>
   </g>
   <g id="text_66">
    <!--  -->
    <g style="fill:#8bcbe8;" transform="translate(358.450182 134.808718)scale(0.2 -0.2)">
     <use xlink:href="#FontAwesome5Free-Solid-62797"/>
    </g>
   </g>
   <g id="text_67">
    <!--  -->
    <g style="fill:#8bcbe8;" transform="translate(333.317033 134.808718)scale(0.2 -0.2)">
     <use xlink:href="#FontAwesome5Free-Solid-62797"/>
    </g>
   </g>
   <g id="text_68">
    <!--  -->
    <g style="fill:#8bcbe8;" transform="translate(308.183884 134.808718)scale(0.2 -0.2)">
     <use xlink:href="#FontAwesome5Free-Solid-62797"/>
    </g>
   </g>
   <g id="text_69">
    <!--  -->
    <g style="fill:#8bcbe8;" transform="translate(283.050735 134.808718)scale(0.2 -0.2)">
     <use xlink:href="#FontAwesome5Free-Solid-62797"/>
    </g>
   </g>
   <g id="text_70">
    <!--  -->
    <g style="fill:#8bcbe8;" transform="translate(257.917586 134.808718)scale(0.2 -0.2)">
     <use xlink:href="#FontAwesome5Free-Solid-62797"/>
    </g>
   </g>
   <g id="text_71">
    <!--  -->
    <g style="fill:#8bcbe8;" transform="translate(408.716479 159.941867)scale(0.2 -0.2)">
     <use xlink:href="#FontAwesome5Free-Solid-62797"/>
    </g>
   </g>
   <g id="text_72">
    <!--  -->
    <g style="fill:#8bcbe8;" transform="translate(383.583331 159.941867)scale(0.2 -0.2)">
     <use xlink:href="#FontAwesome5Free-Solid-62797"/>
    </g>
   </g>
   <g id="text_73">
    <!--  -->
    <g style="fill:#8bcbe8;" transform="translate(358.450182 159.941867)scale(0.2 -0.2)">
     <use xlink:href="#FontAwesome5Free-Solid-62797"/>
    </g>
   </g>
   <g id="text_74">
    <!--  -->
    <g style="fill:#8bcbe8;" transform="translate(333.317033 159.941867)scale(0.2 -0.2)">
     <use xlink:href="#FontAwesome5Free-Solid-62797"/>
    </g>
   </g>
   <g id="text_75">
    <!--  -->
    <g style="fill:#8bcbe8;" transform="translate(308.183884 159.941867)scale(0.2 -0.2)">
     <use xlink:href="#FontAwesome5Free-Solid-62797"/>
    </g>
   </g>
   <g id="text_76">
    <!--  -->
    <g style="fill:#8bcbe8;" transform="translate(283.050735 159.941867)scale(0.2 -0.2)">
     <use xlink:href="#FontAwesome5Free-Solid-62797"/>
    </g>
   </g>
   <g id="text_77">
    <!--  -->
    <g style="fill:#8bcbe8;" transform="translate(257.917586 159.941867)scale(0.2 -0.2)">
     <use xlink:href="#FontAwesome5Free-Solid-62797"/>
    </g>
   </g>
   <g id="text_78">
    <!--  -->
    <g style="fill:#8bcbe8;" transform="translate(408.716479 185.075016)scale(0.2 -0.2)">
     <use xlink:href="#FontAwesome5Free-Solid-62797"/>
    </g>
   </g>
   <g id="text_79">
    <!--  -->
    <g style="fill:#8bcbe8;" transform="translate(383.583331 185.075016)scale(0.2 -0.2)">
     <use xlink:href="#FontAwesome5Free-Solid-62797"/>
    </g>
   </g>
   <g id="text_80">
    <!--  -->
    <g style="fill:#8bcbe8;" transform="translate(358.450182 185.075016)scale(0.2 -0.2)">
     <use xlink:href="#FontAwesome5Free-Solid-62797"/>
    </g>
   </g>
   <g id="text_81">
    <!--  -->
    <g style="fill:#8bcbe8;" transform="translate(333.317033 185.075016)scale(0.2 -0.2)">
     <use xlink:href="#FontAwesome5Free-Solid-62797"/>
    </g>
   </g>
   <g id="text_82">
    <!--  -->
    <g style="fill:#8bcbe8;" transform="translate(308.183884 185.075016)scale(0.2 -0.2)">
     <use xlink:href="#FontAwesome5Free-Solid-62797"/>
    </g>
   </g>
   <g id="text_83">
    <!--  -->
    <g style="fill:#8bcbe8;" transform="translate(283.050735 185.075016)scale(0.2 -0.2)">
     <use xlink:href="#FontAwesome5Free-Solid-62797"/>
    </g>
   </g>
   <g id="text_84">
    <!--  -->
    <g style="fill:#8bcbe8;" transform="translate(257.917586 185.075016)scale(0.2 -0.2)">
     <use xlink:href="#FontAwesome5Free-Solid-62797"/>
    </g>
   </g>
   <g id="text_85">
    <!--  -->
    <g style="fill:#8bcbe8;" transform="translate(408.716479 210.208164)scale(0.2 -0.2)">
     <use xlink:href="#FontAwesome5Free-Solid-62797"/>
    </g>
   </g>
   <g id="text_86">
    <!--  -->
    <g style="fill:#8bcbe8;" transform="translate(383.583331 210.208164)scale(0.2 -0.2)">
     <use xlink:href="#FontAwesome5Free-Solid-62797"/>
    </g>
   </g>
   <g id="text_87">
    <!--  -->
    <g style="fill:#8bcbe8;" transform="translate(358.450182 210.208164)scale(0.2 -0.2)">
     <use xlink:href="#FontAwesome5Free-Solid-62797"/>
    </g>
   </g>
   <g id="text_88">
    <!--  -->
    <g style="fill:#8bcbe8;" transform="translate(333.317033 210.208164)scale(0.2 -0.2)">
     <use xlink:href="#FontAwesome5Free-Solid-62797"/>
    </g>
   </g>
   <g id="text_89">
    <!--  -->
    <g style="fill:#8bcbe8;" transform="translate(308.183884 210.208164)scale(0.2 -0.2)">
     <use xlink:href="#FontAwesome5Free-Solid-62797"/>
    </g>
   </g>
   <g id="text_90">
    <!--  -->
    <g style="fill:#8bcbe8;" transform="translate(283.050735 210.208164)scale(0.2 -0.2)">
     <use xlink:href="#FontAwesome5Free-Solid-62797"/>
    </g>
   </g>
   <g id="text_91">
    <!--  -->
    <g style="fill:#8bcbe8;" transform="translate(257.917586 210.208164)scale(0.2 -0.2)">
     <use xlink:href="#FontAwesome5Free-Solid-62797"/>
    </g>
   </g>
   <g id="text_92">
    <!--  -->
    <g style="fill:#8bcbe8;" transform="translate(408.716479 235.341313)scale(0.2 -0.2)">
     <use xlink:href="#FontAwesome5Free-Solid-62797"/>
    </g>
   </g>
   <g id="text_93">
    <!--  -->
    <g style="fill:#8bcbe8;" transform="translate(383.583331 235.341313)scale(0.2 -0.2)">
     <use xlink:href="#FontAwesome5Free-Solid-62797"/>
    </g>
   </g>
   <g id="text_94">
    <!--  -->
    <g style="fill:#8bcbe8;" transform="translate(358.450182 235.341313)scale(0.2 -0.2)">
     <use xlink:href="#FontAwesome5Free-Solid-62797"/>
    </g>
   </g>
   <g id="text_95">
    <!--  -->
    <g style="fill:#8bcbe8;" transform="translate(333.317033 235.341313)scale(0.2 -0.2)">
     <use xlink:href="#FontAwesome5Free-Solid-62797"/>
    </g>
   </g>
   <g id="text_96">
    <!--  -->
    <g style="fill:#8bcbe8;" transform="translate(308.183884 235.341313)scale(0.2 -0.2)">
     <use xlink:href="#FontAwesome5Free-Solid-62797"/>
    </g>
   </g>
   <g id="text_97">
    <!--  -->
    <g style="fill:#8bcbe8;" transform="translate(283.050735 235.341313)scale(0.2 -0.2)">
     <use xlink:href="#FontAwesome5Free-Solid-62797"/>
    </g>
   </g>
   <g id="text_98">
    <!--  -->
    <g style="fill:#8bcbe8;" transform="translate(257.917586 235.341313)scale(0.2 -0.2)">
     <use xlink:href="#FontAwesome5Free-Solid-62797"/>
    </g>
   </g>
  </g>
  <g id="axes_3">
   <g id="text_99">
    <!--  -->
    <g style="fill:#e37678;" transform="translate(622.474306 84.54242)scale(0.2 -0.2)">
     <defs>
      <path d="M 98.4375 37.5 
C 98.4375 64.0625 76.5625 85.9375 50 85.9375 
C 23.25 85.9375 1.5625 64.0625 1.5625 37.5 
C 1.5625 10.75 23.25 -10.9375 50 -10.9375 
C 76.5625 -10.9375 98.4375 10.75 98.4375 37.5 
z
M 51.171875 69.921875 
C 62.3125 69.921875 74.03125 61.328125 74.03125 50 
C 74.03125 34.765625 57.8125 34.578125 57.8125 29.109375 
L 57.8125 28.90625 
C 57.8125 27.546875 56.640625 26.5625 55.46875 26.5625 
L 44.53125 26.5625 
C 43.171875 26.5625 42.1875 27.546875 42.1875 28.90625 
L 42.1875 29.6875 
C 42.1875 37.703125 48.25 40.828125 52.734375 43.359375 
C 56.640625 45.515625 59.1875 47.078125 59.1875 50 
C 59.1875 53.90625 54.109375 56.453125 50.203125 56.453125 
C 44.921875 56.453125 42.578125 53.90625 39.0625 49.421875 
C 38.28125 48.4375 36.71875 48.25 35.75 49.03125 
L 28.90625 54.109375 
C 27.9375 54.890625 27.734375 56.25 28.515625 57.421875 
C 33.796875 65.4375 40.625 69.921875 51.171875 69.921875 
z
M 50 21.484375 
C 54.890625 21.484375 58.984375 17.390625 58.984375 12.5 
C 58.984375 7.421875 54.890625 3.515625 50 3.515625 
C 44.921875 3.515625 41.015625 7.421875 41.015625 12.5 
C 41.015625 17.390625 44.921875 21.484375 50 21.484375 
z
" id="FontAwesome5Free-Solid-61529"/>
     </defs>
     <use xlink:href="#FontAwesome5Free-Solid-61529"/>
    </g>
   </g>
   <g id="text_100">
    <!--  -->
    <g style="fill:#8bcbe8;" transform="translate(597.341157 84.54242)scale(0.2 -0.2)">
     <use xlink:href="#FontAwesome5Free-Solid-61529"/>
    </g>
   </g>
   <g id="text_101">
    <!--  -->
    <g style="fill:#8bcbe8;" transform="translate(572.208008 84.54242)scale(0.2 -0.2)">
     <use xlink:href="#FontAwesome5Free-Solid-61529"/>
    </g>
   </g>
   <g id="text_102">
    <!--  -->
    <g style="fill:#8bcbe8;" transform="translate(547.074859 84.54242)scale(0.2 -0.2)">
     <use xlink:href="#FontAwesome5Free-Solid-61529"/>
    </g>
   </g>
   <g id="text_103">
    <!--  -->
    <g style="fill:#8bcbe8;" transform="translate(521.94171 84.54242)scale(0.2 -0.2)">
     <use xlink:href="#FontAwesome5Free-Solid-61529"/>
    </g>
   </g>
   <g id="text_104">
    <!--  -->
    <g style="fill:#8bcbe8;" transform="translate(496.808561 84.54242)scale(0.2 -0.2)">
     <use xlink:href="#FontAwesome5Free-Solid-61529"/>
    </g>
   </g>
   <g id="text_105">
    <!--  -->
    <g style="fill:#8bcbe8;" transform="translate(471.675412 84.54242)scale(0.2 -0.2)">
     <use xlink:href="#FontAwesome5Free-Solid-61529"/>
    </g>
   </g>
   <g id="text_106">
    <!--  -->
    <g style="fill:#8bcbe8;" transform="translate(622.474306 109.675569)scale(0.2 -0.2)">
     <use xlink:href="#FontAwesome5Free-Solid-61529"/>
    </g>
   </g>
   <g id="text_107">
    <!--  -->
    <g style="fill:#8bcbe8;" transform="translate(597.341157 109.675569)scale(0.2 -0.2)">
     <use xlink:href="#FontAwesome5Free-Solid-61529"/>
    </g>
   </g>
   <g id="text_108">
    <!--  -->
    <g style="fill:#8bcbe8;" transform="translate(572.208008 109.675569)scale(0.2 -0.2)">
     <use xlink:href="#FontAwesome5Free-Solid-61529"/>
    </g>
   </g>
   <g id="text_109">
    <!--  -->
    <g style="fill:#8bcbe8;" transform="translate(547.074859 109.675569)scale(0.2 -0.2)">
     <use xlink:href="#FontAwesome5Free-Solid-61529"/>
    </g>
   </g>
   <g id="text_110">
    <!--  -->
    <g style="fill:#8bcbe8;" transform="translate(521.94171 109.675569)scale(0.2 -0.2)">
     <use xlink:href="#FontAwesome5Free-Solid-61529"/>
    </g>
   </g>
   <g id="text_111">
    <!--  -->
    <g style="fill:#8bcbe8;" transform="translate(496.808561 109.675569)scale(0.2 -0.2)">
     <use xlink:href="#FontAwesome5Free-Solid-61529"/>
    </g>
   </g>
   <g id="text_112">
    <!--  -->
    <g style="fill:#8bcbe8;" transform="translate(471.675412 109.675569)scale(0.2 -0.2)">
     <use xlink:href="#FontAwesome5Free-Solid-61529"/>
    </g>
   </g>
   <g id="text_113">
    <!--  -->
    <g style="fill:#8bcbe8;" transform="translate(622.474306 134.808718)scale(0.2 -0.2)">
     <use xlink:href="#FontAwesome5Free-Solid-61529"/>
    </g>
   </g>
   <g id="text_114">
    <!--  -->
    <g style="fill:#8bcbe8;" transform="translate(597.341157 134.808718)scale(0.2 -0.2)">
     <use xlink:href="#FontAwesome5Free-Solid-61529"/>
    </g>
   </g>
   <g id="text_115">
    <!--  -->
    <g style="fill:#8bcbe8;" transform="translate(572.208008 134.808718)scale(0.2 -0.2)">
     <use xlink:href="#FontAwesome5Free-Solid-61529"/>
    </g>
   </g>
   <g id="text_116">
    <!--  -->
    <g style="fill:#8bcbe8;" transform="translate(547.074859 134.808718)scale(0.2 -0.2)">
     <use xlink:href="#FontAwesome5Free-Solid-61529"/>
    </g>
   </g>
   <g id="text_117">
    <!--  -->
    <g style="fill:#8bcbe8;" transform="translate(521.94171 134.808718)scale(0.2 -0.2)">
     <use xlink:href="#FontAwesome5Free-Solid-61529"/>
    </g>
   </g>
   <g id="text_118">
    <!--  -->
    <g style="fill:#8bcbe8;" transform="translate(496.808561 134.808718)scale(0.2 -0.2)">
     <use xlink:href="#FontAwesome5Free-Solid-61529"/>
    </g>
   </g>
   <g id="text_119">
    <!--  -->
    <g style="fill:#8bcbe8;" transform="translate(471.675412 134.808718)scale(0.2 -0.2)">
     <use xlink:href="#FontAwesome5Free-Solid-61529"/>
    </g>
   </g>
   <g id="text_120">
    <!--  -->
    <g style="fill:#8bcbe8;" transform="translate(622.474306 159.941867)scale(0.2 -0.2)">
     <use xlink:href="#FontAwesome5Free-Solid-61529"/>
    </g>
   </g>
   <g id="text_121">
    <!--  -->
    <g style="fill:#8bcbe8;" transform="translate(597.341157 159.941867)scale(0.2 -0.2)">
     <use xlink:href="#FontAwesome5Free-Solid-61529"/>
    </g>
   </g>
   <g id="text_122">
    <!--  -->
    <g style="fill:#8bcbe8;" transform="translate(572.208008 159.941867)scale(0.2 -0.2)">
     <use xlink:href="#FontAwesome5Free-Solid-61529"/>
    </g>
   </g>
   <g id="text_123">
    <!--  -->
    <g style="fill:#8bcbe8;" transform="translate(547.074859 159.941867)scale(0.2 -0.2)">
     <use xlink:href="#FontAwesome5Free-Solid-61529"/>
    </g>
   </g>
   <g id="text_124">
    <!--  -->
    <g style="fill:#8bcbe8;" transform="translate(521.94171 159.941867)scale(0.2 -0.2)">
     <use xlink:href="#FontAwesome5Free-Solid-61529"/>
    </g>
   </g>
   <g id="text_125">
    <!--  -->
    <g style="fill:#8bcbe8;" transform="translate(496.808561 159.941867)scale(0.2 -0.2)">
     <use xlink:href="#FontAwesome5Free-Solid-61529"/>
    </g>
   </g>
   <g id="text_126">
    <!--  -->
    <g style="fill:#8bcbe8;" transform="translate(471.675412 159.941867)scale(0.2 -0.2)">
     <use xlink:href="#FontAwesome5Free-Solid-61529"/>
    </g>
   </g>
   <g id="text_127">
    <!--  -->
    <g style="fill:#8bcbe8;" transform="translate(622.474306 185.075016)scale(0.2 -0.2)">
     <use xlink:href="#FontAwesome5Free-Solid-61529"/>
    </g>
   </g>
   <g id="text_128">
    <!--  -->
    <g style="fill:#8bcbe8;" transform="translate(597.341157 185.075016)scale(0.2 -0.2)">
     <use xlink:href="#FontAwesome5Free-Solid-61529"/>
    </g>
   </g>
   <g id="text_129">
    <!--  -->
    <g style="fill:#8bcbe8;" transform="translate(572.208008 185.075016)scale(0.2 -0.2)">
     <use xlink:href="#FontAwesome5Free-Solid-61529"/>
    </g>
   </g>
   <g id="text_130">
    <!--  -->
    <g style="fill:#8bcbe8;" transform="translate(547.074859 185.075016)scale(0.2 -0.2)">
     <use xlink:href="#FontAwesome5Free-Solid-61529"/>
    </g>
   </g>
   <g id="text_131">
    <!--  -->
    <g style="fill:#8bcbe8;" transform="translate(521.94171 185.075016)scale(0.2 -0.2)">
     <use xlink:href="#FontAwesome5Free-Solid-61529"/>
    </g>
   </g>
   <g id="text_132">
    <!--  -->
    <g style="fill:#8bcbe8;" transform="translate(496.808561 185.075016)scale(0.2 -0.2)">
     <use xlink:href="#FontAwesome5Free-Solid-61529"/>
    </g>
   </g>
   <g id="text_133">
    <!--  -->
    <g style="fill:#8bcbe8;" transform="translate(471.675412 185.075016)scale(0.2 -0.2)">
     <use xlink:href="#FontAwesome5Free-Solid-61529"/>
    </g>
   </g>
   <g id="text_134">
    <!--  -->
    <g style="fill:#8bcbe8;" transform="translate(622.474306 210.208164)scale(0.2 -0.2)">
     <use xlink:href="#FontAwesome5Free-Solid-61529"/>
    </g>
   </g>
   <g id="text_135">
    <!--  -->
    <g style="fill:#8bcbe8;" transform="translate(597.341157 210.208164)scale(0.2 -0.2)">
     <use xlink:href="#FontAwesome5Free-Solid-61529"/>
    </g>
   </g>
   <g id="text_136">
    <!--  -->
    <g style="fill:#8bcbe8;" transform="translate(572.208008 210.208164)scale(0.2 -0.2)">
     <use xlink:href="#FontAwesome5Free-Solid-61529"/>
    </g>
   </g>
   <g id="text_137">
    <!--  -->
    <g style="fill:#8bcbe8;" transform="translate(547.074859 210.208164)scale(0.2 -0.2)">
     <use xlink:href="#FontAwesome5Free-Solid-61529"/>
    </g>
   </g>
   <g id="text_138">
    <!--  -->
    <g style="fill:#8bcbe8;" transform="translate(521.94171 210.208164)scale(0.2 -0.2)">
     <use xlink:href="#FontAwesome5Free-Solid-61529"/>
    </g>
   </g>
   <g id="text_139">
    <!--  -->
    <g style="fill:#8bcbe8;" transform="translate(496.808561 210.208164)scale(0.2 -0.2)">
     <use xlink:href="#FontAwesome5Free-Solid-61529"/>
    </g>
   </g>
   <g id="text_140">
    <!--  -->
    <g style="fill:#8bcbe8;" transform="translate(471.675412 210.208164)scale(0.2 -0.2)">
     <use xlink:href="#FontAwesome5Free-Solid-61529"/>
    </g>
   </g>
   <g id="text_141">
    <!--  -->
    <g style="fill:#8bcbe8;" transform="translate(622.474306 235.341313)scale(0.2 -0.2)">
     <use xlink:href="#FontAwesome5Free-Solid-61529"/>
    </g>
   </g>
   <g id="text_142">
    <!--  -->
    <g style="fill:#8bcbe8;" transform="translate(597.341157 235.341313)scale(0.2 -0.2)">
     <use xlink:href="#FontAwesome5Free-Solid-61529"/>
    </g>
   </g>
   <g id="text_143">
    <!--  -->
    <g style="fill:#8bcbe8;" transform="translate(572.208008 235.341313)scale(0.2 -0.2)">
     <use xlink:href="#FontAwesome5Free-Solid-61529"/>
    </g>
   </g>
   <g id="text_144">
    <!--  -->
    <g style="fill:#8bcbe8;" transform="translate(547.074859 235.341313)scale(0.2 -0.2)">
     <use xlink:href="#FontAwesome5Free-Solid-61529"/>
    </g>
   </g>
   <g id="text_145">
    <!--  -->
    <g style="fill:#8bcbe8;" transform="translate(521.94171 235.341313)scale(0.2 -0.2)">
     <use xlink:href="#FontAwesome5Free-Solid-61529"/>
    </g>
   </g>
   <g id="text_146">
    <!--  -->
    <g style="fill:#8bcbe8;" transform="translate(496.808561 235.341313)scale(0.2 -0.2)">
     <use xlink:href="#FontAwesome5Free-Solid-61529"/>
    </g>
   </g>
   <g id="text_147">
    <!--  -->
    <g style="fill:#8bcbe8;" transform="translate(471.675412 235.341313)scale(0.2 -0.2)">
     <use xlink:href="#FontAwesome5Free-Solid-61529"/>
    </g>
   </g>
  </g>
  <g id="axes_4">
   <g id="text_148">
    <!--  -->
    <g style="fill:#e37678;" transform="translate(836.253457 84.521094)scale(0.15 -0.15)">
     <defs>
      <path d="M 123.4375 18.75 
L 114.0625 18.75 
C 113.09375 18.75 112.5 17.96875 112.5 17.1875 
L 112.5 -10.9375 
C 112.5 -11.921875 113.09375 -12.5 114.0625 -12.5 
L 123.4375 -12.5 
C 124.21875 -12.5 125 -11.921875 125 -10.9375 
L 125 17.1875 
C 125 17.96875 124.21875 18.75 123.4375 18.75 
z
M 108.015625 70.3125 
C 106.84375 71.09375 106.25 72.265625 106.25 73.640625 
L 106.25 85.9375 
C 106.25 86.71875 105.46875 87.5 104.6875 87.5 
L 95.3125 87.5 
C 94.34375 87.5 93.75 86.71875 93.75 85.9375 
L 93.75 73.640625 
C 93.75 69.34375 95.703125 65.234375 99.21875 62.890625 
C 107.421875 57.625 112.5 48.4375 112.5 38.671875 
L 112.5 32.8125 
C 112.5 31.84375 113.09375 31.25 114.0625 31.25 
L 123.4375 31.25 
C 124.21875 31.25 125 31.84375 125 32.8125 
L 125 38.671875 
C 125 51.375 118.5625 63.28125 108.015625 70.3125 
z
M 84.375 18.75 
L 9.375 18.75 
C 4.109375 18.75 0 14.453125 0 9.375 
L 0 -3.125 
C 0 -8.40625 4.109375 -12.5 9.375 -12.5 
L 84.375 -12.5 
C 85.9375 -12.5 87.5 -11.140625 87.5 -9.375 
L 87.5 15.625 
C 87.5 17.1875 85.9375 18.75 84.375 18.75 
z
M 78.125 -3.125 
L 43.75 -3.125 
L 43.75 9.375 
L 78.125 9.375 
z
M 95.125 59.765625 
C 90.4375 63.09375 87.5 67.96875 87.5 73.640625 
L 87.5 85.9375 
C 87.5 86.71875 86.71875 87.5 85.9375 87.5 
L 76.5625 87.5 
C 75.59375 87.5 75 86.71875 75 85.9375 
L 75 72.859375 
C 75 64.265625 79.6875 57.03125 86.71875 51.953125 
C 91.015625 49.03125 93.75 43.953125 93.75 38.671875 
L 93.75 32.8125 
C 93.75 31.84375 94.34375 31.25 95.3125 31.25 
L 104.6875 31.25 
C 105.46875 31.25 106.25 31.84375 106.25 32.8125 
L 106.25 38.671875 
C 106.25 47.078125 102.15625 54.890625 95.125 59.765625 
z
M 104.6875 18.75 
L 95.3125 18.75 
C 94.34375 18.75 93.75 17.96875 93.75 17.1875 
L 93.75 -10.9375 
C 93.75 -11.921875 94.34375 -12.5 95.3125 -12.5 
L 104.6875 -12.5 
C 105.46875 -12.5 106.25 -11.921875 106.25 -10.9375 
L 106.25 17.1875 
C 106.25 17.96875 105.46875 18.75 104.6875 18.75 
z
" id="FontAwesome5Free-Solid-62605"/>
     </defs>
     <use xlink:href="#FontAwesome5Free-Solid-62605"/>
    </g>
   </g>
   <g id="text_149">
    <!--  -->
    <g style="fill:#e37678;" transform="translate(811.116754 84.521094)scale(0.15 -0.15)">
     <use xlink:href="#FontAwesome5Free-Solid-62605"/>
    </g>
   </g>
   <g id="text_150">
    <!--  -->
    <g style="fill:#8bcbe8;" transform="translate(785.980051 84.521094)scale(0.15 -0.15)">
     <use xlink:href="#FontAwesome5Free-Solid-62605"/>
    </g>
   </g>
   <g id="text_151">
    <!--  -->
    <g style="fill:#8bcbe8;" transform="translate(760.843348 84.521094)scale(0.15 -0.15)">
     <use xlink:href="#FontAwesome5Free-Solid-62605"/>
    </g>
   </g>
   <g id="text_152">
    <!--  -->
    <g style="fill:#8bcbe8;" transform="translate(735.706645 84.521094)scale(0.15 -0.15)">
     <use xlink:href="#FontAwesome5Free-Solid-62605"/>
    </g>
   </g>
   <g id="text_153">
    <!--  -->
    <g style="fill:#8bcbe8;" transform="translate(710.569941 84.521094)scale(0.15 -0.15)">
     <use xlink:href="#FontAwesome5Free-Solid-62605"/>
    </g>
   </g>
   <g id="text_154">
    <!--  -->
    <g style="fill:#8bcbe8;" transform="translate(685.433238 84.521094)scale(0.15 -0.15)">
     <use xlink:href="#FontAwesome5Free-Solid-62605"/>
    </g>
   </g>
   <g id="text_155">
    <!--  -->
    <g style="fill:#8bcbe8;" transform="translate(836.253457 109.657797)scale(0.15 -0.15)">
     <use xlink:href="#FontAwesome5Free-Solid-62605"/>
    </g>
   </g>
   <g id="text_156">
    <!--  -->
    <g style="fill:#8bcbe8;" transform="translate(811.116754 109.657797)scale(0.15 -0.15)">
     <use xlink:href="#FontAwesome5Free-Solid-62605"/>
    </g>
   </g>
   <g id="text_157">
    <!--  -->
    <g style="fill:#8bcbe8;" transform="translate(785.980051 109.657797)scale(0.15 -0.15)">
     <use xlink:href="#FontAwesome5Free-Solid-62605"/>
    </g>
   </g>
   <g id="text_158">
    <!--  -->
    <g style="fill:#8bcbe8;" transform="translate(760.843348 109.657797)scale(0.15 -0.15)">
     <use xlink:href="#FontAwesome5Free-Solid-62605"/>
    </g>
   </g>
   <g id="text_159">
    <!--  -->
    <g style="fill:#8bcbe8;" transform="translate(735.706645 109.657797)scale(0.15 -0.15)">
     <use xlink:href="#FontAwesome5Free-Solid-62605"/>
    </g>
   </g>
   <g id="text_160">
    <!--  -->
    <g style="fill:#8bcbe8;" transform="translate(710.569941 109.657797)scale(0.15 -0.15)">
     <use xlink:href="#FontAwesome5Free-Solid-62605"/>
    </g>
   </g>
   <g id="text_161">
    <!--  -->
    <g style="fill:#8bcbe8;" transform="translate(685.433238 109.657797)scale(0.15 -0.15)">
     <use xlink:href="#FontAwesome5Free-Solid-62605"/>
    </g>
   </g>
   <g id="text_162">
    <!--  -->
    <g style="fill:#8bcbe8;" transform="translate(836.253457 134.794501)scale(0.15 -0.15)">
     <use xlink:href="#FontAwesome5Free-Solid-62605"/>
    </g>
   </g>
   <g id="text_163">
    <!--  -->
    <g style="fill:#8bcbe8;" transform="translate(811.116754 134.794501)scale(0.15 -0.15)">
     <use xlink:href="#FontAwesome5Free-Solid-62605"/>
    </g>
   </g>
   <g id="text_164">
    <!--  -->
    <g style="fill:#8bcbe8;" transform="translate(785.980051 134.794501)scale(0.15 -0.15)">
     <use xlink:href="#FontAwesome5Free-Solid-62605"/>
    </g>
   </g>
   <g id="text_165">
    <!--  -->
    <g style="fill:#8bcbe8;" transform="translate(760.843348 134.794501)scale(0.15 -0.15)">
     <use xlink:href="#FontAwesome5Free-Solid-62605"/>
    </g>
   </g>
   <g id="text_166">
    <!--  -->
    <g style="fill:#8bcbe8;" transform="translate(735.706645 134.794501)scale(0.15 -0.15)">
     <use xlink:href="#FontAwesome5Free-Solid-62605"/>
    </g>
   </g>
   <g id="text_167">
    <!--  -->
    <g style="fill:#8bcbe8;" transform="translate(710.569941 134.794501)scale(0.15 -0.15)">
     <use xlink:href="#FontAwesome5Free-Solid-62605"/>
    </g>
   </g>
   <g id="text_168">
    <!--  -->
    <g style="fill:#8bcbe8;" transform="translate(685.433238 134.794501)scale(0.15 -0.15)">
     <use xlink:href="#FontAwesome5Free-Solid-62605"/>
    </g>
   </g>
   <g id="text_169">
    <!--  -->
    <g style="fill:#8bcbe8;" transform="translate(836.253457 159.931204)scale(0.15 -0.15)">
     <use xlink:href="#FontAwesome5Free-Solid-62605"/>
    </g>
   </g>
   <g id="text_170">
    <!--  -->
    <g style="fill:#8bcbe8;" transform="translate(811.116754 159.931204)scale(0.15 -0.15)">
     <use xlink:href="#FontAwesome5Free-Solid-62605"/>
    </g>
   </g>
   <g id="text_171">
    <!--  -->
    <g style="fill:#8bcbe8;" transform="translate(785.980051 159.931204)scale(0.15 -0.15)">
     <use xlink:href="#FontAwesome5Free-Solid-62605"/>
    </g>
   </g>
   <g id="text_172">
    <!--  -->
    <g style="fill:#8bcbe8;" transform="translate(760.843348 159.931204)scale(0.15 -0.15)">
     <use xlink:href="#FontAwesome5Free-Solid-62605"/>
    </g>
   </g>
   <g id="text_173">
    <!--  -->
    <g style="fill:#8bcbe8;" transform="translate(735.706645 159.931204)scale(0.15 -0.15)">
     <use xlink:href="#FontAwesome5Free-Solid-62605"/>
    </g>
   </g>
   <g id="text_174">
    <!--  -->
    <g style="fill:#8bcbe8;" transform="translate(710.569941 159.931204)scale(0.15 -0.15)">
     <use xlink:href="#FontAwesome5Free-Solid-62605"/>
    </g>
   </g>
   <g id="text_175">
    <!--  -->
    <g style="fill:#8bcbe8;" transform="translate(685.433238 159.931204)scale(0.15 -0.15)">
     <use xlink:href="#FontAwesome5Free-Solid-62605"/>
    </g>
   </g>
   <g id="text_176">
    <!--  -->
    <g style="fill:#8bcbe8;" transform="translate(836.253457 185.067907)scale(0.15 -0.15)">
     <use xlink:href="#FontAwesome5Free-Solid-62605"/>
    </g>
   </g>
   <g id="text_177">
    <!--  -->
    <g style="fill:#8bcbe8;" transform="translate(811.116754 185.067907)scale(0.15 -0.15)">
     <use xlink:href="#FontAwesome5Free-Solid-62605"/>
    </g>
   </g>
   <g id="text_178">
    <!--  -->
    <g style="fill:#8bcbe8;" transform="translate(785.980051 185.067907)scale(0.15 -0.15)">
     <use xlink:href="#FontAwesome5Free-Solid-62605"/>
    </g>
   </g>
   <g id="text_179">
    <!--  -->
    <g style="fill:#8bcbe8;" transform="translate(760.843348 185.067907)scale(0.15 -0.15)">
     <use xlink:href="#FontAwesome5Free-Solid-62605"/>
    </g>
   </g>
   <g id="text_180">
    <!--  -->
    <g style="fill:#8bcbe8;" transform="translate(735.706645 185.067907)scale(0.15 -0.15)">
     <use xlink:href="#FontAwesome5Free-Solid-62605"/>
    </g>
   </g>
   <g id="text_181">
    <!--  -->
    <g style="fill:#8bcbe8;" transform="translate(710.569941 185.067907)scale(0.15 -0.15)">
     <use xlink:href="#FontAwesome5Free-Solid-62605"/>
    </g>
   </g>
   <g id="text_182">
    <!--  -->
    <g style="fill:#8bcbe8;" transform="translate(685.433238 185.067907)scale(0.15 -0.15)">
     <use xlink:href="#FontAwesome5Free-Solid-62605"/>
    </g>
   </g>
   <g id="text_183">
    <!--  -->
    <g style="fill:#8bcbe8;" transform="translate(836.253457 210.20461)scale(0.15 -0.15)">
     <use xlink:href="#FontAwesome5Free-Solid-62605"/>
    </g>
   </g>
   <g id="text_184">
    <!--  -->
    <g style="fill:#8bcbe8;" transform="translate(811.116754 210.20461)scale(0.15 -0.15)">
     <use xlink:href="#FontAwesome5Free-Solid-62605"/>
    </g>
   </g>
   <g id="text_185">
    <!--  -->
    <g style="fill:#8bcbe8;" transform="translate(785.980051 210.20461)scale(0.15 -0.15)">
     <use xlink:href="#FontAwesome5Free-Solid-62605"/>
    </g>
   </g>
   <g id="text_186">
    <!--  -->
    <g style="fill:#8bcbe8;" transform="translate(760.843348 210.20461)scale(0.15 -0.15)">
     <use xlink:href="#FontAwesome5Free-Solid-62605"/>
    </g>
   </g>
   <g id="text_187">
    <!--  -->
    <g style="fill:#8bcbe8;" transform="translate(735.706645 210.20461)scale(0.15 -0.15)">
     <use xlink:href="#FontAwesome5Free-Solid-62605"/>
    </g>
   </g>
   <g id="text_188">
    <!--  -->
    <g style="fill:#8bcbe8;" transform="translate(710.569941 210.20461)scale(0.15 -0.15)">
     <use xlink:href="#FontAwesome5Free-Solid-62605"/>
    </g>
   </g>
   <g id="text_189">
    <!--  -->
    <g style="fill:#8bcbe8;" transform="translate(685.433238 210.20461)scale(0.15 -0.15)">
     <use xlink:href="#FontAwesome5Free-Solid-62605"/>
    </g>
   </g>
   <g id="text_190">
    <!--  -->
    <g style="fill:#8bcbe8;" transform="translate(836.253457 235.341313)scale(0.15 -0.15)">
     <use xlink:href="#FontAwesome5Free-Solid-62605"/>
    </g>
   </g>
   <g id="text_191">
    <!--  -->
    <g style="fill:#8bcbe8;" transform="translate(811.116754 235.341313)scale(0.15 -0.15)">
     <use xlink:href="#FontAwesome5Free-Solid-62605"/>
    </g>
   </g>
   <g id="text_192">
    <!--  -->
    <g style="fill:#8bcbe8;" transform="translate(785.980051 235.341313)scale(0.15 -0.15)">
     <use xlink:href="#FontAwesome5Free-Solid-62605"/>
    </g>
   </g>
   <g id="text_193">
    <!--  -->
    <g style="fill:#8bcbe8;" transform="translate(760.843348 235.341313)scale(0.15 -0.15)">
     <use xlink:href="#FontAwesome5Free-Solid-62605"/>
    </g>
   </g>
   <g id="text_194">
    <!--  -->
    <g style="fill:#8bcbe8;" transform="translate(735.706645 235.341313)scale(0.15 -0.15)">
     <use xlink:href="#FontAwesome5Free-Solid-62605"/>
    </g>
   </g>
   <g id="text_195">
    <!--  -->
    <g style="fill:#8bcbe8;" transform="translate(710.569941 235.341313)scale(0.15 -0.15)">
     <use xlink:href="#FontAwesome5Free-Solid-62605"/>
    </g>
   </g>
   <g id="text_196">
    <!--  -->
    <g style="fill:#8bcbe8;" transform="translate(685.433238 235.341313)scale(0.15 -0.15)">
     <use xlink:href="#FontAwesome5Free-Solid-62605"/>
    </g>
   </g>
  </g>
  <g id="text_197">
   <!-- Smoking and Stroke- Does smoking habit could cause Stroke? -->
   <g transform="translate(7.2 17.837812)scale(0.14 -0.14)">
    <defs>
     <path d="M 9.28125 3.515625 
L 9.28125 20.125 
L 14.890625 20.0625 
Q 15.140625 11.765625 19.703125 7.78125 
Q 24.265625 3.8125 33.59375 3.8125 
Q 42.28125 3.8125 46.84375 7.25 
Q 51.421875 10.6875 51.421875 17.28125 
Q 51.421875 22.5625 48.65625 25.390625 
Q 45.90625 28.21875 37.015625 30.90625 
L 27.390625 33.796875 
Q 16.9375 36.96875 12.671875 41.703125 
Q 8.40625 46.4375 8.40625 54.6875 
Q 8.40625 63.96875 14.984375 69.09375 
Q 21.578125 74.21875 33.5 74.21875 
Q 38.578125 74.21875 44.625 73.109375 
Q 50.6875 72.015625 57.515625 69.921875 
L 57.515625 54.390625 
L 52 54.390625 
Q 51.171875 62.109375 46.84375 65.546875 
Q 42.53125 69 33.6875 69 
Q 25.984375 69 21.953125 65.84375 
Q 17.921875 62.703125 17.921875 56.6875 
Q 17.921875 51.46875 20.9375 48.484375 
Q 23.96875 45.515625 33.796875 42.578125 
L 42.828125 39.890625 
Q 52.734375 36.921875 56.953125 32.296875 
Q 61.1875 27.6875 61.1875 19.921875 
Q 61.1875 9.328125 54.390625 3.953125 
Q 47.609375 -1.421875 34.1875 -1.421875 
Q 28.171875 -1.421875 21.9375 -0.1875 
Q 15.71875 1.03125 9.28125 3.515625 
z
" id="DejaVuSerif-83"/>
     <path d="M 51.8125 41.796875 
Q 54.390625 47.515625 58.421875 50.421875 
Q 62.453125 53.328125 67.828125 53.328125 
Q 75.984375 53.328125 79.984375 48.265625 
Q 83.984375 43.21875 83.984375 33.015625 
L 83.984375 5.171875 
L 92.09375 5.171875 
L 92.09375 0 
L 67.1875 0 
L 67.1875 5.171875 
L 75 5.171875 
L 75 31.984375 
Q 75 39.9375 72.65625 43.3125 
Q 70.3125 46.6875 64.890625 46.6875 
Q 58.890625 46.6875 55.734375 42.140625 
Q 52.59375 37.59375 52.59375 28.90625 
L 52.59375 5.171875 
L 60.40625 5.171875 
L 60.40625 0 
L 35.796875 0 
L 35.796875 5.171875 
L 43.609375 5.171875 
L 43.609375 32.328125 
Q 43.609375 40.09375 41.265625 43.390625 
Q 38.921875 46.6875 33.5 46.6875 
Q 27.484375 46.6875 24.328125 42.140625 
Q 21.1875 37.59375 21.1875 28.90625 
L 21.1875 5.171875 
L 29 5.171875 
L 29 0 
L 4.109375 0 
L 4.109375 5.171875 
L 12.203125 5.171875 
L 12.203125 46.78125 
L 3.609375 46.78125 
L 3.609375 51.90625 
L 21.1875 51.90625 
L 21.1875 42.671875 
Q 23.6875 47.859375 27.53125 50.59375 
Q 31.390625 53.328125 36.28125 53.328125 
Q 42.328125 53.328125 46.375 50.3125 
Q 50.4375 47.3125 51.8125 41.796875 
z
" id="DejaVuSerif-109"/>
     <path d="M 30.078125 3.421875 
Q 37.3125 3.421875 40.984375 9.125 
Q 44.671875 14.84375 44.671875 25.984375 
Q 44.671875 37.109375 40.984375 42.796875 
Q 37.3125 48.484375 30.078125 48.484375 
Q 22.859375 48.484375 19.171875 42.796875 
Q 15.484375 37.109375 15.484375 25.984375 
Q 15.484375 14.84375 19.1875 9.125 
Q 22.90625 3.421875 30.078125 3.421875 
z
M 30.078125 -1.421875 
Q 18.75 -1.421875 11.859375 6.078125 
Q 4.984375 13.578125 4.984375 25.984375 
Q 4.984375 38.375 11.84375 45.84375 
Q 18.703125 53.328125 30.078125 53.328125 
Q 41.453125 53.328125 48.3125 45.84375 
Q 55.171875 38.375 55.171875 25.984375 
Q 55.171875 13.578125 48.3125 6.078125 
Q 41.453125 -1.421875 30.078125 -1.421875 
z
" id="DejaVuSerif-111"/>
     <path d="M 28.609375 0 
L 3.421875 0 
L 3.421875 5.171875 
L 11.53125 5.171875 
L 11.53125 70.796875 
L 2.875 70.796875 
L 2.875 75.984375 
L 20.515625 75.984375 
L 20.515625 26.515625 
L 42.390625 46.6875 
L 34.90625 46.6875 
L 34.90625 51.90625 
L 58.40625 51.90625 
L 58.40625 46.6875 
L 49.515625 46.6875 
L 34.078125 32.421875 
L 53.8125 5.171875 
L 61.28125 5.171875 
L 61.28125 0 
L 35.6875 0 
L 35.6875 5.171875 
L 43.109375 5.171875 
L 27.59375 26.515625 
L 20.515625 19.921875 
L 20.515625 5.171875 
L 28.609375 5.171875 
z
" id="DejaVuSerif-107"/>
     <path d="M 9.71875 68.015625 
Q 9.71875 70.265625 11.34375 71.921875 
Q 12.984375 73.578125 15.28125 73.578125 
Q 17.53125 73.578125 19.15625 71.921875 
Q 20.796875 70.265625 20.796875 68.015625 
Q 20.796875 65.71875 19.1875 64.109375 
Q 17.578125 62.5 15.28125 62.5 
Q 12.984375 62.5 11.34375 64.109375 
Q 9.71875 65.71875 9.71875 68.015625 
z
M 21.1875 5.171875 
L 29.6875 5.171875 
L 29.6875 0 
L 3.609375 0 
L 3.609375 5.171875 
L 12.203125 5.171875 
L 12.203125 46.6875 
L 3.609375 46.6875 
L 3.609375 51.90625 
L 21.1875 51.90625 
z
" id="DejaVuSerif-105"/>
     <path d="M 4.109375 0 
L 4.109375 5.171875 
L 12.203125 5.171875 
L 12.203125 46.6875 
L 3.609375 46.6875 
L 3.609375 51.90625 
L 21.1875 51.90625 
L 21.1875 42.671875 
Q 23.6875 47.953125 27.65625 50.640625 
Q 31.640625 53.328125 36.921875 53.328125 
Q 45.515625 53.328125 49.5625 48.390625 
Q 53.609375 43.453125 53.609375 33.015625 
L 53.609375 5.171875 
L 61.625 5.171875 
L 61.625 0 
L 36.8125 0 
L 36.8125 5.171875 
L 44.578125 5.171875 
L 44.578125 30.171875 
Q 44.578125 39.703125 42.234375 43.234375 
Q 39.890625 46.78125 33.984375 46.78125 
Q 27.734375 46.78125 24.453125 42.203125 
Q 21.1875 37.640625 21.1875 28.90625 
L 21.1875 5.171875 
L 29 5.171875 
L 29 0 
z
" id="DejaVuSerif-110"/>
     <path d="M 52.484375 46.6875 
L 52.484375 1.125 
Q 52.484375 -10.0625 46.328125 -16.140625 
Q 40.1875 -22.21875 28.8125 -22.21875 
Q 23.6875 -22.21875 19 -21.28125 
Q 14.3125 -20.359375 10.015625 -18.5 
L 10.015625 -7.625 
L 14.703125 -7.625 
Q 15.578125 -12.703125 18.84375 -15.046875 
Q 22.125 -17.390625 28.21875 -17.390625 
Q 36.140625 -17.390625 39.8125 -12.921875 
Q 43.5 -8.453125 43.5 1.125 
L 43.5 8.109375 
Q 40.875 3.21875 36.796875 0.890625 
Q 32.71875 -1.421875 26.703125 -1.421875 
Q 17.140625 -1.421875 11.0625 6.171875 
Q 4.984375 13.765625 4.984375 25.984375 
Q 4.984375 38.1875 11.03125 45.75 
Q 17.09375 53.328125 26.703125 53.328125 
Q 32.71875 53.328125 36.796875 51 
Q 40.875 48.6875 43.5 43.796875 
L 43.5 51.90625 
L 61.078125 51.90625 
L 61.078125 46.6875 
z
M 43.5 28.515625 
Q 43.5 37.84375 39.90625 42.765625 
Q 36.328125 47.703125 29.5 47.703125 
Q 22.5625 47.703125 19.015625 42.234375 
Q 15.484375 36.765625 15.484375 25.984375 
Q 15.484375 15.234375 19.015625 9.71875 
Q 22.5625 4.203125 29.5 4.203125 
Q 36.328125 4.203125 39.90625 9.109375 
Q 43.5 14.015625 43.5 23.390625 
z
" id="DejaVuSerif-103"/>
     <path id="DejaVuSerif-32"/>
     <path d="M 39.796875 16.3125 
L 39.796875 27.296875 
L 28.21875 27.296875 
Q 21.53125 27.296875 18.25 24.40625 
Q 14.984375 21.53125 14.984375 15.578125 
Q 14.984375 10.15625 18.296875 6.984375 
Q 21.625 3.8125 27.296875 3.8125 
Q 32.90625 3.8125 36.34375 7.28125 
Q 39.796875 10.75 39.796875 16.3125 
z
M 48.78125 32.421875 
L 48.78125 5.171875 
L 56.78125 5.171875 
L 56.78125 0 
L 39.796875 0 
L 39.796875 5.609375 
Q 36.8125 2 32.90625 0.28125 
Q 29 -1.421875 23.78125 -1.421875 
Q 15.140625 -1.421875 10.0625 3.171875 
Q 4.984375 7.765625 4.984375 15.578125 
Q 4.984375 23.640625 10.796875 28.078125 
Q 16.609375 32.515625 27.203125 32.515625 
L 39.796875 32.515625 
L 39.796875 36.078125 
Q 39.796875 42 36.203125 45.234375 
Q 32.625 48.484375 26.125 48.484375 
Q 20.75 48.484375 17.578125 46.046875 
Q 14.40625 43.609375 13.625 38.8125 
L 8.984375 38.8125 
L 8.984375 49.3125 
Q 13.671875 51.3125 18.09375 52.3125 
Q 22.515625 53.328125 26.703125 53.328125 
Q 37.5 53.328125 43.140625 47.96875 
Q 48.78125 42.625 48.78125 32.421875 
z
" id="DejaVuSerif-97"/>
     <path d="M 52.484375 5.171875 
L 61.078125 5.171875 
L 61.078125 0 
L 43.5 0 
L 43.5 8.109375 
Q 40.875 3.21875 36.796875 0.890625 
Q 32.71875 -1.421875 26.703125 -1.421875 
Q 17.140625 -1.421875 11.0625 6.171875 
Q 4.984375 13.765625 4.984375 25.984375 
Q 4.984375 38.1875 11.03125 45.75 
Q 17.09375 53.328125 26.703125 53.328125 
Q 32.71875 53.328125 36.796875 51 
Q 40.875 48.6875 43.5 43.796875 
L 43.5 70.796875 
L 35.015625 70.796875 
L 35.015625 75.984375 
L 52.484375 75.984375 
z
M 43.5 23.390625 
L 43.5 28.515625 
Q 43.5 37.84375 39.90625 42.765625 
Q 36.328125 47.703125 29.5 47.703125 
Q 22.5625 47.703125 19.015625 42.234375 
Q 15.484375 36.765625 15.484375 25.984375 
Q 15.484375 15.234375 19.015625 9.71875 
Q 22.5625 4.203125 29.5 4.203125 
Q 36.328125 4.203125 39.90625 9.109375 
Q 43.5 14.015625 43.5 23.390625 
z
" id="DejaVuSerif-100"/>
     <path d="M 10.796875 46.6875 
L 2.875 46.6875 
L 2.875 51.90625 
L 10.796875 51.90625 
L 10.796875 68.015625 
L 19.828125 68.015625 
L 19.828125 51.90625 
L 36.71875 51.90625 
L 36.71875 46.6875 
L 19.828125 46.6875 
L 19.828125 13.71875 
Q 19.828125 7.125 21.09375 5.265625 
Q 22.359375 3.421875 25.78125 3.421875 
Q 29.296875 3.421875 30.90625 5.484375 
Q 32.515625 7.5625 32.625 12.203125 
L 39.40625 12.203125 
Q 39.015625 5.125 35.546875 1.84375 
Q 32.078125 -1.421875 25 -1.421875 
Q 17.234375 -1.421875 14.015625 2.015625 
Q 10.796875 5.46875 10.796875 13.71875 
z
" id="DejaVuSerif-116"/>
     <path d="M 47.796875 52 
L 47.796875 39.015625 
L 42.625 39.015625 
Q 42.390625 42.875 40.484375 44.78125 
Q 38.578125 46.6875 34.90625 46.6875 
Q 28.265625 46.6875 24.71875 42.09375 
Q 21.1875 37.5 21.1875 28.90625 
L 21.1875 5.171875 
L 31.59375 5.171875 
L 31.59375 0 
L 4.109375 0 
L 4.109375 5.171875 
L 12.203125 5.171875 
L 12.203125 46.78125 
L 3.609375 46.78125 
L 3.609375 51.90625 
L 21.1875 51.90625 
L 21.1875 42.671875 
Q 23.828125 48.09375 27.96875 50.703125 
Q 32.125 53.328125 38.09375 53.328125 
Q 40.28125 53.328125 42.703125 52.984375 
Q 45.125 52.640625 47.796875 52 
z
" id="DejaVuSerif-114"/>
     <path d="M 54.203125 25 
L 15.484375 25 
L 15.484375 24.609375 
Q 15.484375 14.109375 19.4375 8.765625 
Q 23.390625 3.421875 31.109375 3.421875 
Q 37.015625 3.421875 40.796875 6.515625 
Q 44.578125 9.625 46.09375 15.71875 
L 53.328125 15.71875 
Q 51.171875 7.171875 45.375 2.875 
Q 39.59375 -1.421875 30.171875 -1.421875 
Q 18.796875 -1.421875 11.890625 6.078125 
Q 4.984375 13.578125 4.984375 25.984375 
Q 4.984375 38.28125 11.765625 45.796875 
Q 18.5625 53.328125 29.59375 53.328125 
Q 41.359375 53.328125 47.65625 46.0625 
Q 53.953125 38.8125 54.203125 25 
z
M 43.609375 30.171875 
Q 43.3125 39.265625 39.765625 43.875 
Q 36.234375 48.484375 29.59375 48.484375 
Q 23.390625 48.484375 19.828125 43.84375 
Q 16.265625 39.203125 15.484375 30.171875 
z
" id="DejaVuSerif-101"/>
     <path d="M 4.390625 30.609375 
L 29.390625 30.609375 
L 29.390625 23 
L 4.390625 23 
z
" id="DejaVuSerif-45"/>
     <path d="M 24.703125 5.171875 
L 33.796875 5.171875 
Q 48 5.171875 55.59375 13.28125 
Q 63.1875 21.390625 63.1875 36.53125 
Q 63.1875 51.65625 55.609375 59.65625 
Q 48.046875 67.671875 33.796875 67.671875 
L 24.703125 67.671875 
z
M 5.515625 0 
L 5.515625 5.171875 
L 14.796875 5.171875 
L 14.796875 67.671875 
L 5.515625 67.671875 
L 5.515625 72.90625 
L 34.515625 72.90625 
Q 53.375 72.90625 63.890625 63.28125 
Q 74.421875 53.65625 74.421875 36.53125 
Q 74.421875 19.34375 63.875 9.671875 
Q 53.328125 0 34.515625 0 
z
" id="DejaVuSerif-68"/>
     <path d="M 5.609375 2.875 
L 5.609375 14.984375 
L 10.796875 14.984375 
Q 10.984375 9.1875 14.421875 6.296875 
Q 17.875 3.421875 24.609375 3.421875 
Q 30.671875 3.421875 33.84375 5.6875 
Q 37.015625 7.953125 37.015625 12.3125 
Q 37.015625 15.71875 34.6875 17.8125 
Q 32.375 19.921875 24.90625 22.3125 
L 18.40625 24.515625 
Q 11.71875 26.65625 8.71875 29.875 
Q 5.71875 33.109375 5.71875 38.09375 
Q 5.71875 45.21875 10.9375 49.265625 
Q 16.15625 53.328125 25.390625 53.328125 
Q 29.5 53.328125 34.03125 52.25 
Q 38.578125 51.171875 43.40625 49.125 
L 43.40625 37.796875 
L 38.234375 37.796875 
Q 38.03125 42.828125 34.703125 45.65625 
Q 31.390625 48.484375 25.6875 48.484375 
Q 20.015625 48.484375 17.109375 46.484375 
Q 14.203125 44.484375 14.203125 40.484375 
Q 14.203125 37.203125 16.40625 35.21875 
Q 18.609375 33.25 25.203125 31.203125 
L 32.328125 29 
Q 39.703125 26.703125 42.9375 23.265625 
Q 46.1875 19.828125 46.1875 14.40625 
Q 46.1875 7.03125 40.546875 2.796875 
Q 34.90625 -1.421875 25 -1.421875 
Q 19.96875 -1.421875 15.1875 -0.34375 
Q 10.40625 0.734375 5.609375 2.875 
z
" id="DejaVuSerif-115"/>
     <path d="M 4.109375 0 
L 4.109375 5.171875 
L 12.203125 5.171875 
L 12.203125 70.796875 
L 3.609375 70.796875 
L 3.609375 75.984375 
L 21.1875 75.984375 
L 21.1875 42.671875 
Q 23.6875 47.953125 27.65625 50.640625 
Q 31.640625 53.328125 36.921875 53.328125 
Q 45.515625 53.328125 49.5625 48.390625 
Q 53.609375 43.453125 53.609375 33.015625 
L 53.609375 5.171875 
L 61.625 5.171875 
L 61.625 0 
L 36.8125 0 
L 36.8125 5.171875 
L 44.578125 5.171875 
L 44.578125 30.171875 
Q 44.578125 39.703125 42.25 43.1875 
Q 39.9375 46.6875 33.984375 46.6875 
Q 27.734375 46.6875 24.453125 42.140625 
Q 21.1875 37.59375 21.1875 28.90625 
L 21.1875 5.171875 
L 29 5.171875 
L 29 0 
z
" id="DejaVuSerif-104"/>
     <path d="M 11.53125 5.171875 
L 11.53125 70.796875 
L 2.875 70.796875 
L 2.875 75.984375 
L 20.515625 75.984375 
L 20.515625 43.796875 
Q 23.140625 48.6875 27.21875 51 
Q 31.296875 53.328125 37.3125 53.328125 
Q 46.875 53.328125 52.921875 45.75 
Q 58.984375 38.1875 58.984375 25.984375 
Q 58.984375 13.765625 52.921875 6.171875 
Q 46.875 -1.421875 37.3125 -1.421875 
Q 31.296875 -1.421875 27.21875 0.890625 
Q 23.140625 3.21875 20.515625 8.109375 
L 20.515625 0 
L 2.875 0 
L 2.875 5.171875 
z
M 20.515625 23.390625 
Q 20.515625 14.015625 24.09375 9.109375 
Q 27.6875 4.203125 34.515625 4.203125 
Q 41.40625 4.203125 44.9375 9.71875 
Q 48.484375 15.234375 48.484375 25.984375 
Q 48.484375 36.765625 44.9375 42.234375 
Q 41.40625 47.703125 34.515625 47.703125 
Q 27.6875 47.703125 24.09375 42.765625 
Q 20.515625 37.84375 20.515625 28.515625 
z
" id="DejaVuSerif-98"/>
     <path d="M 51.421875 15.578125 
Q 49.515625 7.28125 44.09375 2.921875 
Q 38.671875 -1.421875 30.078125 -1.421875 
Q 18.75 -1.421875 11.859375 6.078125 
Q 4.984375 13.578125 4.984375 25.984375 
Q 4.984375 38.421875 11.859375 45.875 
Q 18.75 53.328125 30.078125 53.328125 
Q 35.015625 53.328125 39.890625 52.171875 
Q 44.78125 51.03125 49.703125 48.6875 
L 49.703125 35.40625 
L 44.484375 35.40625 
Q 43.453125 42.234375 40.015625 45.359375 
Q 36.578125 48.484375 30.171875 48.484375 
Q 22.90625 48.484375 19.1875 42.84375 
Q 15.484375 37.203125 15.484375 25.984375 
Q 15.484375 14.75 19.171875 9.078125 
Q 22.859375 3.421875 30.171875 3.421875 
Q 35.984375 3.421875 39.453125 6.4375 
Q 42.921875 9.46875 44.1875 15.578125 
z
" id="DejaVuSerif-99"/>
     <path d="M 35.40625 51.90625 
L 52.203125 51.90625 
L 52.203125 5.171875 
L 60.6875 5.171875 
L 60.6875 0 
L 43.21875 0 
L 43.21875 9.1875 
Q 40.71875 4 36.765625 1.28125 
Q 32.8125 -1.421875 27.59375 -1.421875 
Q 18.953125 -1.421875 14.875 3.484375 
Q 10.796875 8.40625 10.796875 18.890625 
L 10.796875 46.6875 
L 2.6875 46.6875 
L 2.6875 51.90625 
L 19.828125 51.90625 
L 19.828125 21.6875 
Q 19.828125 12.203125 22.140625 8.6875 
Q 24.46875 5.171875 30.421875 5.171875 
Q 36.671875 5.171875 39.9375 9.765625 
Q 43.21875 14.359375 43.21875 23.09375 
L 43.21875 46.6875 
L 35.40625 46.6875 
z
" id="DejaVuSerif-117"/>
     <path d="M 20.515625 5.171875 
L 29 5.171875 
L 29 0 
L 2.875 0 
L 2.875 5.171875 
L 11.53125 5.171875 
L 11.53125 70.796875 
L 2.875 70.796875 
L 2.875 75.984375 
L 20.515625 75.984375 
z
" id="DejaVuSerif-108"/>
     <path d="M 17.578125 5.078125 
Q 17.578125 7.8125 19.453125 9.71875 
Q 21.34375 11.625 24.125 11.625 
Q 26.8125 11.625 28.703125 9.71875 
Q 30.609375 7.8125 30.609375 5.078125 
Q 30.609375 2.390625 28.703125 0.484375 
Q 26.8125 -1.421875 24.125 -1.421875 
Q 21.34375 -1.421875 19.453125 0.453125 
Q 17.578125 2.34375 17.578125 5.078125 
z
M 6.78125 69.671875 
Q 11.96875 71.96875 16.625 73.09375 
Q 21.296875 74.21875 25.390625 74.21875 
Q 36.234375 74.21875 42.5 68.984375 
Q 48.78125 63.765625 48.78125 54.890625 
Q 48.78125 45.796875 43.375 40.03125 
Q 37.984375 34.28125 27.09375 31.78125 
L 27.09375 19.390625 
L 21.09375 19.390625 
L 21.09375 35.40625 
Q 29.734375 37.5 34.109375 42.421875 
Q 38.484375 47.359375 38.484375 54.984375 
Q 38.484375 61.671875 34.90625 65.53125 
Q 31.34375 69.390625 25.203125 69.390625 
Q 19.625 69.390625 16.078125 66.1875 
Q 12.546875 62.984375 11.53125 56.984375 
L 6.78125 56.984375 
z
" id="DejaVuSerif-63"/>
    </defs>
    <use xlink:href="#DejaVuSerif-83"/>
    <use x="68.505859" xlink:href="#DejaVuSerif-109"/>
    <use x="163.330078" xlink:href="#DejaVuSerif-111"/>
    <use x="223.535156" xlink:href="#DejaVuSerif-107"/>
    <use x="284.130859" xlink:href="#DejaVuSerif-105"/>
    <use x="316.113281" xlink:href="#DejaVuSerif-110"/>
    <use x="380.517578" xlink:href="#DejaVuSerif-103"/>
    <use x="444.53125" xlink:href="#DejaVuSerif-32"/>
    <use x="476.318359" xlink:href="#DejaVuSerif-97"/>
    <use x="535.9375" xlink:href="#DejaVuSerif-110"/>
    <use x="600.341797" xlink:href="#DejaVuSerif-100"/>
    <use x="664.355469" xlink:href="#DejaVuSerif-32"/>
    <use x="696.142578" xlink:href="#DejaVuSerif-83"/>
    <use x="764.648438" xlink:href="#DejaVuSerif-116"/>
    <use x="804.833984" xlink:href="#DejaVuSerif-114"/>
    <use x="852.636719" xlink:href="#DejaVuSerif-111"/>
    <use x="912.841797" xlink:href="#DejaVuSerif-107"/>
    <use x="973.4375" xlink:href="#DejaVuSerif-101"/>
    <use x="1032.617188" xlink:href="#DejaVuSerif-45"/>
    <use x="1066.40625" xlink:href="#DejaVuSerif-32"/>
    <use x="1098.193359" xlink:href="#DejaVuSerif-68"/>
    <use x="1178.369141" xlink:href="#DejaVuSerif-111"/>
    <use x="1238.574219" xlink:href="#DejaVuSerif-101"/>
    <use x="1297.753906" xlink:href="#DejaVuSerif-115"/>
    <use x="1349.072266" xlink:href="#DejaVuSerif-32"/>
    <use x="1380.859375" xlink:href="#DejaVuSerif-115"/>
    <use x="1432.177734" xlink:href="#DejaVuSerif-109"/>
    <use x="1527.001953" xlink:href="#DejaVuSerif-111"/>
    <use x="1587.207031" xlink:href="#DejaVuSerif-107"/>
    <use x="1647.802734" xlink:href="#DejaVuSerif-105"/>
    <use x="1679.785156" xlink:href="#DejaVuSerif-110"/>
    <use x="1744.189453" xlink:href="#DejaVuSerif-103"/>
    <use x="1808.203125" xlink:href="#DejaVuSerif-32"/>
    <use x="1839.990234" xlink:href="#DejaVuSerif-104"/>
    <use x="1904.394531" xlink:href="#DejaVuSerif-97"/>
    <use x="1964.013672" xlink:href="#DejaVuSerif-98"/>
    <use x="2028.027344" xlink:href="#DejaVuSerif-105"/>
    <use x="2060.009766" xlink:href="#DejaVuSerif-116"/>
    <use x="2100.195312" xlink:href="#DejaVuSerif-32"/>
    <use x="2131.982422" xlink:href="#DejaVuSerif-99"/>
    <use x="2187.988281" xlink:href="#DejaVuSerif-111"/>
    <use x="2248.193359" xlink:href="#DejaVuSerif-117"/>
    <use x="2312.597656" xlink:href="#DejaVuSerif-108"/>
    <use x="2344.580078" xlink:href="#DejaVuSerif-100"/>
    <use x="2408.59375" xlink:href="#DejaVuSerif-32"/>
    <use x="2440.380859" xlink:href="#DejaVuSerif-99"/>
    <use x="2496.386719" xlink:href="#DejaVuSerif-97"/>
    <use x="2556.005859" xlink:href="#DejaVuSerif-117"/>
    <use x="2620.410156" xlink:href="#DejaVuSerif-115"/>
    <use x="2671.728516" xlink:href="#DejaVuSerif-101"/>
    <use x="2730.908203" xlink:href="#DejaVuSerif-32"/>
    <use x="2762.695312" xlink:href="#DejaVuSerif-83"/>
    <use x="2831.201172" xlink:href="#DejaVuSerif-116"/>
    <use x="2871.386719" xlink:href="#DejaVuSerif-114"/>
    <use x="2919.189453" xlink:href="#DejaVuSerif-111"/>
    <use x="2979.394531" xlink:href="#DejaVuSerif-107"/>
    <use x="3039.990234" xlink:href="#DejaVuSerif-101"/>
    <use x="3099.169922" xlink:href="#DejaVuSerif-63"/>
   </g>
  </g>
  <g id="text_198">
   <!-- 95% -->
   <g style="fill:#8bcbe8;" transform="translate(61.2 277.037813)scale(0.24 -0.24)">
    <defs>
     <path d="M 34.078125 68.5 
Q 29.046875 68.5 26.921875 64.234375 
Q 24.8125 59.96875 24.8125 49.421875 
Q 24.8125 38.875 26.921875 34.59375 
Q 29.046875 30.328125 34.078125 30.328125 
Q 39.109375 30.328125 41.25 34.59375 
Q 43.40625 38.875 43.40625 49.421875 
Q 43.40625 59.96875 41.25 64.234375 
Q 39.109375 68.5 34.078125 68.5 
z
M 44.96875 29.6875 
Q 41.75 27.09375 37.8125 25.796875 
Q 33.890625 24.515625 29.296875 24.515625 
Q 18.171875 24.515625 11.796875 31.03125 
Q 5.421875 37.546875 5.421875 49.03125 
Q 5.421875 61.140625 12.546875 67.671875 
Q 19.671875 74.21875 32.90625 74.21875 
Q 47.859375 74.21875 55.5625 65.1875 
Q 63.28125 56.15625 63.28125 38.71875 
Q 63.28125 18.84375 54.734375 8.703125 
Q 46.1875 -1.421875 29.390625 -1.421875 
Q 25 -1.421875 19.96875 -0.6875 
Q 14.9375 0.046875 9.1875 1.515625 
L 9.1875 14.40625 
L 15.09375 14.40625 
Q 16.3125 9.421875 19.703125 6.859375 
Q 23.09375 4.296875 28.515625 4.296875 
Q 37.109375 4.296875 41.015625 10.28125 
Q 44.921875 16.265625 44.96875 29.6875 
z
" id="DejaVuSerif-Bold-57"/>
     <path d="M 56.390625 72.90625 
L 56.390625 60.109375 
L 17.390625 60.109375 
L 17.390625 44.09375 
Q 20.609375 46.578125 24.5625 47.84375 
Q 28.515625 49.125 32.90625 49.125 
Q 46.390625 49.125 54.203125 42.3125 
Q 62.015625 35.5 62.015625 23.78125 
Q 62.015625 11.859375 54.203125 5.21875 
Q 46.390625 -1.421875 32.328125 -1.421875 
Q 26.375 -1.421875 20.484375 -0.4375 
Q 14.59375 0.53125 8.203125 2.59375 
L 8.203125 18.5 
L 14.0625 18.5 
Q 14.359375 11.328125 17.796875 7.8125 
Q 21.234375 4.296875 27.984375 4.296875 
Q 35.15625 4.296875 38.625 9.109375 
Q 42.09375 13.921875 42.09375 23.78125 
Q 42.09375 33.5 38.6875 38.296875 
Q 35.296875 43.109375 28.421875 43.109375 
Q 24.703125 43.109375 21.796875 41.578125 
Q 18.890625 40.046875 16.40625 36.8125 
L 11.53125 36.8125 
L 11.53125 72.90625 
z
" id="DejaVuSerif-Bold-53"/>
     <path d="M 21.578125 69.28125 
Q 18.453125 69.28125 17.078125 65.890625 
Q 15.71875 62.5 15.71875 54.390625 
Q 15.71875 46.234375 17.078125 42.8125 
Q 18.453125 39.40625 21.578125 39.40625 
Q 24.75 39.40625 26.109375 42.8125 
Q 27.484375 46.234375 27.484375 54.390625 
Q 27.484375 62.5 26.109375 65.890625 
Q 24.75 69.28125 21.578125 69.28125 
z
M 21.578125 74.21875 
Q 30.90625 74.21875 35.859375 69.109375 
Q 40.828125 64.015625 40.828125 54.390625 
Q 40.828125 44.78125 35.859375 39.640625 
Q 30.90625 34.515625 21.578125 34.515625 
Q 12.3125 34.515625 7.34375 39.640625 
Q 2.390625 44.78125 2.390625 54.390625 
Q 2.390625 64.015625 7.34375 69.109375 
Q 12.3125 74.21875 21.578125 74.21875 
z
M 66.109375 74.21875 
L 74.515625 74.21875 
L 28.90625 -1.421875 
L 20.515625 -1.421875 
z
M 73.390625 38.28125 
Q 82.71875 38.28125 87.640625 33.171875 
Q 92.578125 28.078125 92.578125 18.5 
Q 92.578125 8.890625 87.640625 3.734375 
Q 82.71875 -1.421875 73.390625 -1.421875 
Q 64.109375 -1.421875 59.15625 3.734375 
Q 54.203125 8.890625 54.203125 18.5 
Q 54.203125 28.078125 59.15625 33.171875 
Q 64.109375 38.28125 73.390625 38.28125 
z
M 73.390625 33.40625 
Q 70.21875 33.40625 68.84375 30 
Q 67.484375 26.609375 67.484375 18.5 
Q 67.484375 10.359375 68.875 6.9375 
Q 70.265625 3.515625 73.390625 3.515625 
Q 76.5625 3.515625 77.921875 6.9375 
Q 79.296875 10.359375 79.296875 18.5 
Q 79.296875 26.609375 77.921875 30 
Q 76.5625 33.40625 73.390625 33.40625 
z
" id="DejaVuSerif-Bold-37"/>
    </defs>
    <use xlink:href="#DejaVuSerif-Bold-57"/>
    <use x="69.580078" xlink:href="#DejaVuSerif-Bold-53"/>
    <use x="139.160156" xlink:href="#DejaVuSerif-Bold-37"/>
   </g>
  </g>
  <g id="text_199">
   <!-- 92% -->
   <g style="fill:#8bcbe8;" transform="translate(277.2 277.037813)scale(0.24 -0.24)">
    <defs>
     <path d="M 13.1875 54.890625 
L 7.328125 54.890625 
L 7.328125 70.609375 
Q 13.28125 72.40625 19.109375 73.3125 
Q 24.953125 74.21875 30.90625 74.21875 
Q 44.828125 74.21875 52.609375 68.53125 
Q 60.40625 62.84375 60.40625 52.6875 
Q 60.40625 45.453125 56.109375 39.71875 
Q 51.8125 33.984375 39.703125 26.125 
L 19.390625 12.796875 
L 53.90625 12.796875 
L 53.90625 21.390625 
L 60.59375 21.390625 
L 60.59375 0 
L 6.6875 0 
L 6.6875 11.921875 
L 17.484375 19.390625 
Q 31.296875 28.90625 35.890625 35.59375 
Q 40.484375 42.28125 40.484375 51.21875 
Q 40.484375 59.671875 36.984375 64.078125 
Q 33.5 68.5 26.8125 68.5 
Q 21.046875 68.5 17.578125 65.015625 
Q 14.109375 61.53125 13.1875 54.890625 
z
" id="DejaVuSerif-Bold-50"/>
    </defs>
    <use xlink:href="#DejaVuSerif-Bold-57"/>
    <use x="69.580078" xlink:href="#DejaVuSerif-Bold-50"/>
    <use x="139.160156" xlink:href="#DejaVuSerif-Bold-37"/>
   </g>
  </g>
  <g id="text_200">
   <!-- 97% -->
   <g style="fill:#8bcbe8;" transform="translate(493.2 277.037813)scale(0.24 -0.24)">
    <defs>
     <path d="M 61.28125 60.5 
L 31.203125 0 
L 21.296875 0 
L 50.59375 59.078125 
L 14.59375 59.078125 
L 14.59375 49.21875 
L 7.90625 49.21875 
L 7.90625 72.90625 
L 61.28125 72.90625 
z
" id="DejaVuSerif-Bold-55"/>
    </defs>
    <use xlink:href="#DejaVuSerif-Bold-57"/>
    <use x="69.580078" xlink:href="#DejaVuSerif-Bold-55"/>
    <use x="139.160156" xlink:href="#DejaVuSerif-Bold-37"/>
   </g>
  </g>
  <g id="text_201">
   <!-- 95% -->
   <g style="fill:#8bcbe8;" transform="translate(709.2 277.037813)scale(0.24 -0.24)">
    <use xlink:href="#DejaVuSerif-Bold-57"/>
    <use x="69.580078" xlink:href="#DejaVuSerif-Bold-53"/>
    <use x="139.160156" xlink:href="#DejaVuSerif-Bold-37"/>
   </g>
  </g>
  <g id="text_202">
   <!-- 5% -->
   <g style="fill:#e37678;" transform="translate(136.8 277.037813)scale(0.24 -0.24)">
    <use xlink:href="#DejaVuSerif-Bold-53"/>
    <use x="69.580078" xlink:href="#DejaVuSerif-Bold-37"/>
   </g>
  </g>
  <g id="text_203">
   <!-- 8% -->
   <g style="fill:#e37678;" transform="translate(352.8 277.037813)scale(0.24 -0.24)">
    <defs>
     <path d="M 46.484375 38.8125 
Q 55.171875 37.40625 59.6875 32.421875 
Q 64.203125 27.4375 64.203125 19.390625 
Q 64.203125 9.328125 56.609375 3.953125 
Q 49.03125 -1.421875 34.71875 -1.421875 
Q 20.40625 -1.421875 12.78125 3.953125 
Q 5.171875 9.328125 5.171875 19.390625 
Q 5.171875 27.4375 9.71875 32.421875 
Q 14.265625 37.40625 22.90625 38.8125 
Q 15.234375 40.578125 11.421875 44.703125 
Q 7.625 48.828125 7.625 55.171875 
Q 7.625 64.453125 14.546875 69.328125 
Q 21.484375 74.21875 34.71875 74.21875 
Q 47.90625 74.21875 54.859375 69.328125 
Q 61.8125 64.453125 61.8125 55.171875 
Q 61.8125 48.828125 57.984375 44.703125 
Q 54.15625 40.578125 46.484375 38.8125 
z
M 42.921875 54.984375 
Q 42.921875 62.703125 41.0625 65.59375 
Q 39.203125 68.5 34.71875 68.5 
Q 30.171875 68.5 28.34375 65.59375 
Q 26.515625 62.703125 26.515625 54.984375 
Q 26.515625 47.3125 28.34375 44.453125 
Q 30.171875 41.609375 34.71875 41.609375 
Q 39.265625 41.609375 41.09375 44.453125 
Q 42.921875 47.3125 42.921875 54.984375 
z
M 44.828125 20.21875 
Q 44.828125 29.15625 42.546875 32.515625 
Q 40.28125 35.890625 34.71875 35.890625 
Q 29.109375 35.890625 26.859375 32.515625 
Q 24.609375 29.15625 24.609375 20.21875 
Q 24.609375 11.1875 26.875 7.734375 
Q 29.15625 4.296875 34.71875 4.296875 
Q 40.234375 4.296875 42.53125 7.734375 
Q 44.828125 11.1875 44.828125 20.21875 
z
" id="DejaVuSerif-Bold-56"/>
    </defs>
    <use xlink:href="#DejaVuSerif-Bold-56"/>
    <use x="69.580078" xlink:href="#DejaVuSerif-Bold-37"/>
   </g>
  </g>
  <g id="text_204">
   <!-- 3% -->
   <g style="fill:#e37678;" transform="translate(568.8 277.037813)scale(0.24 -0.24)">
    <defs>
     <path d="M 8.59375 70.796875 
Q 15.046875 72.515625 21.09375 73.359375 
Q 27.15625 74.21875 32.90625 74.21875 
Q 46.09375 74.21875 53.140625 69.5 
Q 60.203125 64.796875 60.203125 56 
Q 60.203125 49.421875 56.140625 45.3125 
Q 52.09375 41.21875 44.28125 39.796875 
Q 53.8125 38.28125 58.5 33.296875 
Q 63.1875 28.328125 63.1875 19.671875 
Q 63.1875 9.46875 55.09375 4.015625 
Q 47.015625 -1.421875 31.6875 -1.421875 
Q 25.921875 -1.421875 19.796875 -0.4375 
Q 13.671875 0.53125 6.984375 2.484375 
L 6.984375 18.5 
L 12.890625 18.5 
Q 13.421875 11.578125 17.234375 7.9375 
Q 21.046875 4.296875 27.78125 4.296875 
Q 35.203125 4.296875 39.25 8.421875 
Q 43.3125 12.546875 43.3125 20.125 
Q 43.3125 28.03125 39.078125 32.328125 
Q 34.859375 36.625 27.09375 36.625 
L 23.875 36.625 
L 23.875 42.484375 
L 26.421875 42.484375 
Q 33.59375 42.484375 37.203125 45.796875 
Q 40.828125 49.125 40.828125 55.71875 
Q 40.828125 61.921875 37.421875 65.203125 
Q 34.03125 68.5 27.6875 68.5 
Q 21.921875 68.5 18.546875 65.34375 
Q 15.1875 62.203125 14.5 56.203125 
L 8.59375 56.203125 
z
" id="DejaVuSerif-Bold-51"/>
    </defs>
    <use xlink:href="#DejaVuSerif-Bold-51"/>
    <use x="69.580078" xlink:href="#DejaVuSerif-Bold-37"/>
   </g>
  </g>
  <g id="text_205">
   <!-- 5% -->
   <g style="fill:#e37678;" transform="translate(784.8 277.037813)scale(0.24 -0.24)">
    <use xlink:href="#DejaVuSerif-Bold-53"/>
    <use x="69.580078" xlink:href="#DejaVuSerif-Bold-37"/>
   </g>
  </g>
  <g id="text_206">
   <!-- Never Smoked(37%) -->
   <g style="opacity:0.5;" transform="translate(50.4 61.037813)scale(0.14 -0.14)">
    <defs>
     <path d="M 4.390625 0 
L 4.390625 5.90625 
L 13.71875 5.90625 
L 13.71875 67 
L 4.390625 67 
L 4.390625 72.90625 
L 27.203125 72.90625 
L 71.1875 21.296875 
L 71.1875 67 
L 61.921875 67 
L 61.921875 72.90625 
L 87.40625 72.90625 
L 87.40625 67 
L 78.078125 67 
L 78.078125 0 
L 65.28125 0 
L 20.609375 52.6875 
L 20.609375 5.90625 
L 29.890625 5.90625 
L 29.890625 0 
z
" id="DejaVuSerif-Bold-78"/>
     <path d="M 40.09375 29.296875 
Q 40.09375 39.546875 38.1875 43.671875 
Q 36.28125 47.796875 31.6875 47.796875 
Q 27.25 47.796875 25.3125 43.75 
Q 23.390625 39.703125 23.390625 30.171875 
L 23.390625 29.296875 
z
M 59.078125 23.484375 
L 23.390625 23.484375 
L 23.390625 23.09375 
Q 23.390625 13.03125 26.40625 8.5625 
Q 29.4375 4.109375 36.1875 4.109375 
Q 41.796875 4.109375 45.265625 7.078125 
Q 48.734375 10.0625 49.703125 15.71875 
L 57.8125 15.71875 
Q 55.71875 6.890625 49.46875 2.734375 
Q 43.21875 -1.421875 31.984375 -1.421875 
Q 18.5 -1.421875 11.296875 5.6875 
Q 4.109375 12.796875 4.109375 25.984375 
Q 4.109375 38.875 11.46875 46.09375 
Q 18.84375 53.328125 31.984375 53.328125 
Q 44.875 53.328125 51.75 45.734375 
Q 58.640625 38.140625 59.078125 23.484375 
z
" id="DejaVuSerif-Bold-101"/>
     <path d="M 22.3125 0 
L 3.90625 46 
L -1.8125 46 
L -1.8125 51.90625 
L 27.984375 51.90625 
L 27.984375 46 
L 21.6875 46 
L 34.8125 13.1875 
L 47.90625 46 
L 41.109375 46 
L 41.109375 51.90625 
L 60.59375 51.90625 
L 60.59375 46 
L 54.59375 46 
L 36.1875 0 
z
" id="DejaVuSerif-Bold-118"/>
     <path d="M 53.71875 52.484375 
L 53.71875 37.015625 
L 48.1875 37.015625 
Q 47.90625 41.15625 45.953125 43.1875 
Q 44 45.21875 40.28125 45.21875 
Q 34.625 45.21875 31.34375 40.234375 
Q 28.078125 35.25 28.078125 26.421875 
L 28.078125 5.90625 
L 37.5 5.90625 
L 37.5 0 
L 3.421875 0 
L 3.421875 5.90625 
L 10.796875 5.90625 
L 10.796875 46 
L 2.875 46 
L 2.875 51.90625 
L 28.078125 51.90625 
L 28.078125 42.671875 
Q 30.609375 48.09375 34.78125 50.703125 
Q 38.96875 53.328125 45.015625 53.328125 
Q 46.53125 53.328125 48.703125 53.09375 
Q 50.875 52.875 53.71875 52.484375 
z
" id="DejaVuSerif-Bold-114"/>
     <path id="DejaVuSerif-Bold-32"/>
     <path d="M 7.71875 3.515625 
L 7.71875 20.796875 
L 13.921875 20.796875 
Q 15.328125 12.59375 20.59375 8.546875 
Q 25.875 4.5 35.203125 4.5 
Q 42.78125 4.5 46.734375 7.375 
Q 50.6875 10.25 50.6875 15.828125 
Q 50.6875 20.21875 48 22.65625 
Q 45.3125 25.09375 36.921875 27.203125 
L 25.984375 29.890625 
Q 15.28125 32.625 10.9375 37.46875 
Q 6.59375 42.328125 6.59375 51.3125 
Q 6.59375 62.15625 13.796875 68.1875 
Q 21 74.21875 33.984375 74.21875 
Q 40.375 74.21875 47.28125 73.140625 
Q 54.203125 72.078125 61.625 69.921875 
L 61.625 53.8125 
L 55.421875 53.8125 
Q 54 61.328125 49.21875 64.8125 
Q 44.4375 68.3125 35.59375 68.3125 
Q 28.375 68.3125 24.6875 65.796875 
Q 21 63.28125 21 58.296875 
Q 21 53.765625 23.53125 51.390625 
Q 26.078125 49.03125 35.984375 46.484375 
L 46.921875 43.796875 
Q 57.078125 41.265625 61.640625 35.890625 
Q 66.21875 30.515625 66.21875 21.09375 
Q 66.21875 10.0625 58.59375 4.3125 
Q 50.984375 -1.421875 36.1875 -1.421875 
Q 29.046875 -1.421875 22.015625 -0.1875 
Q 14.984375 1.03125 7.71875 3.515625 
z
" id="DejaVuSerif-Bold-83"/>
     <path d="M 60.6875 43.40625 
Q 64.3125 48.578125 68.5 50.953125 
Q 72.703125 53.328125 78.328125 53.328125 
Q 87.25 53.328125 91.671875 48.265625 
Q 96.09375 43.21875 96.09375 33.015625 
L 96.09375 5.90625 
L 103.515625 5.90625 
L 103.515625 0 
L 72.609375 0 
L 72.609375 5.90625 
L 78.8125 5.90625 
L 78.8125 30.421875 
Q 78.8125 40.140625 77.3125 42.671875 
Q 75.828125 45.21875 71.78125 45.21875 
Q 67.1875 45.21875 64.640625 41.671875 
Q 62.109375 38.140625 62.109375 31.59375 
L 62.109375 5.90625 
L 68.3125 5.90625 
L 68.3125 0 
L 38.625 0 
L 38.625 5.90625 
L 44.828125 5.90625 
L 44.828125 30.421875 
Q 44.828125 40.140625 43.3125 42.671875 
Q 41.796875 45.21875 37.796875 45.21875 
Q 33.15625 45.21875 30.609375 41.671875 
Q 28.078125 38.140625 28.078125 31.59375 
L 28.078125 5.90625 
L 34.28125 5.90625 
L 34.28125 0 
L 3.421875 0 
L 3.421875 5.90625 
L 10.796875 5.90625 
L 10.796875 46 
L 3.421875 46 
L 3.421875 51.90625 
L 28.078125 51.90625 
L 28.078125 44.578125 
Q 31.109375 49.125 35.015625 51.21875 
Q 38.921875 53.328125 44.28125 53.328125 
Q 50.640625 53.328125 54.59375 50.90625 
Q 58.546875 48.484375 60.6875 43.40625 
z
" id="DejaVuSerif-Bold-109"/>
     <path d="M 33.40625 4.109375 
Q 38.875 4.109375 41.09375 8.796875 
Q 43.3125 13.484375 43.3125 25.984375 
Q 43.3125 38.484375 41.109375 43.140625 
Q 38.921875 47.796875 33.40625 47.796875 
Q 27.875 47.796875 25.625 43.078125 
Q 23.390625 38.375 23.390625 25.984375 
Q 23.390625 13.578125 25.625 8.84375 
Q 27.875 4.109375 33.40625 4.109375 
z
M 33.40625 -1.421875 
Q 19.671875 -1.421875 11.890625 5.875 
Q 4.109375 13.1875 4.109375 25.984375 
Q 4.109375 38.8125 11.890625 46.0625 
Q 19.671875 53.328125 33.40625 53.328125 
Q 47.171875 53.328125 54.9375 46.0625 
Q 62.703125 38.8125 62.703125 25.984375 
Q 62.703125 13.1875 54.90625 5.875 
Q 47.125 -1.421875 33.40625 -1.421875 
z
" id="DejaVuSerif-Bold-111"/>
     <path d="M 34.625 0 
L 3.421875 0 
L 3.421875 5.90625 
L 10.796875 5.90625 
L 10.796875 70.125 
L 3.421875 70.125 
L 3.421875 75.984375 
L 28.078125 75.984375 
L 28.078125 27.203125 
L 49.03125 46 
L 42.828125 46 
L 42.828125 51.90625 
L 66.5 51.90625 
L 66.5 46 
L 56.890625 46 
L 43.5 33.984375 
L 65.375 5.90625 
L 71 5.90625 
L 71 0 
L 41.21875 0 
L 41.21875 5.90625 
L 47.3125 5.90625 
L 32.90625 24.421875 
L 28.078125 20.125 
L 28.078125 5.90625 
L 34.625 5.90625 
z
" id="DejaVuSerif-Bold-107"/>
     <path d="M 42.921875 23.390625 
L 42.921875 28.515625 
Q 42.921875 37.59375 40.578125 41.640625 
Q 38.234375 45.703125 33.109375 45.703125 
Q 27.734375 45.703125 25.5625 41.421875 
Q 23.390625 37.15625 23.390625 25.984375 
Q 23.390625 14.796875 25.578125 10.5 
Q 27.78125 6.203125 33.109375 6.203125 
Q 38.234375 6.203125 40.578125 10.25 
Q 42.921875 14.3125 42.921875 23.390625 
z
M 60.203125 5.90625 
L 67.578125 5.90625 
L 67.578125 0 
L 42.921875 0 
L 42.921875 6.59375 
Q 40.71875 2.546875 36.984375 0.5625 
Q 33.25 -1.421875 27.78125 -1.421875 
Q 16.75 -1.421875 10.421875 5.90625 
Q 4.109375 13.234375 4.109375 25.984375 
Q 4.109375 38.765625 10.421875 46.046875 
Q 16.75 53.328125 27.78125 53.328125 
Q 33.25 53.328125 36.984375 51.34375 
Q 40.71875 49.359375 42.921875 45.3125 
L 42.921875 70.125 
L 35.5 70.125 
L 35.5 75.984375 
L 60.203125 75.984375 
z
" id="DejaVuSerif-Bold-100"/>
     <path d="M 42.09375 -15.578125 
Q 25.640625 -9.46875 17.53125 1.90625 
Q 9.421875 13.28125 9.421875 30.171875 
Q 9.421875 47.078125 17.421875 58.296875 
Q 25.4375 69.53125 42.09375 75.984375 
L 42.09375 70.125 
Q 34.375 65.4375 30.984375 56.21875 
Q 27.59375 47.015625 27.59375 30.171875 
Q 27.59375 13.375 30.984375 4.171875 
Q 34.375 -5.03125 42.09375 -9.71875 
z
" id="DejaVuSerif-Bold-40"/>
     <path d="M 5.078125 -15.578125 
L 5.078125 -9.71875 
Q 12.796875 -5.03125 16.1875 4.171875 
Q 19.578125 13.375 19.578125 30.171875 
Q 19.578125 47.015625 16.1875 56.21875 
Q 12.796875 65.4375 5.078125 70.125 
L 5.078125 75.984375 
Q 21.734375 69.53125 29.765625 58.296875 
Q 37.796875 47.078125 37.796875 30.171875 
Q 37.796875 13.28125 29.65625 1.90625 
Q 21.53125 -9.46875 5.078125 -15.578125 
z
" id="DejaVuSerif-Bold-41"/>
    </defs>
    <use xlink:href="#DejaVuSerif-Bold-78"/>
    <use x="91.40625" xlink:href="#DejaVuSerif-Bold-101"/>
    <use x="155.029297" xlink:href="#DejaVuSerif-Bold-118"/>
    <use x="213.134766" xlink:href="#DejaVuSerif-Bold-101"/>
    <use x="276.757812" xlink:href="#DejaVuSerif-Bold-114"/>
    <use x="329.443359" xlink:href="#DejaVuSerif-Bold-32"/>
    <use x="364.257812" xlink:href="#DejaVuSerif-Bold-83"/>
    <use x="436.474609" xlink:href="#DejaVuSerif-Bold-109"/>
    <use x="542.285156" xlink:href="#DejaVuSerif-Bold-111"/>
    <use x="608.984375" xlink:href="#DejaVuSerif-Bold-107"/>
    <use x="678.271484" xlink:href="#DejaVuSerif-Bold-101"/>
    <use x="741.894531" xlink:href="#DejaVuSerif-Bold-100"/>
    <use x="811.816406" xlink:href="#DejaVuSerif-Bold-40"/>
    <use x="859.130859" xlink:href="#DejaVuSerif-Bold-51"/>
    <use x="928.710938" xlink:href="#DejaVuSerif-Bold-55"/>
    <use x="998.291016" xlink:href="#DejaVuSerif-Bold-37"/>
    <use x="1093.310547" xlink:href="#DejaVuSerif-Bold-41"/>
   </g>
  </g>
  <g id="text_207">
   <!-- Formerly Smoked(17%) -->
   <g style="opacity:0.5;" transform="translate(255.6 61.037813)scale(0.14 -0.14)">
    <defs>
     <path d="M 4.6875 0 
L 4.6875 5.90625 
L 14.015625 5.90625 
L 14.015625 67 
L 4.6875 67 
L 4.6875 72.90625 
L 69.671875 72.90625 
L 69.671875 55.71875 
L 62.984375 55.71875 
L 62.984375 66.21875 
L 32.90625 66.21875 
L 32.90625 42.828125 
L 51.421875 42.828125 
L 51.421875 52.09375 
L 58.109375 52.09375 
L 58.109375 26.90625 
L 51.421875 26.90625 
L 51.421875 36.1875 
L 32.90625 36.1875 
L 32.90625 5.90625 
L 44.390625 5.90625 
L 44.390625 0 
z
" id="DejaVuSerif-Bold-70"/>
     <path d="M 28.078125 5.90625 
L 35.5 5.90625 
L 35.5 0 
L 3.421875 0 
L 3.421875 5.90625 
L 10.796875 5.90625 
L 10.796875 70.125 
L 3.421875 70.125 
L 3.421875 75.984375 
L 28.078125 75.984375 
z
" id="DejaVuSerif-Bold-108"/>
     <path d="M 31.203125 -11.71875 
Q 28.859375 -17.4375 25.53125 -19.828125 
Q 22.21875 -22.21875 16.609375 -22.21875 
Q 14.203125 -22.21875 11.265625 -21.671875 
Q 8.34375 -21.140625 4.890625 -20.125 
L 4.890625 -9.28125 
L 10.40625 -9.328125 
Q 10.546875 -13.09375 12.171875 -14.890625 
Q 13.8125 -16.703125 17.09375 -16.703125 
Q 20.265625 -16.703125 22.21875 -14.96875 
Q 24.171875 -13.234375 26.125 -8.40625 
L 26.90625 -6.59375 
L 4.296875 46 
L -1.3125 46 
L -1.3125 51.90625 
L 28.609375 51.90625 
L 28.609375 46 
L 22.40625 46 
L 35.59375 15.28125 
L 47.90625 46 
L 41.015625 46 
L 41.015625 51.90625 
L 60.5 51.90625 
L 60.5 46 
L 54.203125 46 
z
" id="DejaVuSerif-Bold-121"/>
     <path d="M 13.71875 0 
L 13.71875 5.90625 
L 27.390625 5.90625 
L 27.390625 64.890625 
L 12.203125 55.90625 
L 12.203125 63.1875 
L 30.515625 74.21875 
L 45.90625 74.21875 
L 45.90625 5.90625 
L 59.625 5.90625 
L 59.625 0 
z
" id="DejaVuSerif-Bold-49"/>
    </defs>
    <use xlink:href="#DejaVuSerif-Bold-70"/>
    <use x="65.496094" xlink:href="#DejaVuSerif-Bold-111"/>
    <use x="132.195312" xlink:href="#DejaVuSerif-Bold-114"/>
    <use x="184.880859" xlink:href="#DejaVuSerif-Bold-109"/>
    <use x="290.691406" xlink:href="#DejaVuSerif-Bold-101"/>
    <use x="354.314453" xlink:href="#DejaVuSerif-Bold-114"/>
    <use x="407" xlink:href="#DejaVuSerif-Bold-108"/>
    <use x="444.988281" xlink:href="#DejaVuSerif-Bold-121"/>
    <use x="503.09375" xlink:href="#DejaVuSerif-Bold-32"/>
    <use x="537.908203" xlink:href="#DejaVuSerif-Bold-83"/>
    <use x="610.125" xlink:href="#DejaVuSerif-Bold-109"/>
    <use x="715.935547" xlink:href="#DejaVuSerif-Bold-111"/>
    <use x="782.634766" xlink:href="#DejaVuSerif-Bold-107"/>
    <use x="851.921875" xlink:href="#DejaVuSerif-Bold-101"/>
    <use x="915.544922" xlink:href="#DejaVuSerif-Bold-100"/>
    <use x="985.466797" xlink:href="#DejaVuSerif-Bold-40"/>
    <use x="1032.78125" xlink:href="#DejaVuSerif-Bold-49"/>
    <use x="1102.361328" xlink:href="#DejaVuSerif-Bold-55"/>
    <use x="1171.941406" xlink:href="#DejaVuSerif-Bold-37"/>
    <use x="1266.960938" xlink:href="#DejaVuSerif-Bold-41"/>
   </g>
  </g>
  <g id="text_208">
   <!-- Unknown(30%) -->
   <g style="opacity:0.5;" transform="translate(493.2 61.037813)scale(0.14 -0.14)">
    <defs>
     <path d="M 12.703125 67 
L 3.421875 67 
L 3.421875 72.90625 
L 40.921875 72.90625 
L 40.921875 67 
L 31.59375 67 
L 31.59375 30.515625 
Q 31.59375 16.890625 35.84375 11.4375 
Q 40.09375 6 50.390625 6 
Q 60.453125 6 64.671875 11.5 
Q 68.890625 17 68.890625 30.515625 
L 68.890625 67 
L 59.625 67 
L 59.625 72.90625 
L 85.015625 72.90625 
L 85.015625 67 
L 75.6875 67 
L 75.6875 29.5 
Q 75.6875 12.796875 68.453125 5.6875 
Q 61.234375 -1.421875 44.1875 -1.421875 
Q 27.25 -1.421875 19.96875 5.75 
Q 12.703125 12.9375 12.703125 29.59375 
z
" id="DejaVuSerif-Bold-85"/>
     <path d="M 3.421875 0 
L 3.421875 5.90625 
L 10.796875 5.90625 
L 10.796875 46 
L 3.421875 46 
L 3.421875 51.90625 
L 28.078125 51.90625 
L 28.078125 44.578125 
Q 31.203125 49.21875 35.203125 51.265625 
Q 39.203125 53.328125 45.3125 53.328125 
Q 54.046875 53.328125 58.515625 48.171875 
Q 62.984375 43.015625 62.984375 33.015625 
L 62.984375 5.90625 
L 70.40625 5.90625 
L 70.40625 0 
L 39.40625 0 
L 39.40625 5.90625 
L 45.703125 5.90625 
L 45.703125 33.5 
Q 45.703125 40.09375 44.015625 42.65625 
Q 42.328125 45.21875 38.1875 45.21875 
Q 32.953125 45.21875 30.515625 41.375 
Q 28.078125 37.546875 28.078125 29.203125 
L 28.078125 5.90625 
L 34.421875 5.90625 
L 34.421875 0 
z
" id="DejaVuSerif-Bold-110"/>
     <path d="M 53.90625 51.90625 
L 65.71875 17.28125 
L 75.484375 46 
L 68.703125 46 
L 68.703125 51.90625 
L 88.09375 51.90625 
L 88.09375 46 
L 81.984375 46 
L 66.3125 0 
L 54.390625 0 
L 43.40625 32.515625 
L 32.328125 0 
L 20.515625 0 
L 4.78125 46 
L -0.875 46 
L -0.875 51.90625 
L 28.515625 51.90625 
L 28.515625 46 
L 22.40625 46 
L 31.984375 17.921875 
L 43.609375 51.90625 
z
" id="DejaVuSerif-Bold-119"/>
     <path d="M 34.8125 4.296875 
Q 40.671875 4.296875 42.84375 9.609375 
Q 45.015625 14.9375 45.015625 36.375 
Q 45.015625 57.671875 42.84375 63.078125 
Q 40.671875 68.5 34.8125 68.5 
Q 28.953125 68.5 26.78125 63.171875 
Q 24.609375 57.859375 24.609375 36.375 
Q 24.609375 14.9375 26.78125 9.609375 
Q 28.953125 4.296875 34.8125 4.296875 
z
M 34.8125 -1.421875 
Q 20.21875 -1.421875 12.453125 8.3125 
Q 4.6875 18.0625 4.6875 36.375 
Q 4.6875 54.6875 12.453125 64.453125 
Q 20.21875 74.21875 34.8125 74.21875 
Q 49.359375 74.21875 57.125 64.453125 
Q 64.890625 54.6875 64.890625 36.375 
Q 64.890625 18.0625 57.125 8.3125 
Q 49.359375 -1.421875 34.8125 -1.421875 
z
" id="DejaVuSerif-Bold-48"/>
    </defs>
    <use xlink:href="#DejaVuSerif-Bold-85"/>
    <use x="87.207031" xlink:href="#DejaVuSerif-Bold-110"/>
    <use x="159.912109" xlink:href="#DejaVuSerif-Bold-107"/>
    <use x="229.199219" xlink:href="#DejaVuSerif-Bold-110"/>
    <use x="301.904297" xlink:href="#DejaVuSerif-Bold-111"/>
    <use x="368.603516" xlink:href="#DejaVuSerif-Bold-119"/>
    <use x="454.6875" xlink:href="#DejaVuSerif-Bold-110"/>
    <use x="527.392578" xlink:href="#DejaVuSerif-Bold-40"/>
    <use x="574.707031" xlink:href="#DejaVuSerif-Bold-51"/>
    <use x="644.287109" xlink:href="#DejaVuSerif-Bold-48"/>
    <use x="713.867188" xlink:href="#DejaVuSerif-Bold-37"/>
    <use x="808.886719" xlink:href="#DejaVuSerif-Bold-41"/>
   </g>
  </g>
  <g id="text_209">
   <!-- Smokes(15%) -->
   <g style="opacity:0.5;" transform="translate(709.2 61.037813)scale(0.14 -0.14)">
    <defs>
     <path d="M 4.6875 1.515625 
L 4.6875 16.015625 
L 10.203125 16.015625 
Q 10.890625 10.203125 14.546875 7.15625 
Q 18.21875 4.109375 24.515625 4.109375 
Q 29.78125 4.109375 32.59375 5.9375 
Q 35.40625 7.765625 35.40625 11.1875 
Q 35.40625 14.3125 33.625 16.015625 
Q 31.84375 17.71875 26.703125 19 
L 19.578125 20.796875 
Q 11.53125 22.796875 7.90625 26.53125 
Q 4.296875 30.28125 4.296875 36.625 
Q 4.296875 45.0625 10.15625 49.1875 
Q 16.015625 53.328125 28.21875 53.328125 
Q 32.8125 53.328125 38.015625 52.5625 
Q 43.21875 51.8125 49.515625 50.203125 
L 49.515625 37.109375 
L 44 37.109375 
Q 43.5625 42.4375 40.203125 45.109375 
Q 36.859375 47.796875 30.609375 47.796875 
Q 25.34375 47.796875 22.625 46.109375 
Q 19.921875 44.4375 19.921875 41.21875 
Q 19.921875 38.578125 21.484375 37.0625 
Q 23.046875 35.546875 27.09375 34.515625 
L 34.1875 32.71875 
Q 44.390625 30.125 48.296875 26.3125 
Q 52.203125 22.515625 52.203125 15.71875 
Q 52.203125 6.9375 45.921875 2.75 
Q 39.65625 -1.421875 26.421875 -1.421875 
Q 21.578125 -1.421875 16.15625 -0.6875 
Q 10.75 0.046875 4.6875 1.515625 
z
" id="DejaVuSerif-Bold-115"/>
    </defs>
    <use xlink:href="#DejaVuSerif-Bold-83"/>
    <use x="72.216797" xlink:href="#DejaVuSerif-Bold-109"/>
    <use x="178.027344" xlink:href="#DejaVuSerif-Bold-111"/>
    <use x="244.726562" xlink:href="#DejaVuSerif-Bold-107"/>
    <use x="314.013672" xlink:href="#DejaVuSerif-Bold-101"/>
    <use x="377.636719" xlink:href="#DejaVuSerif-Bold-115"/>
    <use x="433.935547" xlink:href="#DejaVuSerif-Bold-40"/>
    <use x="481.25" xlink:href="#DejaVuSerif-Bold-49"/>
    <use x="550.830078" xlink:href="#DejaVuSerif-Bold-53"/>
    <use x="620.410156" xlink:href="#DejaVuSerif-Bold-37"/>
    <use x="715.429688" xlink:href="#DejaVuSerif-Bold-41"/>
   </g>
  </g>
  <g id="text_210">
   <!-- Stroke  -->
   <g style="fill:#e37678;" transform="translate(666 17.837812)scale(0.12 -0.12)">
    <defs>
     <path d="M 9.90625 46 
L 2.390625 46 
L 2.390625 51.90625 
L 9.90625 51.90625 
L 9.90625 68.015625 
L 27.203125 68.015625 
L 27.203125 51.90625 
L 41.609375 51.90625 
L 41.609375 46 
L 27.203125 46 
L 27.203125 14.203125 
Q 27.203125 7.421875 28.265625 5.765625 
Q 29.34375 4.109375 32.171875 4.109375 
Q 35.296875 4.109375 36.8125 6.203125 
Q 38.328125 8.296875 38.421875 12.703125 
L 45.703125 12.703125 
Q 45.265625 4.890625 41.421875 1.734375 
Q 37.59375 -1.421875 28.21875 -1.421875 
Q 17.53125 -1.421875 13.71875 1.921875 
Q 9.90625 5.28125 9.90625 14.203125 
z
" id="DejaVuSerif-Bold-116"/>
    </defs>
    <use xlink:href="#DejaVuSerif-Bold-83"/>
    <use x="72.216797" xlink:href="#DejaVuSerif-Bold-116"/>
    <use x="118.408203" xlink:href="#DejaVuSerif-Bold-114"/>
    <use x="171.09375" xlink:href="#DejaVuSerif-Bold-111"/>
    <use x="237.792969" xlink:href="#DejaVuSerif-Bold-107"/>
    <use x="307.080078" xlink:href="#DejaVuSerif-Bold-101"/>
    <use x="370.703125" xlink:href="#DejaVuSerif-Bold-32"/>
   </g>
  </g>
  <g id="text_211">
   <!-- | -->
   <g transform="translate(720 17.837812)scale(0.12 -0.12)">
    <defs>
     <path d="M 8.59375 -21.046875 
L 8.59375 72.796875 
L 19.484375 72.796875 
L 19.484375 -21.046875 
z
" id="Arial-BoldMT-124"/>
    </defs>
    <use xlink:href="#Arial-BoldMT-124"/>
   </g>
  </g>
  <g id="text_212">
   <!-- Healthy -->
   <g style="fill:#8bcbe8;" transform="translate(730.8 17.837812)scale(0.12 -0.12)">
    <defs>
     <path d="M 4.6875 0 
L 4.6875 5.90625 
L 14.015625 5.90625 
L 14.015625 67 
L 4.6875 67 
L 4.6875 72.90625 
L 42.1875 72.90625 
L 42.1875 67 
L 32.8125 67 
L 32.8125 42.484375 
L 61.8125 42.484375 
L 61.8125 67 
L 52.484375 67 
L 52.484375 72.90625 
L 89.984375 72.90625 
L 89.984375 67 
L 80.609375 67 
L 80.609375 5.90625 
L 89.984375 5.90625 
L 89.984375 0 
L 52.484375 0 
L 52.484375 5.90625 
L 61.8125 5.90625 
L 61.8125 35.796875 
L 32.8125 35.796875 
L 32.8125 5.90625 
L 42.1875 5.90625 
L 42.1875 0 
z
" id="DejaVuSerif-Bold-72"/>
     <path d="M 55.078125 31.890625 
L 55.078125 5.90625 
L 62.5 5.90625 
L 62.5 0 
L 37.796875 0 
L 37.796875 6.59375 
Q 34.375 2.484375 30.171875 0.53125 
Q 25.984375 -1.421875 20.609375 -1.421875 
Q 12.640625 -1.421875 8.375 2.84375 
Q 4.109375 7.125 4.109375 15.09375 
Q 4.109375 23.828125 10.234375 28.171875 
Q 16.359375 32.515625 28.71875 32.515625 
L 37.796875 32.515625 
L 37.796875 35.59375 
Q 37.796875 41.890625 34.8125 44.890625 
Q 31.84375 47.90625 25.59375 47.90625 
Q 20.40625 47.90625 17.59375 45.78125 
Q 14.796875 43.65625 13.625 38.8125 
L 8.109375 38.8125 
L 8.109375 50 
Q 12.75 51.65625 17.71875 52.484375 
Q 22.703125 53.328125 28.21875 53.328125 
Q 42.140625 53.328125 48.609375 48.140625 
Q 55.078125 42.96875 55.078125 31.890625 
z
M 37.796875 16.3125 
L 37.796875 26.703125 
L 31.296875 26.703125 
Q 26.46875 26.703125 23.875 24.0625 
Q 21.296875 21.4375 21.296875 16.5 
Q 21.296875 11.578125 23.171875 9.125 
Q 25.046875 6.6875 28.90625 6.6875 
Q 32.90625 6.6875 35.34375 9.328125 
Q 37.796875 11.96875 37.796875 16.3125 
z
" id="DejaVuSerif-Bold-97"/>
     <path d="M 3.421875 0 
L 3.421875 5.90625 
L 10.796875 5.90625 
L 10.796875 70.125 
L 3.078125 70.125 
L 3.078125 75.984375 
L 28.078125 75.984375 
L 28.078125 44.578125 
Q 31.203125 49.21875 35.203125 51.265625 
Q 39.203125 53.328125 45.3125 53.328125 
Q 54.046875 53.328125 58.515625 48.171875 
Q 62.984375 43.015625 62.984375 33.015625 
L 62.984375 5.90625 
L 70.40625 5.90625 
L 70.40625 0 
L 39.40625 0 
L 39.40625 5.90625 
L 45.703125 5.90625 
L 45.703125 33.5 
Q 45.703125 40.09375 44.015625 42.65625 
Q 42.328125 45.21875 38.1875 45.21875 
Q 32.953125 45.21875 30.515625 41.375 
Q 28.078125 37.546875 28.078125 29.203125 
L 28.078125 5.90625 
L 34.421875 5.90625 
L 34.421875 0 
z
" id="DejaVuSerif-Bold-104"/>
    </defs>
    <use xlink:href="#DejaVuSerif-Bold-72"/>
    <use x="94.482422" xlink:href="#DejaVuSerif-Bold-101"/>
    <use x="158.105469" xlink:href="#DejaVuSerif-Bold-97"/>
    <use x="222.900391" xlink:href="#DejaVuSerif-Bold-108"/>
    <use x="260.888672" xlink:href="#DejaVuSerif-Bold-116"/>
    <use x="307.080078" xlink:href="#DejaVuSerif-Bold-104"/>
    <use x="379.785156" xlink:href="#DejaVuSerif-Bold-121"/>
   </g>
  </g>
 </g>
</svg>
